<?xml version="1.0" encoding="UTF-8"?>
<!DOCTYPE svg PUBLIC "-//W3C//DTD SVG 1.1//EN" "http://www.w3.org/Graphics/SVG/1.1/DTD/svg11.dtd">
<!-- Creator: CorelDRAW 2019 (64-Bit) -->
<svg xmlns="http://www.w3.org/2000/svg" xml:space="preserve" width="148.167mm" height="21.3907mm" version="1.1" style="shape-rendering:geometricPrecision; text-rendering:geometricPrecision; image-rendering:optimizeQuality; fill-rule:evenodd; clip-rule:evenodd"
viewBox="0 0 957.35 138.21"
 xmlns:xlink="http://www.w3.org/1999/xlink">
 <defs>
  <style type="text/css">
   <![CDATA[
    .fil11 {fill:#FEFEFE}
    .fil0 {fill:#AD3437}
    .fil7 {fill:#145A9E}
    .fil2 {fill:#666666}
    .fil10 {fill:#F03237}
    .fil8 {fill:yellow}
    .fil1 {fill:white}
    .fil9 {fill:black;fill-rule:nonzero}
    .fil12 {fill:white;fill-rule:nonzero}
    .fil5 {fill:url(#id2)}
    .fil4 {fill:url(#id3)}
    .fil3 {fill:url(#id4)}
    .fil6 {fill:url(#id5)}
   ]]>
  </style>
    <mask id="id0">
  <linearGradient id="id1" gradientUnits="userSpaceOnUse" x1="193.39" y1="59.54" x2="148.63" y2="59.55">
   <stop offset="0" style="stop-opacity:0; stop-color:white"/>
   <stop offset="1" style="stop-opacity:1; stop-color:white"/>
  </linearGradient>
     <rect style="fill:url(#id1)" x="154.37" y="15.66" width="77.39" height="94.67"/>
    </mask>
  <linearGradient id="id2" gradientUnits="userSpaceOnUse" x1="85.14" y1="25.39" x2="85.14" y2="98.23">
   <stop offset="0" style="stop-opacity:1; stop-color:#00AFF0"/>
   <stop offset="1" style="stop-opacity:1; stop-color:#3E4096"/>
  </linearGradient>
  <linearGradient id="id3" gradientUnits="userSpaceOnUse" x1="122.1" y1="92.96" x2="48.79" y2="30.66">
   <stop offset="0" style="stop-opacity:1; stop-color:#C89426"/>
   <stop offset="0.101961" style="stop-opacity:1; stop-color:#FFC300"/>
   <stop offset="0.168627" style="stop-opacity:1; stop-color:yellow"/>
   <stop offset="0.25098" style="stop-opacity:1; stop-color:#FFF5AF"/>
   <stop offset="0.309804" style="stop-opacity:1; stop-color:yellow"/>
   <stop offset="0.380392" style="stop-opacity:1; stop-color:#FFC300"/>
   <stop offset="0.478431" style="stop-opacity:1; stop-color:#C89426"/>
   <stop offset="0.521569" style="stop-opacity:1; stop-color:#C89426"/>
   <stop offset="0.619608" style="stop-opacity:1; stop-color:#FFC300"/>
   <stop offset="0.701961" style="stop-opacity:1; stop-color:yellow"/>
   <stop offset="0.74902" style="stop-opacity:1; stop-color:#FFF5AF"/>
   <stop offset="0.811765" style="stop-opacity:1; stop-color:yellow"/>
   <stop offset="0.909804" style="stop-opacity:1; stop-color:#FFC300"/>
   <stop offset="1" style="stop-opacity:1; stop-color:#C89426"/>
  </linearGradient>
  <linearGradient id="id4" gradientUnits="userSpaceOnUse" xlink:href="#id2" x1="85.88" y1="112.32" x2="85.88" y2="11.3">
  </linearGradient>
  <radialGradient id="id5" gradientUnits="userSpaceOnUse" gradientTransform="matrix(1.26594 -0 -0 1.26594 -23 -16)" cx="85.3" cy="61.76" r="425.35" fx="85.3" fy="61.76">
   <stop offset="0" style="stop-opacity:1; stop-color:#FEFEFE"/>
   <stop offset="0.709804" style="stop-opacity:1; stop-color:#FEFEFE"/>
   <stop offset="1" style="stop-opacity:1; stop-color:#A0DCF5"/>
  </radialGradient>
 </defs>
 <g id="Capa_x0020_1">
  <metadata id="CorelCorpID_0Corel-Layer"/>
  <g id="_1951406270864">
   <path class="fil0" d="M153 138.21l-126.38 0c-11.21,0 -20.37,-9.17 -20.37,-20.37l0 -91.63c0,-11.21 9.17,-20.37 20.37,-20.37l126.38 0c11.21,0 20.37,9.17 20.37,20.37l0 91.63c0,11.21 -9.17,20.37 -20.37,20.37z"/>
   <polygon class="fil0" points="129.32,109.69 937.25,109.69 957.35,42.83 129.32,42.83 "/>
   <polygon class="fil1" points="135.6,78.91 918.51,78.91 938.78,16.31 135.6,16.31 "/>
   <polygon class="fil2" style="mask:url(#id0)" points="231.11,16.31 155.01,16.31 156.18,109.69 231.11,109.69 "/>
   <path class="fil1" d="M146.76 132.38l-126.38 0c-11.21,0 -20.37,-9.17 -20.37,-20.37l0 -91.63c0,-11.21 9.17,-20.37 20.37,-20.37l126.38 0c11.21,0 20.37,9.17 20.37,20.37l0 91.63c0,11.21 -9.17,20.37 -20.37,20.37z"/>
   <g>
    <path class="fil3" d="M85.3 11.3c27.9,0 50.51,22.61 50.51,50.51 0,27.9 -22.61,50.51 -50.51,50.51 -27.9,0 -50.51,-22.61 -50.51,-50.51 0,-27.9 22.61,-50.51 50.51,-50.51z"/>
    <path class="fil4" d="M85.3 13.35c26.76,0 48.46,21.69 48.46,48.46 0,26.76 -21.69,48.46 -48.46,48.46 -26.76,0 -48.46,-21.69 -48.46,-48.46 0,-26.76 21.69,-48.46 48.46,-48.46z"/>
    <path class="fil5" d="M85.3 25.39c20.11,0 36.42,16.31 36.42,36.42 0,20.11 -16.31,36.42 -36.42,36.42 -20.12,0 -36.42,-16.31 -36.42,-36.42 0,-20.11 16.31,-36.42 36.42,-36.42z"/>
    <path class="fil6" d="M85.3 26.79c19.11,0 34.6,15.66 34.6,34.98 0,19.32 -15.49,34.98 -34.6,34.98 -19.11,0 -34.6,-15.66 -34.6,-34.98 0,-19.32 15.49,-34.98 34.6,-34.98z"/>
    <path class="fil7" d="M82.17 34l-0.61 0.09c0,0 -0.37,-0.05 -0.75,0.19 -0.37,0.24 -0.65,0.24 -0.65,0.24l-1.03 -0.29 -0.28 -0.95 0 -0.62 2.7 -0.1 0.42 0.43 0.14 0.48 0.05 0.52z"/>
    <path class="fil7" d="M87.6 54.31l0 0 0 0 0 0 -0.77 -1.82 0.88 -0.68 -0.14 -0.76 1.27 0.04 -0.07 -1.19 0.56 -0.14 1.06 -0.14 1.2 0.14 0.91 -0.36 0.46 -0.43c0,0 0.21,-0.72 0,-0.65 -0.21,0.07 -0.32,0.11 -0.6,0.22 -0.28,0.11 -0.91,-0.25 -0.91,-0.25l-0.32 -0.97 0.91 -0.22 0.77 -0.65 0.74 -0.32c0,0 0.7,-0.25 0.74,-0.07 0.03,0.18 -0.25,0.5 -0.39,0.72 -0.14,0.22 -0.39,0.93 -0.18,1.04 0.21,0.11 0.28,0.36 0.53,0.36 0.25,0 1.3,0 1.3,0l0.14 -0.68 -0.25 -0.54 -0.53 -0.72c0,0 -0.11,-0.43 -0.11,-0.68 0,-0.25 0.14,-0.83 -0.11,-1.04 -0.25,-0.22 -0.35,-0.5 -0.77,-0.86 -0.42,-0.36 -0.7,-0.5 -0.88,-0.76 -0.18,-0.25 -0.25,-0.29 -0.42,-0.58 -0.18,-0.29 -0.67,-0.97 -0.67,-0.97 0,0 -1.76,-0.36 -1.69,-0.14 0.07,0.22 -0.67,-0.07 -0.67,-0.07l-0.21 -0.54 -0.7 -0.54c0,0 -0.14,-0.25 -0.7,-0.29 -0.56,-0.04 -1.72,-0.18 -1.72,0.18 0,0.36 0,0.32 0,0.79 0,0.47 0,-0.18 0.03,0.9 0.03,1.08 0.7,0 0.03,1.19 -0.67,1.19 -0.49,1.01 -0.67,1.19 -0.18,0.18 -0.21,0.68 -0.18,0.93 0.03,0.25 -0.42,0.61 -0.42,0.61l-0.98 0c0,0 0.25,-0.79 0.21,-1.01 -0.03,-0.22 0.18,-0.43 -0.14,-0.65 -0.32,-0.22 -0.46,-0.36 -0.7,-0.43 -0.25,-0.07 -0.46,-0.11 -0.7,-0.29 -0.25,-0.18 -0.18,-0.25 -0.49,-0.4 -0.32,-0.14 -0.25,-0.11 -0.42,-0.18 -0.18,-0.07 -0.81,-0.29 -0.81,-0.29 0,0 -0.42,-0.07 -0.7,-0.22 -0.28,-0.14 -0.63,-0.43 -0.63,-0.43 0,0 -0.39,-0.83 -0.39,-1.08 0,-0.25 0.04,-0.68 0.14,-0.86 0.11,-0.18 0.28,-0.5 0.39,-0.68 0.11,-0.18 1.48,-0.79 1.48,-0.79 0,0 0.77,-0.18 1.09,0.07 0.32,0.25 0.6,0.36 0.88,0.36 0.28,0 0.49,-0.14 0.67,-0.14 0.18,0 0.77,0 0.77,0 0,0 -0.03,-0.53 -0.26,-0.53 -0.23,0 -0.28,0.05 -0.7,-0.24 -0.42,-0.29 -0.75,-0.62 -0.75,-0.62 0,0 -0.33,-0.43 -0.09,-0.52 0.23,-0.1 1.17,-0.29 1.17,-0.29 0,0 0.28,0.09 0.42,-0.14 0.14,-0.24 0.23,-1.19 0.23,-1.19l-1.17 -0.1 -0.84 0.1 -0.42 0.33c0,0 -0.05,0.1 -0.56,0.05 -0.51,-0.05 -1.54,-0.24 -1.54,-0.24 0,0 -0.09,-0.09 -0.42,0.05 -0.33,0.14 -0.89,0.14 -0.89,0.14 0,0 -0.33,0 -0.84,0 -0.51,0 -1.49,0 -1.49,0l-0.75 0c0,0 -0.23,-0.29 -0.65,0 -0.42,0.29 -1.12,0.62 -1.12,0.62 0,0 -0.28,0.05 -0.56,0 -0.28,-0.05 -0.7,-0.43 -0.7,-0.43l-0.89 0 -0.89 -0.38 0.05 -1.24 -0.51 -0.91 -1.45 -0.67 -2.36 -0.1 0 0c-3.28,2.11 -6.18,4.75 -8.58,7.82l-0.01 0.01 2.37 0.15c0,0 0.8,0 1.28,0.41 0.48,0.41 1.2,0.73 1.2,0.73l0.4 1.55 0.33 0.12 1.49 1.41c0,0 0.49,0.93 0.49,1.29 0,0.36 -0.07,0.65 -0.07,0.65l1.41 2.68 -0 0.06 0.04 0.01c6.06,1.69 13.18,3.56 20.5,5.18z"/>
    <path class="fil7" d="M83.98 96.71c0.44,0.02 0.87,0.03 1.31,0.03 1.49,0 2.97,-0.1 4.41,-0.28l0 0c0.1,-0.19 0.74,-1.33 2.75,-1.09 0,0 1.69,-0.14 1.9,-1.15 0,0 0.84,-1.51 3.09,-0.5 0,0 1.97,0 3.24,-2.01l1.76 -3.02c0,0 0.84,-2.45 3.87,-2.95 0,0 4.04,-1.58 3.32,-5.65l-0 0c-7.43,-0.9 -16.78,-2.65 -28.53,-5.69 0,0 -0.22,-0.06 -0.64,-0.18l0 0 0.31 0.59 -0.21 1.44c0,0 -0.95,1.62 -0.62,2.72 -0,0.02 -0,0.03 -0.01,0.05l0 0.14c0.01,0.11 0.04,0.21 0.09,0.32 0.03,0.05 0.05,0.09 0.08,0.15 0.09,0.16 0.04,0.09 0.04,0.14 0,0.48 0.39,0.71 0.78,0.82 0.13,0.04 0.22,0.09 0.22,0.09l0.12 0.15c0.29,0.36 0.31,0.21 0.51,0.5 0.11,0.16 0.2,0.31 0.32,0.47l0.35 0.46c0.17,0.36 0.26,0.31 0.39,0.42 0.02,0.01 0.23,0.28 0.39,0.42 0.02,0.03 0.05,0.06 0.07,0.09 0,0.03 0.01,0.08 0.04,0.19 0.03,0.1 0.07,0.19 0.13,0.27 0.18,0.26 0.61,0.53 0.9,0.7 0.28,0.17 0.85,0.33 1.19,0.41 0.11,0.03 0.23,0.04 0.33,0.07l0.43 0.18c0.07,0.04 0.14,0.14 0.36,0.25 0.08,0.04 0.16,0.07 0.24,0.1 0.55,0.5 1.05,1.33 0.76,2.62 0,0 -1.41,7.14 -3.72,8.76l0.03 -0z"/>
    <path class="fil7" d="M87.15 36.95l0.29 -0.79 -0.34 -0.94 -1.11 -0.3 -0.58 -0.59 -0.58 -0.34 -0.47 -1.05 -0.84 -0.62 -1.03 -0.67 -0.89 -0.67 0.93 -0.43c0,0 0.33,0.1 0.93,0.19 0.61,0.09 1.77,0.19 1.77,0.19 0,0 -0.05,-0.19 0.33,0.43 0.37,0.62 1.54,1.14 1.54,1.14 0,0 1.4,0.48 1.77,0.62 0.37,0.14 1.45,0.71 1.45,0.71 0,0 0.79,0 0.37,0.19 -0.42,0.19 -0.79,0.67 -0.79,0.67 0,0 -0.33,0.57 -0.05,0.57 0.28,0 1.31,-0.05 1.31,-0.05l0.75 0.81 0.42 0.29c0,0 -0.33,0.71 -0.61,0.81 -0.28,0.1 -0.61,0.38 -0.61,0.38l-0.09 0.52 -0.23 0.48c0,0 0.09,-0.19 -0.14,0.24 -0.23,0.43 -0.23,0.14 -0.23,0.43 0,0.29 0.09,0.43 0.09,0.43l-1.45 -0.62 -0.89 -0.71 -1.07 -0.43 -1.54 -0.19 0.33 -0.81 1.25 0.1z"/>
    <path class="fil8" d="M83.86 76.73c-0.26,-0.07 -0.24,-0.2 -0.43,-0.3 -0.33,-0.16 -0.27,-0.04 -0.52,-0.02 0.06,0.04 0.2,0.15 0.23,0.21 0.07,0.15 -0.02,0.14 -0.04,0.27 -0.04,0.26 -0.11,0.38 -0.25,0.59 -0.15,0.2 -0.25,0.26 -0.52,0.41 -0.43,0.25 -0.2,0.37 -0.4,0.38 0,0.18 -0.04,0.27 -0.05,0.45 -0.01,0.27 0.02,0.06 -0.05,0.19l-0.05 0.1c-0.11,0.25 -0.22,0.01 -0.31,-0.06l-0.32 -0.08c-0.07,0.06 -0.04,0.08 -0.15,0.12 0,-0.14 0.04,-0.07 -0.05,-0.17l0.13 -0.14 -0.11 -0.2c-0.14,0.12 -0.35,0.37 -0.37,0.57 -0.01,0.11 0.17,0.38 0.21,0.42 0.07,0.08 0.04,0 0.12,0.15 -0.03,0.11 -0.08,0.07 -0.12,0.18 0.2,0.18 0.44,0.11 0.73,0.34 0.16,0.13 0.15,0.15 0.27,0.3 0.14,0.17 0.17,0.1 0.3,0.25 0.28,0.3 0.46,0.71 0.74,1.01 0.09,0.1 0.17,0.16 0.21,0.34 0.18,0.04 0.18,0.01 0.27,0.18 0.11,0.21 0.61,0.6 0.66,0.72 0.02,0.24 -0.08,0.14 -0.01,0.28 0.1,0.21 0.4,0.31 0.6,0.47 0.22,0.18 0.91,0.36 1.22,0.43 0.1,0.02 0.15,0.03 0.25,0.05 0.18,0.03 0.1,0.03 0.25,0.1 0.21,0.11 0.3,0.02 0.45,0.22 0.09,0.12 0.56,0.35 0.71,0.25 0.12,-0.15 0.12,-0.15 0.03,-0.35 0.09,-0.04 0.1,-0.06 0.15,-0.12 -0.04,-0.13 -0.03,-0.04 -0.09,-0.15 0.13,-0.09 0.13,-0.16 0.19,-0.28l0.07 -0.21c-0,-0.01 0.01,-0.02 0.01,-0.02 -0.21,-0.08 -0.42,-0.1 -0.26,-0.51 -0.12,-0.08 -0.16,-0.12 -0.08,-0.3 0.2,-0.44 0.05,-0.14 -0.01,-0.5 -0.01,-0.05 -0.01,-0.12 -0.02,-0.2 -0.06,-0.35 -0,-0.12 0.05,-0.39 -0.1,-0.18 -0.32,-0.37 -0.45,-0.53 -0.28,-0.34 -0.24,0.01 -0.64,-0.04 -0.07,-0.21 -0.12,-0.7 -0.14,-0.74 -0.29,0.31 -0.08,0.31 -0.67,0.43 -0.04,-0.04 0.01,0.02 -0.06,-0.06l-0.12 -0.17 -0.41 0.05c0.05,-0.13 0.05,-0.06 0.07,-0.21l-0.42 -0.38c-0.01,-0.01 -0.01,-0.02 -0.02,-0.02l-0.2 -0.22c0.03,-0.19 0.01,-0.02 0.04,-0.1 0.09,-0.23 -0.16,-0.22 0.26,-0.47 -0.07,-0.24 -0.12,-0.12 -0.04,-0.35 0.05,-0.15 0.02,-0.22 0.04,-0.35 0.1,-0.09 0.12,-0.1 0.22,-0.2 0.16,-0.18 0.29,-0.22 0.51,-0.32 0.16,-0.07 0.1,-0.12 0.23,-0.17 0.15,-0.06 0.22,0.01 0.36,0.02 -0.12,-0.23 -0.2,-0.18 -0.41,-0.18 0.03,-0.24 0.18,-0.4 0.19,-0.63 -0.11,-0.01 -0.41,-0.11 -0.45,-0.1 -0.21,0.02 -0.05,0.16 -0.38,0.03 -0.13,0.07 -0.08,0.09 -0.21,0.16 -0.11,0.06 -0.1,0.03 -0.22,0.05 -0.32,0.05 -0.22,0.06 -0.32,-0.21l-0.15 -0.03c-0.01,-0.01 -0.01,-0.02 -0.01,-0.03l-0.04 -0.08c-0.02,-0.03 -0.03,-0.04 -0.05,-0.07 -0.05,-0.04 -0.1,-0.04 -0.15,-0.06z"/>
    <path class="fil7" d="M118.65 116.15c0,-0.49 0.06,-0.45 -0.49,-0.45 -0.19,0 -0.18,0.2 -0.15,0.4 0.06,0.37 -0.03,3.46 0.01,3.77 0.03,0.22 0.22,0.16 0.56,0.16 0.05,0 0.07,-0.04 0.11,-0.07 0,-0.78 0,-1.56 0,-2.34 0,-0.42 0.07,-0.68 0.25,-0.92 0.27,-0.37 0.5,-0.45 0.92,-0.45 0.14,0 0.32,0.09 0.4,0.16 0.4,0.34 0.34,0.88 0.34,1.41l0 2.05c0.03,0.22 0.22,0.16 0.56,0.16 0.05,0 0.07,-0.04 0.11,-0.07 0,-0.77 0,-1.53 0,-2.29 0,-0.55 0.04,-0.94 0.48,-1.25 0.39,-0.28 1.07,-0.24 1.3,0.33 0.14,0.34 0.13,0.58 0.13,1.06l0 1.78c0,0.51 -0.04,0.45 0.56,0.45 0.05,0 0.11,-0.06 0.11,-0.11l0 -2.61c0,-0.6 -0.29,-1.27 -0.78,-1.52 -0.61,-0.31 -1.34,-0.2 -1.81,0.27 -0.11,0.11 -0.18,0.23 -0.24,0.28 -0.02,-0.09 -0.12,-0.2 -0.18,-0.27 -0.07,-0.09 -0.14,-0.14 -0.24,-0.21 -0.43,-0.31 -1.04,-0.3 -1.51,-0.06 -0.31,0.16 -0.32,0.27 -0.46,0.37zm-4.97 -1.51c0,0.74 0.92,0.64 0.92,0.04 0,-0.69 -0.92,-0.61 -0.92,-0.04zm14.69 4.88c0,0.19 -0.02,0.29 0.15,0.46 0.25,0.25 0.8,0.15 0.8,-0.41 0,-0.68 -0.94,-0.61 -0.94,-0.04zm-63.05 1.42c0,0.09 0.06,0.12 0.13,0.14l0.13 0c0.07,-0.01 0.14,-0.02 0.2,-0.03 0.13,-0.03 0.13,-0.09 0.18,-0.2 0.11,-0.23 0.59,-1.51 0.59,-1.77 0,-0.06 -0.01,-0.06 -0.02,-0.11 -0.24,-0.06 -0.71,0.07 -0.74,0.1 -0.05,0.05 -0.11,0.49 -0.15,0.64 -0.05,0.21 -0.1,0.43 -0.15,0.63l-0.18 0.61zm21.39 0.11c0.13,0.04 0.32,0.02 0.44,-0.01 0.12,-0.03 0.15,-0.14 0.19,-0.24 0.15,-0.37 0.35,-0.86 0.46,-1.25 0.17,-0.61 0.25,-0.67 -0.34,-0.57 -0.43,0.07 -0.28,0 -0.46,0.78l-0.26 0.98c-0.05,0.14 -0.09,0.18 -0.03,0.31zm-28.86 -6.55c-0.27,0 -0.41,-0.32 -0.95,-0.32 -0.41,0 -0.54,0.45 -0.58,0.77 -0.03,0.26 0.16,0.24 0.33,0.24 0.24,0 0.22,-0.14 0.25,-0.25 0.02,-0.07 0.03,-0.07 0.05,-0.14 0.27,0 0.96,0.66 1.38,0.09 0.14,-0.18 0.19,-0.47 0.13,-0.72 -0.12,-0.06 -0.17,-0.04 -0.31,-0.04 -0.35,0 -0.15,0.36 -0.29,0.36zm55.94 1.37l0 3.96c0,0.24 0.22,0.18 0.56,0.18 0.05,0 0.11,-0.06 0.11,-0.11l0 -4.09c0,-0.16 -0.31,-0.11 -0.54,-0.11 -0.07,0 -0.13,0.1 -0.13,0.18zm-49.15 0.25c0,-0.13 -0.02,-0.2 -0.02,-0.36 -0.16,-0.11 -0.09,-0.07 -0.52,-0.07 -0.17,0 -0.11,0.28 -0.11,0.41 -0,0.22 0.02,0.36 0.02,0.56l0 2.92c0,0.47 -0.06,0.43 0.52,0.43 0.22,0 0.16,-0.25 0.16,-0.47l0 -1.89c-0,-0.41 0.11,-0.74 0.27,-0.99 0.43,-0.65 1.01,-0.21 1.01,-0.49 0,-0.53 0.07,-0.56 -0.36,-0.56 -0.23,0 -0.41,0.09 -0.57,0.17 -0.09,0.05 -0.13,0.09 -0.21,0.15 -0.09,0.07 -0.12,0.14 -0.19,0.19zm47.03 -0.99l0 0.56c-0.76,0 -0.67,-0.08 -0.67,0.47 0,0.19 0.46,0.14 0.67,0.14l0 2.25c0,0.46 0.04,0.75 0.19,1.07 0.07,0.14 0.17,0.25 0.3,0.33 0.3,0.19 0.78,0.2 1.1,0.09 0.15,-0.05 0.21,-0.09 0.18,-0.26 -0.09,-0.54 -0.04,-0.31 -0.71,-0.31 -0.28,0 -0.38,-0.3 -0.38,-0.58l0 -2.59 0.97 0c0.23,0 0.18,-0.23 0.18,-0.45 0,-0.11 -0.05,-0.16 -0.16,-0.16l-0.99 0 0 -0.72c0,-0.27 -0.28,-0.14 -0.35,-0.11 -0.14,0.06 -0.34,0.08 -0.34,0.26zm3.35 1.71c0,1.01 1.19,1.13 1.69,1.55 0.37,0.3 0.22,1.08 -0.48,1.08 -0.3,0 -0.39,0.02 -0.68,-0.1 -0.37,-0.15 -0.4,-0.3 -0.54,0.03 -0.14,0.32 -0.22,0.37 0.33,0.58 0.62,0.24 1.55,0.14 1.96,-0.38 0.52,-0.67 0.34,-1.63 -0.71,-2.06 -0.11,-0.04 -0.18,-0.08 -0.28,-0.12 -0.31,-0.13 -0.61,-0.27 -0.61,-0.67 0,-0.15 0.1,-0.33 0.19,-0.4 0.51,-0.39 1.2,0.1 1.27,0.1 0.1,0 0.17,-0.22 0.22,-0.3 0.08,-0.16 0.11,-0.21 -0.05,-0.32 -0.29,-0.19 -0.63,-0.24 -1,-0.24 -0.71,0 -1.3,0.53 -1.3,1.24zm-33.27 -1.42l0 0.27c-0.66,0 -0.58,-0.07 -0.58,0.47 0,0.18 0.4,0.14 0.58,0.14l0 3.6c0,0.16 0.3,0.11 0.52,0.11 0.11,0 0.16,-0.08 0.16,-0.18l0 -3.53 0.9 0c0.23,0 0.18,-0.23 0.18,-0.45 0,-0.11 -0.05,-0.16 -0.16,-0.16l-0.92 0c0,-0.72 0.09,-1.64 1.04,-1.38 0.29,0.08 0.29,0.18 0.43,-0.16 0.08,-0.19 0.19,-0.31 -0.22,-0.43 -0.09,-0.03 -0.19,-0.05 -0.29,-0.05l-0.28 0c-0.39,0.03 -0.77,0.22 -1.01,0.54 -0.22,0.29 -0.36,0.72 -0.36,1.22zm25.6 0.45l0 2.2c0,0.57 0.09,1.05 0.31,1.39 0.57,0.85 1.76,0.76 2.33,0.22 0.05,-0.04 0.11,-0.14 0.14,-0.11 0.09,0.08 -0.1,0.43 0.18,0.43 0.55,0 0.51,0.04 0.47,-0.36 -0.02,-0.19 0.01,-0.38 -0.02,-0.55 -0.03,-0.2 -0.01,-3 -0.01,-3.35 -0.16,-0.11 -0.11,-0.07 -0.54,-0.07 -0.07,0 -0.12,0.09 -0.13,0.16l-0 2.2c0,0.62 -0.05,0.95 -0.6,1.29 -0.15,0.09 -0.36,0.13 -0.57,0.13 -0.71,0 -0.9,-0.68 -0.9,-1.39 0,-0.77 0,-1.55 0,-2.32 -0.16,-0.1 -0.21,-0.07 -0.52,-0.07 -0.11,0 -0.16,0.08 -0.16,0.18zm-17.61 -0.07l0 2.52c0,0.91 0.49,1.78 1.44,1.78 0.35,0 0.54,-0.02 0.84,-0.17 0.34,-0.17 0.38,-0.28 0.51,-0.37 0,0.53 -0.01,0.45 0.54,0.45 0.05,0 0.07,-0.04 0.11,-0.07 0,-0.38 -0.02,-0.69 -0.02,-1.08l0 -2.77c0,-0.45 0.05,-0.41 -0.52,-0.41 -0.08,0 -0.11,0.03 -0.16,0.07 0,0.5 0.05,2.59 -0.06,2.93 -0.12,0.38 -0.56,0.78 -1.04,0.78 -0.39,0 -0.68,-0.14 -0.82,-0.48 -0.21,-0.51 -0.14,-1.63 -0.14,-2.24 0,-0.2 -0,-0.4 0,-0.61 0,-0.5 0.06,-0.45 -0.52,-0.45 -0.08,0 -0.16,0.04 -0.16,0.11zm-46.47 0.34c0,-0.15 -0.02,-0.22 -0.02,-0.38 -0.16,-0.1 -0.21,-0.07 -0.52,-0.07 -0.19,0 -0.11,0.33 -0.11,0.38 0,0.21 0.02,0.35 0.02,0.54l0 3.33c0.16,0.11 0.09,0.07 0.52,0.07 0.21,0 0.16,-0.24 0.16,-0.45 0,-0.43 -0.03,-2.21 0.03,-2.44 0.12,-0.46 0.53,-0.89 1,-0.89 0.39,0 0.69,0.04 0.91,0.44 0.14,0.26 0.17,0.58 0.17,0.98 -0,0.77 0,1.53 0,2.29 0.16,0.11 0.09,0.07 0.52,0.07 0.11,0 0.16,-0.05 0.16,-0.16l0 -2.36c0,-0.73 -0.19,-1.34 -0.83,-1.71 -0.57,-0.33 -1.43,-0.18 -1.89,0.26 -0.05,0.05 -0.06,0.07 -0.12,0.11zm25.1 -0.27l0 2.18c0,0.57 0.09,1.08 0.31,1.42 0.03,0.04 0.05,0.07 0.09,0.12 0.15,0.18 0.04,0.07 0.21,0.21 0.54,0.44 1.38,0.37 1.95,-0.04 0.09,-0.06 0.14,-0.17 0.25,-0.2 0,0.49 -0.06,0.45 0.49,0.45 0.21,0 0.16,-0.21 0.14,-0.37l-0.03 -1.66c0,-0.74 0,-1.48 0,-2.23 -0.16,-0.11 -0.11,-0.07 -0.54,-0.07 -0.16,0 -0.14,0.3 -0.14,0.47l0 1.87c0,0.59 -0.02,0.96 -0.57,1.29 -0.41,0.25 -1.05,0.22 -1.31,-0.28 -0.13,-0.25 -0.18,-0.68 -0.18,-0.97 0,-0.77 0,-1.54 0,-2.32 -0.16,-0.11 -0.11,-0.07 -0.54,-0.07 -0.07,0 -0.14,0.1 -0.14,0.18zm-12.06 0.27c0,-0.11 -0.01,-0.2 -0.02,-0.27 -0.03,-0.22 -0.06,-0.18 -0.52,-0.18 -0.18,0 -0.11,0.3 -0.11,0.41 -0,0.2 0.02,0.34 0.02,0.56l0 2.92c-0,0.47 -0.06,0.43 0.52,0.43 0.21,0 0.16,-0.24 0.16,-0.45l0 -1.87c0,-0.56 0.06,-1 0.56,-1.31 0.44,-0.26 1.11,-0.24 1.4,0.32 0.23,0.44 0.16,1.64 0.16,2.25 0,0.2 0,0.41 0,0.61 0,0.5 -0.06,0.45 0.52,0.45 0.1,0 0.16,-0.05 0.16,-0.16l0 -2.43c0,-0.55 -0.14,-0.95 -0.38,-1.27 -0.55,-0.74 -1.73,-0.7 -2.34,-0.12 -0.05,0.05 -0.06,0.07 -0.12,0.11zm16.87 0c0,-0.54 -0.07,-0.45 -0.52,-0.45 -0.09,0 -0.14,0.05 -0.15,0.12l0.04 0.78c0.01,0.37 -0,0.76 -0,1.13 0,0.74 0,1.48 0,2.23 0.16,0.11 0.09,0.07 0.52,0.07 0.06,0 0.06,-0.01 0.11,-0.02 0.1,-0.2 0.05,-0.85 0.05,-1.15 0,-0.41 0,-0.81 0,-1.21 0,-0.51 0.02,-0.66 0.25,-0.96 0.41,-0.55 1.36,-0.61 1.69,0.01 0.14,0.26 0.17,0.59 0.17,0.98 -0,0.77 0,1.53 0,2.29 0.16,0.11 0.09,0.07 0.52,0.07 0.11,0 0.16,-0.08 0.16,-0.18 0,-0.62 0.05,-2.54 -0.08,-3.04 -0.38,-1.41 -1.91,-1.43 -2.63,-0.75 -0.05,0.05 -0.06,0.07 -0.12,0.11zm21.35 0c0,-0.52 0.01,-0.45 -0.54,-0.45 -0.05,0 -0.07,0.04 -0.11,0.07 0,0.38 0.02,0.69 0.02,1.08l0 2.77c0,0.46 -0.05,0.4 0.56,0.4 0.05,0 0.07,-0.04 0.11,-0.07 0,-0.79 0,-1.57 0,-2.36 -0,-0.5 0.11,-0.92 0.58,-1.2 0.46,-0.27 1.15,-0.2 1.39,0.33 0.14,0.32 0.14,0.59 0.14,1.05l0 1.8c0,0.5 -0.06,0.45 0.52,0.45 0.1,0 0.16,-0.05 0.16,-0.16l0 -2.5c0,-0.52 -0.16,-0.92 -0.38,-1.21 -0.51,-0.67 -1.61,-0.69 -2.21,-0.21 -0.08,0.06 -0.17,0.16 -0.24,0.21zm-46.38 -0.7c0,0.47 0.08,0.8 0.4,1.13 0.78,0.81 2.21,0.65 2.21,1.84 0,0.64 -0.47,1.06 -1.08,1.06 -0.4,0 -0.78,-0.02 -1.14,-0.23 -0.23,-0.14 -0.32,-0.23 -0.44,0.07 -0.11,0.27 -0.23,0.3 0.12,0.49 1.22,0.65 3.21,0.28 3.21,-1.41 0,-0.8 -0.45,-1.26 -1.11,-1.59 -0.41,-0.2 -1.01,-0.36 -1.31,-0.72 -0.43,-0.52 -0.16,-1.49 0.75,-1.49 0.38,0 0.64,-0 0.98,0.19 0.24,0.14 0.26,0.08 0.42,-0.31 0.06,-0.15 -0,-0.2 -0.12,-0.26 -0.7,-0.36 -1.72,-0.34 -2.34,0.15 -0.26,0.21 -0.56,0.63 -0.56,1.08zm56.77 4.05c-0.76,0 -0.98,-1.05 -0.18,-1.44 0.37,-0.18 0.83,-0.2 1.28,-0.2l0 0.65c0,0.57 -0.52,0.99 -1.1,0.99zm-1.08 -3.42c0,0.06 0.11,0.3 0.14,0.35 0.16,0.3 0.29,-0.22 1.12,-0.22 0.47,0 0.74,0.18 0.86,0.58 0.03,0.09 0.06,0.32 0.06,0.43 -0.07,0.02 -0.61,0.03 -0.92,0.1 -0.79,0.16 -1.56,0.57 -1.56,1.55 0,0.7 0.56,1.24 1.26,1.24 0.34,0 0.5,-0.02 0.81,-0.16 0.26,-0.11 0.34,-0.24 0.47,-0.31 0,0.46 0.05,0.38 0.54,0.38 0.05,0 0.07,-0.04 0.11,-0.07 0,-0.25 -0.05,-0.44 -0.05,-0.67 0,-0.6 0.02,-1.67 -0.02,-2.18 -0.04,-0.46 -0.15,-0.81 -0.4,-1.06 -0.13,-0.13 -0.24,-0.23 -0.42,-0.3 -0.48,-0.19 -1.02,-0.14 -1.5,0.02 -0.12,0.04 -0.52,0.21 -0.52,0.33zm-26.09 3.42c-0.73,0 -0.81,-0.81 -0.53,-1.18 0.31,-0.42 1.07,-0.46 1.61,-0.46 0,0.62 0.1,1.04 -0.36,1.4 -0.17,0.13 -0.43,0.24 -0.72,0.24zm-1.08 -3.42c0,0.05 0.11,0.32 0.13,0.36 0.15,0.28 0.31,-0.22 1.15,-0.22 0.26,0 0.52,0.09 0.65,0.23 0.18,0.21 0.23,0.42 0.23,0.74 0,0.13 -0.2,0.05 -0.42,0.07 -0.13,0.01 -0.31,0.04 -0.43,0.06 -0.52,0.1 -1,0.28 -1.33,0.7 -0.29,0.36 -0.36,0.96 -0.15,1.39 0.19,0.4 0.6,0.7 1.1,0.7 0.34,0 0.54,-0.01 0.85,-0.16 0.27,-0.13 0.39,-0.29 0.47,-0.31 0,0.46 0.03,0.38 0.54,0.38 0.05,0 0.07,-0.04 0.11,-0.07 0,-0.25 -0.05,-0.42 -0.04,-0.67l0 -1.8c-0,-0.3 -0.05,-0.69 -0.14,-0.96 -0.18,-0.54 -0.68,-0.9 -1.3,-0.9 -0.41,0 -0.52,0.01 -0.9,0.14 -0.12,0.04 -0.52,0.2 -0.52,0.33zm49.6 3.42c-0.77,0 -1.33,-0.78 -1.33,-1.46 0,-0.51 0.03,-0.95 0.36,-1.35 0.56,-0.7 1.83,-0.7 2.23,0.52 0.35,1.06 -0.23,2.3 -1.26,2.3zm-2.02 -1.62c0,0.83 0.34,1.6 1.07,2.01 0.54,0.3 1.3,0.28 1.85,0.01 0.68,-0.34 1.15,-1.09 1.15,-1.95 0,-0.55 -0.05,-0.95 -0.32,-1.41 -0.13,-0.22 -0.28,-0.38 -0.47,-0.54 -0.12,-0.09 -0.18,-0.13 -0.32,-0.2 -0.57,-0.29 -1.26,-0.25 -1.83,0.03 -0.75,0.37 -1.12,1.21 -1.12,2.05zm-64.04 0c0,-1.79 1.68,-2.06 2.34,-1.19 0.8,1.07 0.22,2.81 -0.99,2.81 -0.82,0 -1.35,-0.79 -1.35,-1.62zm-0.68 -0.11l0 0.27c0,1.07 0.83,2.07 1.89,2.07 0.41,0 0.68,-0.03 1.04,-0.22 1.33,-0.7 1.44,-2.6 0.63,-3.61 -0.15,-0.18 -0.36,-0.35 -0.57,-0.46 -1.18,-0.64 -2.98,0.13 -2.98,1.95zm25.46 -1.55l0.11 0c0.61,0 0.99,0.54 0.99,1.15l-2.25 0 0.14 -0.42c0.05,-0.11 0.15,-0.27 0.23,-0.36 0.18,-0.19 0.42,-0.37 0.78,-0.37zm-1.87 1.71c0,0.67 0.21,1.16 0.51,1.53 0.31,0.38 0.9,0.65 1.42,0.65 0.36,0 0.61,-0 0.95,-0.09 0.74,-0.19 0.56,-0.3 0.49,-0.56 -0.13,-0.47 -0.17,0.02 -1.35,0.02 -0.89,0 -1.33,-0.72 -1.35,-1.53l2.88 0c0.16,0 0.11,-0.34 0.11,-0.52 0,-0.63 -0.27,-1.13 -0.66,-1.48 -0.31,-0.28 -0.71,-0.34 -1.14,-0.34 -0.83,0 -1.49,0.64 -1.73,1.4 -0.08,0.25 -0.14,0.6 -0.14,0.92zm-29.67 -1.71c0.37,0 0.63,0.08 0.84,0.33 0.14,0.18 0.27,0.49 0.27,0.81l-2.23 0c0,-0.42 0.44,-1.15 1.12,-1.15zm-1.87 1.73c0,1.17 0.77,2.16 1.93,2.16 0.52,0 0.8,-0.01 1.28,-0.2 0.29,-0.12 0.25,-0.15 0.16,-0.45 -0.1,-0.3 -0.17,-0.21 -0.37,-0.13 -0.09,0.04 -0.15,0.05 -0.24,0.08 -0.58,0.14 -1.28,0.12 -1.7,-0.34 -0.24,-0.26 -0.37,-0.68 -0.37,-1.12l2.86 0c0.26,0 0.13,-1.18 -0.28,-1.72 -0.33,-0.43 -0.74,-0.62 -1.36,-0.62 -0.65,0 -1.11,0.34 -1.41,0.7 -0.34,0.41 -0.5,1.07 -0.5,1.64zm-13.88 -3.73l0 3.62c0,1.2 0.66,2.27 1.91,2.27 0.37,0 0.65,-0.01 0.99,-0.16 1.1,-0.48 1.28,-1.51 1.28,-2.74l0 -2.92c0,-0.28 -0.18,-0.22 -0.52,-0.22 -0.26,0 -0.18,0.29 -0.18,0.67l0 2.61c0,0.67 -0.01,1.03 -0.25,1.49 -0.18,0.35 -0.56,0.65 -1.08,0.65 -0.37,0 -0.56,0.01 -0.89,-0.22 -0.58,-0.4 -0.6,-1.28 -0.6,-1.97l0 -2.99c-0,-0.3 -0.14,-0.25 -0.52,-0.25 -0.11,0 -0.16,0.05 -0.16,0.16zm63.79 5.29c-0.68,0 -1.24,-0.52 -1.24,-1.19l0 -0.81c0,-0.64 0.54,-1.28 1.28,-1.28 1.67,0 1.72,3.28 -0.04,3.28zm-1.82 0.52c0.58,0 0.52,0.05 0.52,-0.47 0.12,0.08 0.19,0.24 0.51,0.39 1.19,0.58 2.78,-0.28 2.78,-1.97 0,-0.44 0.01,-0.72 -0.16,-1.12 -0.1,-0.24 -0.19,-0.41 -0.34,-0.6 -0.16,-0.19 -0.3,-0.31 -0.51,-0.43 -0.55,-0.32 -1.42,-0.26 -1.96,0.13l-0.24 0.21 0 -1.89c0,-0.55 0.08,-0.49 -0.56,-0.49 -0.18,0 -0.11,0.51 -0.11,0.7 0,0.63 0.02,4.72 -0.01,4.9l-0.02 0.56c0.01,0.04 0.07,0.1 0.12,0.1z"/>
    <path class="fil9" d="M46.84 40.28l4.15 2.42 0.55 -0.94 -4.15 -2.42 -0.55 0.94zm4.93 -3.84l-1.03 1.46 0.69 0.49 0.43 -0.6 0.82 0.58c-0.01,0.09 -0.11,0.27 -0.25,0.48 -0.51,0.73 -1.35,0.9 -2.16,0.32 -0.85,-0.6 -0.87,-1.45 -0.35,-2.19 0.3,-0.43 0.57,-0.64 0.81,-0.79l-0.58 -0.69c-0.23,0.13 -0.6,0.45 -0.96,0.95 -0.91,1.29 -0.84,2.76 0.46,3.69 0.57,0.41 1.22,0.58 1.81,0.46 0.6,-0.11 1.15,-0.5 1.66,-1.22 0.37,-0.52 0.6,-1.13 0.7,-1.46l-2.06 -1.46zm2.4 1.33l1.96 -2.27 -0.69 -0.6 -1.25 1.45 -2.95 -2.54 -0.71 0.83 3.64 3.13zm1.99 -6.48l-1.23 1.27 -0.72 -0.69 1.3 -1.34 -0.64 -0.62 -2.06 2.13 3.45 3.34 2.13 -2.2 -0.64 -0.62 -1.37 1.42 -0.82 -0.79 1.23 -1.27 -0.63 -0.62zm2.15 1.72c0.3,-0.07 0.8,-0.32 1.21,-0.68 0.99,-0.87 1,-1.79 0.47,-2.4 -0.45,-0.51 -1.04,-0.58 -1.88,-0.25 -0.62,0.23 -0.91,0.31 -1.12,0.08 -0.17,-0.19 -0.14,-0.5 0.22,-0.81 0.35,-0.31 0.7,-0.44 0.9,-0.49l-0.4 -0.82c-0.3,0.09 -0.67,0.27 -1.08,0.63 -0.85,0.75 -0.95,1.67 -0.41,2.29 0.46,0.52 1.14,0.51 1.93,0.19 0.57,-0.23 0.85,-0.25 1.05,-0.03 0.21,0.24 0.15,0.56 -0.23,0.89 -0.35,0.31 -0.78,0.49 -1.1,0.57l0.43 0.82zm-0.17 -5.92l2.96 3.78 0.86 -0.67 -2.96 -3.78 -0.86 0.67zm5.6 0.45l0.97 0.84 0.99 -0.63 -3.83 -3.25 -1.2 0.76 1.34 4.84 0.95 -0.6 -0.37 -1.22 1.16 -0.74zm-1.46 -0.03l-0.31 -1.01c-0.08,-0.28 -0.22,-0.62 -0.31,-0.9l0.01 -0.01c0.21,0.2 0.48,0.46 0.7,0.65l0.8 0.7 -0.9 0.57zm6.79 -4.7l-1.61 0.73 -0.41 -0.91 1.71 -0.77 -0.37 -0.81 -2.7 1.22 1.97 4.38 2.79 -1.26 -0.37 -0.81 -1.8 0.81 -0.47 -1.04 1.61 -0.73 -0.36 -0.81zm3.88 1.68l-0.01 -5.07 -1.09 0.37 0.08 2.14c0.02,0.57 0.06,1.16 0.13,1.75l-0.02 0.01c-0.3,-0.53 -0.62,-1 -0.96,-1.49l-1.21 -1.73 -1.13 0.38 3 4.05 1.2 -0.41zm3.33 -2.21l0.63 1.12 1.14 -0.26 -2.51 -4.35 -1.39 0.31 -0.37 5.01 1.1 -0.25 0.06 -1.28 1.34 -0.3zm-1.37 -0.52l0.05 -1.06c0.02,-0.29 0,-0.66 0.01,-0.95l0.01 -0c0.13,0.26 0.29,0.59 0.44,0.85l0.52 0.93 -1.04 0.23zm4.23 1.19l-0.2 -1.43c-0.11,-0.78 -0.22,-1.44 -0.33,-2.07l0.02 -0.01c0.31,0.53 0.71,1.1 1.06,1.56l1.27 1.69 1.13 -0.16 -0.66 -4.75 -0.99 0.14 0.19 1.39c0.1,0.71 0.21,1.35 0.37,1.97l-0.02 0c-0.29,-0.51 -0.65,-1.06 -1,-1.52l-1.23 -1.61 -1.26 0.17 0.66 4.75 0.99 -0.14zm7.4 -3.24l-1.79 0.02 0.01 0.85 0.74 -0.01 0.01 1c-0.09,0.04 -0.28,0.07 -0.53,0.08 -0.89,0.01 -1.52,-0.56 -1.53,-1.55 -0.01,-1.04 0.66,-1.56 1.57,-1.57 0.53,-0.01 0.86,0.08 1.12,0.19l0.22 -0.87c-0.24,-0.11 -0.72,-0.23 -1.33,-0.22 -1.57,0.02 -2.72,0.95 -2.71,2.54 0,0.71 0.25,1.33 0.7,1.74 0.45,0.42 1.08,0.63 1.96,0.62 0.63,-0.01 1.27,-0.17 1.6,-0.29l-0.03 -2.53zm3.45 0.09l-1.76 -0.13 0.08 -0.99 1.87 0.14 0.07 -0.89 -2.95 -0.22 -0.36 4.79 3.05 0.23 0.07 -0.89 -1.97 -0.15 0.09 -1.14 1.76 0.13 0.07 -0.88zm-1.04 -3.11l-0.66 0.83 0.86 0.07 0.94 -0.81 -1.14 -0.09zm1.26 5.99l2.96 0.5 0.15 -0.9 -1.88 -0.32 0.65 -3.83 -1.07 -0.18 -0.8 4.73zm4.12 -4.15l-1.06 4.68 1.06 0.24 1.06 -4.68 -1.06 -0.24zm3.96 5.07c-0.23,0.02 -0.6,-0.02 -0.91,-0.12 -0.93,-0.29 -1.29,-1.03 -1,-1.95 0.32,-1.02 1.11,-1.32 1.93,-1.06 0.37,0.11 0.63,0.29 0.82,0.44l0.47 -0.76c-0.15,-0.15 -0.53,-0.39 -1.07,-0.56 -1.39,-0.43 -2.77,0.09 -3.26,1.66 -0.41,1.31 0.1,2.55 1.69,3.04 0.56,0.17 1.02,0.2 1.24,0.17l0.09 -0.86zm2.92 0.78l-0.09 1.28 1.09 0.42 0.32 -5.02 -1.33 -0.51 -3.08 3.96 1.05 0.4 0.76 -1.03 1.28 0.49zm-0.85 -1.19l0.63 -0.85c0.17,-0.23 0.37,-0.55 0.54,-0.79l0.01 0.01c-0.03,0.29 -0.08,0.65 -0.1,0.95l-0.08 1.06 -0.99 -0.38zm6.57 4.14l-0.3 1.25 1.01 0.59 1.13 -4.9 -1.23 -0.72 -3.68 3.41 0.97 0.57 0.92 -0.89 1.19 0.69zm-0.64 -1.31l0.76 -0.74c0.21,-0.2 0.45,-0.48 0.66,-0.69l0.01 0.01c-0.08,0.28 -0.19,0.63 -0.26,0.92l-0.25 1.03 -0.92 -0.53zm1.45 3.3l0.89 0.61 0.98 -1.41c0.07,0.07 0.18,0.15 0.29,0.23 0.53,0.36 1.07,0.55 1.57,0.47 0.39,-0.06 0.74,-0.3 1.01,-0.69 0.27,-0.39 0.32,-0.83 0.21,-1.21 -0.12,-0.39 -0.44,-0.77 -0.99,-1.15 -0.55,-0.38 -0.96,-0.61 -1.26,-0.75l-2.69 3.9zm3.14 -2.66c0.08,0.03 0.21,0.09 0.39,0.22 0.45,0.31 0.55,0.7 0.3,1.06 -0.28,0.4 -0.74,0.44 -1.21,0.11 -0.13,-0.09 -0.22,-0.16 -0.28,-0.23l0.81 -1.17zm4.71 2.76c-1.02,-0.99 -2.43,-0.85 -3.43,0.18 -0.95,0.98 -1.1,2.34 -0.08,3.33 1.01,0.98 2.36,0.95 3.45,-0.18 0.92,-0.95 1.11,-2.31 0.05,-3.33zm-0.62 0.6c0.54,0.52 0.32,1.34 -0.28,1.96 -0.65,0.67 -1.44,0.88 -1.96,0.37 -0.52,-0.51 -0.38,-1.29 0.28,-1.96 0.65,-0.67 1.44,-0.87 1.97,-0.36zm-0.96 4.31c0.07,0.3 0.32,0.8 0.68,1.21 0.87,0.99 1.79,1 2.4,0.47 0.51,-0.45 0.57,-1.04 0.25,-1.88 -0.23,-0.62 -0.31,-0.91 -0.08,-1.12 0.19,-0.17 0.5,-0.14 0.81,0.22 0.31,0.35 0.44,0.7 0.49,0.9l0.82 -0.4c-0.09,-0.3 -0.27,-0.67 -0.63,-1.08 -0.75,-0.85 -1.67,-0.95 -2.29,-0.4 -0.52,0.46 -0.51,1.14 -0.19,1.93 0.23,0.57 0.25,0.85 0.03,1.05 -0.24,0.21 -0.56,0.15 -0.89,-0.23 -0.31,-0.35 -0.49,-0.78 -0.57,-1.1l-0.82 0.43zm2.78 3.6l0.67 0.86 3.06 -2.4 0.81 1.03 0.72 -0.56 -2.27 -2.91 -0.72 0.56 0.79 1.02 -3.06 2.4zm6.63 1.12c-0.72,-1.22 -2.12,-1.46 -3.36,-0.72 -1.18,0.7 -1.67,1.97 -0.94,3.19 0.72,1.21 2.03,1.54 3.38,0.73 1.14,-0.68 1.68,-1.93 0.92,-3.2zm-0.76 0.42c0.38,0.64 -0.04,1.38 -0.78,1.82 -0.8,0.48 -1.62,0.47 -1.99,-0.16 -0.37,-0.62 -0.03,-1.34 0.78,-1.82 0.8,-0.48 1.62,-0.47 2,0.16zm1.7 -0.9l-1.06 -0.07 0.44 0.75 1.2 0.3 -0.58 -0.98zm-3.88 5.1l1.26 2.72 0.83 -0.38 -0.8 -1.73 3.53 -1.63 -0.46 -0.99 -4.36 2.01zm5.8 1.05l-4.47 1.74 0.39 1.02 4.47 -1.74 -0.4 -1.02zm-1.9 6.05c-0.15,-0.18 -0.33,-0.5 -0.43,-0.81 -0.31,-0.92 0.09,-1.65 1,-1.96 1.01,-0.34 1.72,0.13 1.99,0.95 0.12,0.37 0.14,0.68 0.12,0.92l0.89 -0.06c0.03,-0.21 0.01,-0.66 -0.17,-1.19 -0.46,-1.38 -1.69,-2.2 -3.25,-1.68 -1.3,0.43 -2.01,1.57 -1.48,3.14 0.18,0.55 0.43,0.95 0.59,1.1l0.75 -0.42zm0.91 2.95l-1.13 0.62 0.24 1.14 4.39 -2.45 -0.3 -1.39 -5 -0.44 0.23 1.1 1.28 0.08 0.29 1.34zm0.54 -1.36l1.06 0.07c0.29,0.02 0.66,0.01 0.95,0.02l0 0.01c-0.26,0.13 -0.59,0.29 -0.86,0.43l-0.93 0.5 -0.22 -1.04z"/>
    <path class="fil9" d="M53.04 92.03c0.17,0.21 0.44,0.51 0.84,0.9 0.68,0.65 1.38,1.03 2.03,1.08 0.61,0.03 1.28,-0.2 1.92,-0.86 0.58,-0.61 0.76,-1.26 0.66,-1.87 -0.1,-0.57 -0.41,-1.1 -1.07,-1.73 -0.4,-0.38 -0.8,-0.71 -1.13,-0.94l-3.25 3.42zm3.5 -2.11c0.08,0.05 0.21,0.14 0.39,0.31 0.68,0.64 0.74,1.43 0.05,2.15 -0.79,0.83 -1.63,0.78 -2.34,0.1 -0.1,-0.09 -0.21,-0.2 -0.26,-0.28l2.16 -2.28zm4.17 5.02l-1.38 -1.1 0.62 -0.78 1.46 1.17 0.56 -0.69 -2.31 -1.85 -3 3.75 2.39 1.92 0.56 -0.69 -1.54 -1.23 0.71 -0.89 1.38 1.1 0.55 -0.69zm-1.07 2.93l2.53 1.61 0.49 -0.77 -1.61 -1.02 2.09 -3.28 -0.92 -0.58 -2.57 4.05zm5.35 3.19l0.66 -1.28c0.36,-0.7 0.66,-1.3 0.92,-1.88l0.02 0c-0.05,0.61 -0.06,1.3 -0.04,1.89l0.06 2.12 1.01 0.52 2.21 -4.26 -0.89 -0.46 -0.64 1.25c-0.33,0.64 -0.61,1.22 -0.84,1.82l-0.02 -0.01c0.06,-0.58 0.08,-1.24 0.06,-1.82l-0.08 -2.02 -1.13 -0.58 -2.21 4.26 0.89 0.46zm7.06 -2.2c-1.34,-0.45 -2.56,0.27 -3.02,1.63 -0.44,1.29 0.01,2.58 1.35,3.04 1.33,0.45 2.54,-0.15 3.04,-1.64 0.42,-1.25 0.02,-2.56 -1.38,-3.03zm-0.3 0.81c0.71,0.24 0.86,1.07 0.59,1.89 -0.3,0.88 -0.92,1.41 -1.62,1.18 -0.69,-0.23 -0.89,-1 -0.59,-1.89 0.3,-0.88 0.93,-1.41 1.62,-1.17zm5.6 5.71l1.03 0.24 0.81 -4.74 -1.38 -0.32 -0.86 1.44c-0.27,0.49 -0.57,1.07 -0.83,1.58l-0.02 -0c0.02,-0.57 0.01,-1.19 -0.01,-1.76l-0.1 -1.67 -1.41 -0.32 -1.37 4.61 0.98 0.22 0.49 -1.76c0.17,-0.58 0.35,-1.29 0.53,-1.92l0.01 0c-0.03,0.64 -0.02,1.34 0.01,1.92l0.09 1.93 0.83 0.19 0.99 -1.7c0.31,-0.51 0.65,-1.13 0.94,-1.69l0.02 0.01c-0.16,0.68 -0.29,1.37 -0.4,1.93l-0.34 1.81zm1.87 0.22c0.24,0.07 0.63,0.15 1.16,0.22 0.95,0.12 1.55,0.05 1.93,-0.18 0.33,-0.2 0.57,-0.51 0.63,-0.94 0.08,-0.61 -0.27,-1.08 -0.79,-1.3l0 -0.01c0.56,-0.13 0.86,-0.49 0.92,-0.91 0.06,-0.43 -0.14,-0.79 -0.45,-1.01 -0.32,-0.25 -0.71,-0.37 -1.37,-0.45 -0.54,-0.07 -1.11,-0.1 -1.4,-0.08l-0.62 4.67zm1.59 -3.82c0.09,-0 0.23,0 0.46,0.03 0.49,0.06 0.74,0.29 0.69,0.65 -0.05,0.35 -0.38,0.55 -0.95,0.47l-0.35 -0.05 0.15 -1.11zm-0.25 1.88l0.37 0.05c0.54,0.07 0.94,0.32 0.88,0.8 -0.07,0.5 -0.52,0.63 -1.01,0.56 -0.18,-0.02 -0.31,-0.04 -0.41,-0.07l0.18 -1.34zm2.96 2.33l1.08 0.02 0.04 -1.89 0.33 0.01c0.44,0.02 0.64,0.18 0.76,0.79 0.13,0.59 0.24,0.99 0.31,1.12l1.11 0.02c-0.09,-0.19 -0.23,-0.82 -0.36,-1.36 -0.11,-0.44 -0.29,-0.77 -0.62,-0.91l0 -0.02c0.42,-0.14 0.86,-0.55 0.87,-1.16 0.01,-0.44 -0.14,-0.78 -0.42,-1.01 -0.34,-0.28 -0.83,-0.39 -1.54,-0.41 -0.58,-0.01 -1.1,0.02 -1.45,0.07l-0.1 4.74zm1.16 -3.97c0.08,-0.01 0.23,-0.03 0.49,-0.03 0.5,0.02 0.79,0.24 0.78,0.69 -0.01,0.42 -0.33,0.68 -0.88,0.67l-0.43 -0.01 0.03 -1.32zm5.69 0.87l-1.76 0.13 -0.08 -0.99 1.87 -0.14 -0.07 -0.89 -2.95 0.22 0.36 4.79 3.05 -0.23 -0.07 -0.89 -1.97 0.15 -0.09 -1.14 1.76 -0.13 -0.07 -0.88zm2.74 2.59c0.27,-0.03 0.67,-0.08 1.22,-0.21 0.92,-0.21 1.62,-0.58 2.02,-1.1 0.36,-0.49 0.55,-1.18 0.34,-2.07 -0.19,-0.83 -0.63,-1.33 -1.2,-1.58 -0.53,-0.24 -1.14,-0.26 -2.03,-0.06 -0.53,0.12 -1.03,0.27 -1.41,0.43l1.06 4.59zm0.18 -4.08c0.09,-0.04 0.23,-0.1 0.47,-0.15 0.91,-0.21 1.6,0.17 1.81,1.15 0.26,1.12 -0.25,1.79 -1.21,2 -0.13,0.03 -0.28,0.06 -0.37,0.06l-0.71 -3.06zm6.4 -0.76l-1.67 0.57 -0.32 -0.94 1.77 -0.6 -0.29 -0.84 -2.81 0.95 1.54 4.55 2.9 -0.98 -0.29 -0.84 -1.87 0.63 -0.37 -1.08 1.67 -0.57 -0.28 -0.84zm3.37 -0.16c0.31,0.68 0.13,0.99 -0.29,1.17 -0.19,0.09 -0.39,0.13 -0.54,0.15l0.25 0.85c0.22,-0.02 0.54,-0.12 0.77,-0.22 0.96,-0.43 1.36,-1.13 0.81,-2.38l-1.24 -2.77 -0.99 0.44 1.23 2.76zm3.6 -3.19l-1.54 0.87 -0.49 -0.87 1.63 -0.93 -0.44 -0.77 -2.58 1.46 2.37 4.17 2.66 -1.51 -0.44 -0.77 -1.72 0.98 -0.56 -0.99 1.54 -0.87 -0.44 -0.77zm1.97 1.98c0.31,-0.02 0.84,-0.19 1.3,-0.49 1.11,-0.71 1.26,-1.62 0.82,-2.3 -0.37,-0.57 -0.94,-0.72 -1.82,-0.53 -0.65,0.14 -0.95,0.17 -1.11,-0.09 -0.14,-0.21 -0.06,-0.51 0.34,-0.77 0.39,-0.25 0.76,-0.33 0.97,-0.35l-0.27 -0.87c-0.31,0.05 -0.71,0.17 -1.16,0.46 -0.95,0.61 -1.19,1.51 -0.74,2.2 0.38,0.59 1.05,0.68 1.88,0.48 0.6,-0.14 0.88,-0.12 1.04,0.13 0.17,0.26 0.06,0.58 -0.36,0.85 -0.39,0.25 -0.85,0.37 -1.17,0.4l0.3 0.87zm0.48 -5.87l1.65 2.11c0.94,1.21 1.92,1.29 2.87,0.55 0.99,-0.77 1.14,-1.79 0.23,-2.96l-1.66 -2.12 -0.85 0.67 1.71 2.17c0.52,0.67 0.52,1.17 0.07,1.53 -0.44,0.34 -0.94,0.21 -1.45,-0.45l-1.71 -2.17 -0.86 0.67zm0.89 -2.13l0.07 1.06 0.68 -0.54 0.14 -1.23 -0.9 0.7zm5.53 2.84c0.3,-0.09 0.77,-0.39 1.15,-0.79 0.91,-0.95 0.84,-1.88 0.26,-2.43 -0.49,-0.47 -1.09,-0.48 -1.9,-0.08 -0.6,0.29 -0.88,0.39 -1.1,0.18 -0.18,-0.17 -0.18,-0.48 0.14,-0.83 0.32,-0.34 0.66,-0.5 0.86,-0.57l-0.47 -0.78c-0.29,0.12 -0.65,0.33 -1.02,0.72 -0.78,0.82 -0.8,1.75 -0.2,2.31 0.51,0.48 1.18,0.41 1.94,0.02 0.55,-0.28 0.83,-0.32 1.04,-0.12 0.23,0.22 0.2,0.55 -0.15,0.91 -0.32,0.34 -0.74,0.56 -1.05,0.67l0.5 0.78z"/>
    <path class="fil10" d="M36.7 75.61c0,0 -13.95,-12.2 -7.97,-29.52 0,0 3.22,-8.05 21.6,-1.95 6.32,1.92 85.48,27.59 84,5.49 -0.36,-1.45 -0.78,-2.87 -1.26,-4.26l0.2 -0.01c0,0 4.37,-0.24 5.28,7.81 0,0 2.61,15.88 0.56,21.62 -0.02,0.06 -0.04,0.13 -0.08,0.21 -0.01,0.02 -0.01,0.03 -0.02,0.05 -0.19,0.46 -0.41,0.84 -0.66,1.14 -1.15,1.55 -2.75,2.25 -2.75,2.25l0 0 -0.06 0.03c-4.64,2.43 -17.98,5.36 -54.43,-4.06 0,0 -9.58,-2.75 -20.09,-4.89 -5.25,-1.07 -10.74,-1.98 -15.37,-2.33 -4.63,-0.34 -8.6,-0.11 -10.45,1.11 0.32,2.5 0.82,4.95 1.49,7.32l0 0z"/>
    <path class="fil1" d="M28.3 61.91l-0.03 0.01c-0.65,-2.25 -1.06,-4.73 -1.04,-7.39l0.01 0.01c8.69,-9.17 42.29,3.14 54.76,6.5 14.4,3.88 45.99,11.04 57.54,0.25 0.22,2.46 0.38,5.17 0.34,7.62 -13.1,9.72 -41.96,2.45 -61.43,-2.45 -11.88,-2.99 -38.85,-12.93 -50.15,-4.54z"/>
    <path class="fil11" d="M61.59 53.27l0.72 0.23c0.04,-0.16 0.1,-0.32 0.15,-0.48 0.05,-0.18 0.09,-0.33 0.15,-0.5 0.24,-0.72 0.52,-1.69 0.75,-2.44 0.03,-0.09 0.05,-0.14 0.07,-0.24 0.02,-0.07 0.05,-0.19 0.09,-0.25l-0.74 -0.22 -0.9 2.93c-0.05,0.16 -0.1,0.31 -0.15,0.48 -0.03,0.12 -0.14,0.41 -0.15,0.5zm46.12 10.76c-0.22,0 -0.38,-0.08 -0.49,-0.25 -0.39,-0.61 -0.01,-1.57 0.49,-1.57 0.26,0 0.45,0.03 0.6,0.3 0.09,0.16 0.13,0.44 0.1,0.65 -0.05,0.39 -0.25,0.87 -0.7,0.87zm0.16 0.65l-0.34 0c-0.15,-0.02 -0.31,-0.06 -0.45,-0.14 -0.21,-0.11 -0.16,-0.08 -0.31,-0.2 -0.03,-0.03 -0.05,-0.04 -0.08,-0.07 -0.35,-0.37 -0.39,-0.74 -0.39,-1.21 0,-0.19 0.08,-0.45 0.13,-0.59 0.45,-1.12 1.78,-1.14 2.39,-0.5 0.31,0.33 0.38,0.68 0.38,1.15 0,0.88 -0.63,1.47 -1.32,1.55zm-3.15 -1.17c-0.21,0 -0.38,-0.01 -0.53,-0.21 -0.29,-0.39 -0.12,-1.19 0.24,-1.46 0.24,-0.17 0.56,-0.14 0.74,0.04 0.12,0.12 0.18,0.26 0.18,0.45 0,0.18 -0.09,0.64 -0.13,0.77 -0.07,0.19 -0.26,0.4 -0.5,0.4zm0.05 -2.45c-0.33,0 -0.41,0 -0.73,0.17 -0.87,0.48 -1.13,2.28 -0.09,2.81 0.44,0.22 0.79,0.19 1.2,-0.03 -0.01,0.11 -0.02,0.06 -0.02,0.25 0.18,0 0.54,0.07 0.7,0.11 0.05,-0.59 0.48,-2.97 0.62,-3.7 0.03,-0.16 0.08,-0.39 0.08,-0.55 -0.24,-0.06 -0.5,-0.08 -0.74,-0.14l-0.2 1.15c-0.06,0.38 -0.02,0.22 -0.27,0.09 -0.15,-0.08 -0.31,-0.16 -0.54,-0.16zm-3.78 2.43c0,-0.12 0.22,-1.19 0.24,-1.31 0.06,-0.29 0.07,-0.65 0.32,-0.83 0.32,-0.23 0.79,-0.11 0.79,0.41 0,0.16 -0.05,0.33 -0.07,0.49 -0.04,0.22 -0.26,1.3 -0.26,1.42 0,0.05 0.12,0.06 0.16,0.06 0.18,0.03 0.43,0.1 0.58,0.1 0.03,-0.3 0.36,-1.71 0.36,-2 0,-0.26 0.01,-0.4 -0.1,-0.64 -0.07,-0.16 -0.19,-0.3 -0.34,-0.41 -0.35,-0.24 -0.89,-0.26 -1.23,-0.03 0,-0.12 0.01,-0.14 0.02,-0.23 -0.11,-0.03 -0.23,-0.04 -0.34,-0.07 -0.11,-0.02 -0.25,-0.06 -0.36,-0.07 -0.03,0.13 -0.05,0.33 -0.07,0.47 -0.07,0.52 -0.33,1.76 -0.44,2.33 -0.05,0.26 -0.02,0.17 0.25,0.23 0.15,0.03 0.32,0.08 0.49,0.08zm-3.58 -1.58c0,0.5 0.2,0.83 0.6,1.02 0.34,0.16 0.78,0.12 1.07,-0.08 -0.01,0.11 -0.02,0.06 -0.02,0.25 0.12,0 0.35,0.06 0.46,0.08 0.28,0.06 0.22,0.1 0.26,-0.18 0.06,-0.47 0.41,-2.27 0.52,-2.74 -0.05,-0.02 -0.68,-0.15 -0.77,-0.16 0,0.11 -0.03,0.22 -0.05,0.33 -0.06,0.3 -0.26,1.45 -0.33,1.6 -0.16,0.36 -0.94,0.58 -0.94,-0.22 0,-0.2 0.2,-1.15 0.26,-1.43 0.03,-0.15 0.08,-0.32 0.08,-0.48 -0.24,-0.01 -0.51,-0.12 -0.74,-0.14 -0.01,0.15 -0.07,0.37 -0.1,0.53 -0.04,0.18 -0.07,0.35 -0.1,0.53 -0.06,0.3 -0.18,0.75 -0.18,1.08zm-4.68 -0.2c0.06,0.03 0.64,0.16 0.74,0.16 0.01,-0.09 0.05,-0.23 0.07,-0.32 0.05,-0.25 0.31,-1.49 0.37,-1.59 0.24,-0.42 0.87,-0.5 0.87,0.17 0,0.16 -0.25,1.22 -0.3,1.45l-0.1 0.5c0.19,0 0.55,0.14 0.74,0.14 0.01,-0.16 0.39,-1.79 0.42,-1.88 0.17,-0.5 0.86,-0.45 0.86,0.03 0,0.43 -0.09,0.68 -0.19,1.12 -0.04,0.19 -0.2,0.81 -0.2,0.95 0.11,0 0.26,0.04 0.36,0.07 0.1,0.02 0.27,0.07 0.38,0.07 0,-0.12 0.17,-0.8 0.2,-0.99 0.14,-0.68 0.53,-1.79 -0.39,-2.18 -0.27,-0.12 -0.6,-0.12 -0.89,0.02 -0.11,0.05 -0.14,0.09 -0.23,0.15 -0.07,-0.3 -0.46,-0.61 -0.83,-0.61 -0.3,0 -0.34,-0.01 -0.61,0.14l0.03 -0.22c-0.19,-0 -0.54,-0.13 -0.7,-0.14 0,0.26 -0.23,1.23 -0.29,1.49 -0.1,0.49 -0.21,0.98 -0.32,1.46zm-2.43 -0.58c0.25,0.02 0.51,0.16 0.77,0.16l0.24 -1.04c0.09,-0.36 0.17,-0.71 0.25,-1.05l0.37 -1.56c0.03,-0.16 0.11,-0.38 0.13,-0.53 -0.18,-0 -0.58,-0.15 -0.74,-0.16l-1.01 4.19zm-1.15 -2.75c0.43,0 0.54,0.3 0.54,0.65l-0.81 -0.18c-0.07,-0.02 -0.19,-0.06 -0.27,-0.06 0.03,-0.06 0.03,-0.08 0.08,-0.14l0.09 -0.09c0.08,-0.09 0.22,-0.17 0.37,-0.17zm-1.46 1.06c0,0.6 0.25,1.02 0.68,1.25 0.41,0.22 0.98,0.31 1.52,0.19l0 -0.63c-0.33,0 -0.3,0.11 -0.84,-0.01 -0.15,-0.03 -0.24,-0.08 -0.35,-0.15 -0.27,-0.18 -0.27,-0.42 -0.27,-0.69l1.36 0.33c0.14,0.03 0.35,0.1 0.46,0.1 0.08,-0.36 0.16,-0.33 0.16,-0.83 0,-1.28 -1.58,-1.66 -2.32,-0.7 -0.19,0.25 -0.4,0.7 -0.4,1.15zm-2.7 -0.25c-0.37,0 -0.61,-0.36 -0.61,-0.74 0,-0.45 0.28,-1.08 0.79,-1.08 0.19,0 0.35,0.08 0.44,0.19 0.38,0.44 0.08,1.64 -0.62,1.64zm-1.37 -0.83c0,0.28 0.02,0.43 0.13,0.68 0.39,0.9 1.79,1.11 2.41,0.28 0.59,-0.8 0.61,-1.96 -0.39,-2.47 -0.73,-0.37 -1.66,-0.07 -2.02,0.86 -0.06,0.16 -0.13,0.42 -0.13,0.64zm-1.57 0.02l-0.11 0c-0.66,0 -0.72,-1.08 -0.15,-1.62 0.29,-0.27 0.96,-0.19 0.96,0.49 0,0.11 -0.14,0.63 -0.18,0.72 -0.08,0.19 -0.25,0.41 -0.52,0.41zm0.97 -2.05c-0.07,-0.05 -0.1,-0.1 -0.17,-0.15 -0.39,-0.3 -0.94,-0.35 -1.37,-0.11 -0.18,0.1 -0.26,0.19 -0.39,0.33 -0.47,0.47 -0.81,1.84 0.16,2.47 0.24,0.16 0.63,0.21 0.93,0.12 0.09,-0.02 0.14,-0.06 0.22,-0.08 -0.01,0.07 -0.04,0.15 -0.04,0.22 0.12,0.03 0.22,0.06 0.34,0.09 0.11,0.03 0.25,0.08 0.36,0.09 0.02,-0.3 0.3,-1.22 0.39,-1.57l0.69 -2.59 -0.74 -0.2c-0.01,0.1 -0.06,0.25 -0.09,0.34l-0.27 1.03zm-3.96 1.31c-1.02,0 -0.68,-1.82 0.13,-1.82 0.75,0 0.75,0.96 0.42,1.46 -0.1,0.15 -0.32,0.36 -0.56,0.36zm-0.07 0.65c0.41,0 0.67,-0.04 1,-0.31 0.36,-0.3 0.56,-0.72 0.6,-1.26 0.12,-1.41 -1.56,-2.08 -2.49,-1.08 -0.3,0.32 -0.47,0.87 -0.43,1.37 0.02,0.31 0.13,0.58 0.32,0.8 0.19,0.22 0.6,0.48 1.01,0.48zm-2.29 -3.8c-0.17,-0 -0.26,-0.09 -0.43,-0.09 -0,0.09 -0.05,0.22 -0.07,0.31 -0.03,0.1 -0.06,0.21 -0.09,0.32 0.1,0.02 0.33,0.07 0.4,0.11l-0.22 0.77c-0.15,0.53 -0.4,1.17 -0,1.56 0.24,0.24 0.57,0.28 0.92,0.28 0.11,0 0.09,-0.14 0.13,-0.3 0.02,-0.1 0.06,-0.25 0.07,-0.36 -0.61,0 -0.64,-0.07 -0.48,-0.64 0.04,-0.14 0.07,-0.24 0.1,-0.37 0.06,-0.24 0.14,-0.49 0.2,-0.74 0.08,0 0.61,0.15 0.68,0.18 0.02,-0.09 0.06,-0.23 0.09,-0.32 0.03,-0.1 0.05,-0.23 0.09,-0.31 -0.19,-0.09 -0.49,-0.12 -0.67,-0.2 0.03,-0.13 0.07,-0.26 0.1,-0.39 0.03,-0.1 0.1,-0.3 0.1,-0.4 -0.93,0 -0.75,-0.07 -0.84,0.26 -0.03,0.1 -0.07,0.22 -0.08,0.32zm-3.78 2.12l0.74 0.2 0.16 -0.61c0.05,-0.2 0.11,-0.39 0.17,-0.6 0.12,-0.41 0.21,-0.91 0.71,-0.91 0.07,0 0.14,0.02 0.2,0.05 0.07,0.03 0.09,0.07 0.18,0.09l0.2 -0.72c-0.35,-0.18 -0.57,-0.22 -0.94,-0.02 0,-0.07 0.02,-0.15 0.05,-0.2 -0.09,-0.04 -0.22,-0.07 -0.33,-0.1 -0.12,-0.03 -0.24,-0.08 -0.37,-0.08 -0,0.21 -0.49,1.92 -0.56,2.18l-0.2 0.72zm-1.39 -1.08c-0.78,0 -0.77,-1.22 -0.18,-1.69 0.3,-0.24 0.73,-0.12 0.87,0.15 0.32,0.6 -0.12,1.55 -0.69,1.55zm-1.37 -0.86c0,0.34 0.05,0.64 0.25,0.92 0.5,0.7 1.66,0.83 2.28,0.07 0.62,-0.77 0.61,-2.03 -0.39,-2.48 -0.6,-0.27 -1.29,-0.15 -1.72,0.38 -0.2,0.24 -0.42,0.68 -0.42,1.11zm-1.48 0.02c-0.39,0 -0.65,-0.25 -0.65,-0.63 0,-0.15 0.15,-0.65 0.21,-0.76 0.33,-0.62 1.19,-0.5 1.19,0.33 0,0.24 -0.11,0.55 -0.21,0.69 -0.12,0.18 -0.29,0.36 -0.54,0.36zm-2 1.26c0.05,0.03 0.65,0.2 0.72,0.2l0.31 -1.08c0.02,-0.09 0.01,-0.09 0.07,-0.13 0.09,0.35 1.66,1.02 2.27,-0.59 0.21,-0.56 0.22,-1.23 -0.19,-1.69 -0.33,-0.37 -1.01,-0.5 -1.45,-0.26 0.02,-0.09 0.05,-0.14 0.05,-0.25 -0.75,-0.18 -0.64,-0.32 -0.73,0.05 -0.26,1.05 -0.61,2.18 -0.9,3.24l-0.14 0.51zm-2.27 -2.5c-1.05,0 -0.64,-1.78 0.16,-1.78 0.33,0 0.59,0.27 0.59,0.61 0,0.13 -0.06,0.27 -0.09,0.38 -0.03,0.12 -0.07,0.25 -0.11,0.36 -0.08,0.24 -0.33,0.42 -0.54,0.42zm1.03 -2.05c-0.11,-0.03 -0.35,-0.43 -0.97,-0.43 -0.45,0 -0.83,0.28 -1.04,0.54 -0.82,1.02 -0.44,2.72 0.99,2.57 0.11,-0.01 0.21,-0.06 0.32,-0.09 -0.02,0.08 -0.04,0.13 -0.05,0.22 0.16,0.04 0.57,0.18 0.7,0.18 0.01,-0.24 0.89,-3.22 1.01,-3.6 0.04,-0.11 0.14,-0.42 0.14,-0.54 -0.12,-0.01 -0.55,-0.16 -0.72,-0.2 -0.03,0.07 -0.07,0.24 -0.1,0.33 -0.05,0.16 -0.28,0.92 -0.28,1.02z"/>
    <path class="fil11" d="M83.15 71.88c0,0.58 0.12,0.83 0.5,1.21 0.21,0.21 0.74,0.43 1.16,0.43 0.3,0 0.25,0.02 0.52,-0.05l0 -0.58c-0.18,0 -0.66,0.17 -1.15,-0.2 -0.06,-0.04 -0.09,-0.07 -0.14,-0.13 -0.05,-0.06 -0.07,-0.09 -0.11,-0.16 -0.05,-0.1 -0.1,-0.3 -0.1,-0.44 -0.01,-0.46 0.31,-1.24 0.92,-1.24 0.81,0 0.86,0.35 1.04,0.36 0.03,-0.14 0.24,-0.37 0.27,-0.52 -0.04,-0.06 -0.16,-0.14 -0.22,-0.18 -0.2,-0.12 -0.38,-0.18 -0.62,-0.24 -0.85,-0.19 -1.59,0.22 -1.9,1 -0.07,0.18 -0.16,0.47 -0.16,0.72zm-15.95 -3.93c0,0.53 -0.58,0.42 -0.92,0.22 -0.22,-0.12 -0.21,-0.26 -0.36,-0.27 -0.05,0.22 -0.32,0.46 -0.24,0.58 0.1,0.16 0.69,0.46 1.05,0.46l0.18 0c0.67,0 1.36,-0.81 0.7,-1.65 -0.17,-0.22 -0.77,-0.49 -0.77,-0.76 0,-0.43 0.5,-0.35 0.79,-0.19 0.13,0.07 0.16,0.14 0.28,0.21 0.11,-0.17 0.2,-0.35 0.32,-0.52 -0.12,-0.08 -0.14,-0.16 -0.41,-0.29 -0.17,-0.08 -0.34,-0.13 -0.49,-0.14l-0.27 0c-0.64,0.07 -1.03,0.65 -0.85,1.19 0.23,0.65 0.99,0.75 0.99,1.15zm32.15 7.17c0.5,0 1.15,0.08 1.15,0.56 0,0.56 -0.64,0.65 -1.13,0.27 -0.06,-0.05 -0.08,-0.09 -0.16,-0.11 -0.01,0.06 -0.23,0.46 -0.27,0.52 0.12,0.08 0.14,0.16 0.41,0.28 0.17,0.08 0.37,0.13 0.57,0.14l0.16 0c0.25,-0.01 0.49,-0.09 0.68,-0.26 0.35,-0.32 0.53,-0.82 0.3,-1.28 -0.04,-0.09 -0.14,-0.24 -0.22,-0.3 -0.16,-0.13 -0.44,-0.31 -0.72,-0.31 0,-0.09 0.1,-0.38 0.14,-0.45 0.12,0.01 0.29,0.05 0.42,0.08l0.63 0.11c0.05,-0 0.04,0.03 0.07,-0.15 0.02,-0.13 0.07,-0.32 0.07,-0.44 -0.44,-0.1 -1.12,-0.18 -1.6,-0.29l-0.26 0.82c-0.07,0.26 -0.2,0.59 -0.26,0.82zm-1.82 -1.66l0 0.4c0,0.11 0.02,0.1 0.02,0.2 0.17,-0.01 0.32,-0.13 0.49,-0.14 -0.04,0.09 -0.47,2.27 -0.47,2.41 0.2,0.02 0.43,0.11 0.63,0.11l0.62 -3.13c-0.61,-0.14 -0.44,-0.1 -0.89,0.02 -0.12,0.03 -0.29,0.11 -0.4,0.11zm-1.31 0.7c0,0.52 0.81,0.59 0.81,-0.04 0,-0.41 -0.59,-0.54 -0.76,-0.13 -0.01,0.02 -0.05,0.16 -0.05,0.18zm-0.29 1.53l0 0.11c0,0.37 0.79,0.56 0.79,-0.14 0,-0.16 -0.1,-0.29 -0.22,-0.34 -0.33,-0.14 -0.56,0.13 -0.56,0.36zm-1.01 -0.45c-0.58,0 -0.56,-0.78 -0.35,-0.96 0.25,-0.22 0.62,-0.16 0.73,0.11 0.12,0.28 -0.03,0.66 -0.17,0.77 -0.04,0.03 -0.14,0.09 -0.21,0.09zm-1.12 -0.7c0,0.37 0.06,0.69 0.3,0.94 0.25,0.27 0.53,0.34 0.89,0.34 0.77,0 1.37,-1.15 0.8,-1.88 -0.21,-0.27 -0.64,-0.41 -1,-0.32 0.17,-0.25 0.47,-0.36 0.83,-0.36 0.15,0 0.26,0.04 0.38,0.07 0.03,-0.06 0.11,-0.5 0.11,-0.61l-0.47 -0.05c-0.12,-0.02 -0.33,0 -0.47,0.03 -0.57,0.12 -0.91,0.49 -1.16,0.98 -0.1,0.2 -0.22,0.57 -0.22,0.86zm-1.57 -2.16c0.06,0.13 0.02,0.41 0.02,0.58l0.49 -0.14 -0.52 2.38c0.07,0.03 0.54,0.14 0.65,0.14l0.19 -0.89c0.07,-0.31 0.13,-0.6 0.2,-0.91l0.27 -1.24c0.01,-0.09 0.03,-0.05 -0.02,-0.08 -0.02,-0.01 -0.42,-0.1 -0.46,-0.1 -0.06,0 -0.77,0.22 -0.83,0.25zm-3.31 -0.16c0,0.82 1.01,0.96 1.01,1.39 0,0.55 -0.6,0.49 -1.08,0.11 -0.06,-0.05 -0.13,-0.12 -0.18,-0.15l-0.29 0.54c0.25,0.37 1.33,0.81 1.93,0.24 0.19,-0.17 0.3,-0.46 0.3,-0.78 0,-0.33 -0.24,-0.58 -0.42,-0.75 -0.16,-0.14 -0.83,-0.48 -0.51,-0.83 0.03,-0.03 0.05,-0.05 0.09,-0.07 0.39,-0.17 0.81,0.27 0.88,0.32 0.07,-0.05 0.27,-0.42 0.34,-0.52 -0.15,-0.1 -0.13,-0.17 -0.52,-0.33 -0.79,-0.32 -1.55,0.1 -1.55,0.83zm-1.87 1.26c-1.36,0 -0.72,-2.69 0.47,-2.13 0.82,0.39 0.37,2.13 -0.47,2.13zm0.22 -2.79l-0.2 0c-1.25,0 -1.94,2.02 -1.12,2.9 0.65,0.7 1.7,0.61 2.18,0.01 0.13,-0.17 0.21,-0.28 0.3,-0.48 0.37,-0.78 0.24,-1.86 -0.53,-2.24 -0.17,-0.08 -0.37,-0.18 -0.63,-0.18zm-5.08 0.16c-0.14,0 -0.38,-0.05 -0.47,-0.09l0.21 -0.81c0.27,-0 0.67,0.15 0.67,0.4 0,0.27 -0.11,0.49 -0.41,0.49zm-1.57 1.57c0.08,0.04 0.54,0.16 0.65,0.16l0.15 -0.63c0.05,-0.22 0.11,-0.41 0.16,-0.63 0.69,0.16 0.52,0.31 0.54,1.28 0,0.06 0.01,0.12 0.02,0.16 0.04,0.11 0.16,0.09 0.39,0.15 0.1,0.02 0.22,0.07 0.31,0.07 -0.01,-0.14 -0.07,-0.23 -0.07,-0.4 -0,-0.34 0.04,-0.85 -0.06,-1.11 -0.03,-0.08 -0.05,-0.09 -0.07,-0.17 0.46,-0.04 1.16,-1.21 0.01,-1.76 -0.29,-0.14 -0.82,-0.24 -1.25,-0.24l-0.39 1.56c-0.07,0.27 -0.13,0.51 -0.19,0.77 -0.03,0.13 -0.06,0.25 -0.1,0.4 -0.03,0.11 -0.07,0.32 -0.1,0.39zm-0.99 -2.61l0.02 0.38c0,0.13 0.02,0.24 0.02,0.4 -0.12,-0.06 -0.35,-0.08 -0.47,-0.14 0.02,-0.07 0.29,-0.46 0.37,-0.58l0.06 -0.08zm-1.96 1.84c0.16,0 0.5,0.15 0.68,0.16l0.26 -0.42c0.1,-0.15 0.18,-0.26 0.26,-0.41 0.28,0.07 0.55,0.16 0.83,0.22 0,0.34 0.05,0.65 0.05,0.99 0.19,0.09 0.49,0.12 0.67,0.2 0,-0.17 -0,-0.29 -0.02,-0.43 -0.01,-0.07 -0,-0.15 -0,-0.22 -0,-0.11 -0.02,-0.1 -0.02,-0.2 -0,-0.07 0,-0.15 0,-0.23 -0.01,-0.18 -0.05,-0.42 -0.05,-0.65 0,-0.32 -0.05,-0.9 -0.07,-1.31 -0,-0.16 -0.02,-0.16 -0.02,-0.45 -0.21,-0.05 -0.44,-0.13 -0.65,-0.18l-1.68 2.55c-0.06,0.09 -0.21,0.29 -0.23,0.38zm-3.26 -0.85c0.2,0.02 0.42,0.14 0.63,0.14l0.58 -1.73c0,0.62 0.11,1.39 0.11,1.91 0.59,0.14 0.39,0.25 0.76,-0.3l0.86 -1.25c-0,0.09 -0.36,1.85 -0.38,1.89 0.16,0.04 0.49,0.15 0.65,0.16 0,-0.14 0.48,-2.51 0.54,-2.83 0.03,-0.13 0.07,-0.28 0.07,-0.43 -0.22,-0 -0.47,-0.15 -0.7,-0.16l-1.24 1.84c0,-0.55 -0.1,-1.19 -0.11,-1.66 -0,-0.17 -0.05,-0.38 -0.05,-0.56 -0.16,-0 -0.51,-0.15 -0.7,-0.16l-0.78 2.35c-0.05,0.14 -0.25,0.71 -0.26,0.8zm-3.73 -0.92c0.1,0 0.22,0.04 0.3,0.06 0.11,0.03 0.21,0.05 0.31,0.07l0.36 -1.48c0.03,-0.12 0.11,-0.38 0.11,-0.52 0.07,0.05 0.1,0.25 0.13,0.35 0.04,0.13 0.08,0.24 0.12,0.35l0.46 1.43c0.07,0.21 0.02,0.16 0.25,0.22 0.12,0.03 0.26,0.08 0.4,0.08 0.02,-0.22 0.77,-3.03 0.77,-3.22 -0.16,-0 -0.45,-0.1 -0.61,-0.13l-0.44 1.83c-0.03,0.11 0.02,0.05 -0.05,0.11 -0,-0.14 -0.57,-1.82 -0.66,-2.11 -0.05,-0.17 -0.09,-0.13 -0.28,-0.17 -0.13,-0.03 -0.26,-0.08 -0.39,-0.08 -0.01,0.12 -0.07,0.28 -0.09,0.4l-0.48 1.99c-0.04,0.18 -0.19,0.68 -0.19,0.82zm-1.06 -2.61c0,0.25 0.07,0.53 0.07,0.79 -0.15,-0.03 -0.34,-0.1 -0.49,-0.11 0.07,-0.11 0.14,-0.22 0.21,-0.33l0.15 -0.25c0.02,-0.02 0.01,-0.01 0.03,-0.04 0.02,-0.03 0.02,-0.03 0.04,-0.05zm-1.89 1.91c0.22,0.02 0.44,0.13 0.65,0.14l0.52 -0.85 0.83 0.2 0.09 1.01c0.16,0 0.5,0.14 0.68,0.14l-0.27 -3.03c-0.01,-0.12 -0.04,-0.3 -0.04,-0.43l-0.65 -0.16c-0.02,0.07 -1.07,1.76 -1.12,1.85 -0.12,0.2 -0.67,1.01 -0.68,1.15z"/>
    <path class="fil10" d="M60.02 59.52c0,0.07 -0.42,0.54 -0.99,0.54l0.05 0.68c0.5,0 0.91,-0.18 1.24,-0.51l0.19 -0.22c0.22,-0.26 0.98,-1.38 1.15,-1.68 0.1,-0.16 0.21,-0.32 0.32,-0.49 0.07,-0.1 0.3,-0.41 0.31,-0.5 -0.12,-0 -0.26,-0.05 -0.38,-0.07 -0.12,-0.02 -0.26,-0.05 -0.39,-0.08l-0.68 1.14c-0.04,0.07 -0.07,0.12 -0.12,0.2l-0.13 0.19c0,-0.2 -0.06,-0.48 -0.08,-0.66l-0.13 -0.97c-0.03,-0.23 0.06,-0.13 -0.48,-0.26 -0.08,-0.02 -0.23,-0.06 -0.31,-0.07 0,0.34 0.43,2.4 0.43,2.77zm46.69 10.81l-0.16 0c-0.49,0 -0.71,-0.78 -0.38,-1.35 0.31,-0.54 1.12,-0.39 1.12,0.43 0,0.29 -0.11,0.64 -0.32,0.8 -0.06,0.04 -0.18,0.12 -0.26,0.12zm-1.44 -0.81l0 0.11c0,0.73 0.58,1.33 1.3,1.33l0.01 0c0.26,0 0.45,-0.02 0.68,-0.14 0.44,-0.23 0.77,-0.73 0.77,-1.3 0,-0.47 -0.06,-0.77 -0.4,-1.11 -0.52,-0.53 -1.52,-0.49 -1.98,0.06 -0.2,0.24 -0.39,0.62 -0.39,1.05zm-1.19 1.08c0.22,0.01 0.49,0.09 0.72,0.09l0.38 -2.79c-0.23,0 -0.5,-0.09 -0.74,-0.09 -0,0.1 -0.03,0.23 -0.05,0.34l-0.23 1.75c-0.03,0.22 -0.08,0.48 -0.08,0.71zm0.38 -3.35c0,0.62 0.83,0.58 0.85,0.04 0.02,-0.56 -0.85,-0.56 -0.85,-0.04zm-1.57 3.2l0.58 0.08c0.17,0.03 0.15,0.11 0.21,-0.44 0.04,-0.39 0.12,-0.78 0.16,-1.17 0.07,-0.66 0.27,-1.76 0.31,-2.34 -0.24,-0.02 -0.48,-0.09 -0.74,-0.09 0,0.35 -0.52,3.57 -0.52,3.96zm-1.28 -2.5c0.34,0 0.49,0.22 0.49,0.54 -0.3,0 -0.74,-0.14 -1.01,-0.14 0.06,-0.12 0.09,-0.17 0.19,-0.26 0.07,-0.07 0.2,-0.14 0.33,-0.14zm-1.35 0.92c0,0.55 0.2,1.01 0.69,1.25 0.23,0.11 0.63,0.19 0.92,0.18 0.19,-0.01 0.42,-0.02 0.59,-0.1l-0.05 -0.61c-0.19,0.02 -0.7,0.23 -1.17,-0.07 -0.18,-0.11 -0.27,-0.29 -0.27,-0.58l1.73 0.27c0.1,-0.41 0.18,-0.69 0.02,-1.12 -0.05,-0.14 -0.12,-0.28 -0.23,-0.38 -0.52,-0.53 -1.39,-0.45 -1.86,0.09 -0.2,0.23 -0.39,0.66 -0.39,1.07zm-2.11 -0.45c0,-1.05 1.04,-1.21 1.2,-0.46 0.03,0.12 -0.03,0.32 -0.05,0.42 -0.05,0.27 -0.06,0.51 -0.36,0.66 -0.33,0.16 -0.8,-0.05 -0.8,-0.62zm-0.74 -0.09c0,0.42 0.08,0.72 0.34,1.01 0.27,0.29 0.71,0.42 1.11,0.33 0.09,-0.02 0.15,-0.06 0.23,-0.08 -0.19,0.8 -0.95,0.61 -1.36,0.3 -0.08,-0.06 -0.13,-0.12 -0.2,-0.16l-0.29 0.56c0.12,0.17 0.33,0.28 0.54,0.36 0.67,0.27 1.51,0.21 1.87,-0.52 0.25,-0.51 0.4,-1.92 0.55,-2.6 0.02,-0.11 0.07,-0.27 0.08,-0.37 -0.1,-0.02 -0.21,-0.04 -0.32,-0.06 -0.11,-0.02 -0.23,-0.05 -0.35,-0.05 -0,0.1 -0.02,0.07 -0.02,0.16 -0.13,-0.09 -0.31,-0.36 -0.83,-0.36 -0.81,0 -1.35,0.77 -1.35,1.48zm-2.9 0.61c0.11,0.01 0.25,0.05 0.36,0.07 0.1,0.02 0.27,0.06 0.36,0.07 0.06,-0.13 0.29,-1.57 0.36,-1.75 0.19,-0.45 0.92,-0.45 0.92,0.13 0,0.2 -0.05,0.4 -0.09,0.56l-0.21 1.09c-0.05,0.2 -0.08,0.14 0.37,0.23 0.42,0.09 0.29,0.23 0.47,-0.69 0.16,-0.79 0.48,-1.68 -0.3,-2.15 -0.22,-0.13 -0.56,-0.17 -0.82,-0.09 -0.08,0.02 -0.17,0.07 -0.25,0.09 0,-0.11 0.01,-0.09 0.02,-0.18 -0.05,-0.02 -0.6,-0.13 -0.67,-0.14l-0.11 0.7c-0.05,0.23 -0.09,0.46 -0.14,0.69l-0.27 1.37zm-1.39 -0.86c-0.12,0 -0.18,0.01 -0.28,-0.06 -0.21,-0.14 -0.1,-0.6 0.28,-0.6l0.47 0.02c0,0.31 -0.14,0.63 -0.47,0.63zm-0.54 -1.55c0.23,-0.05 0.28,-0.16 0.7,-0.11 0.35,0.04 0.43,0.16 0.43,0.45 -0.46,-0.04 -0.91,-0.14 -1.36,0.19 -0.19,0.15 -0.31,0.35 -0.35,0.64 -0.11,0.76 0.76,1.2 1.44,0.88 0,0.2 -0.05,0.15 0.28,0.22 0.13,0.03 0.29,0.07 0.42,0.07 0,-0.47 0.05,-0.61 0.13,-1.04 0.03,-0.14 0.06,-0.3 0.09,-0.43 0.12,-0.49 0.15,-1.02 -0.3,-1.36 -0.1,-0.08 -0.24,-0.14 -0.38,-0.18 -0.34,-0.09 -0.82,-0.11 -1.13,0.05 -0.08,0.04 -0.04,0.07 -0.01,0.28 0.01,0.1 0.04,0.24 0.05,0.34zm-2.32 1.51c0.06,0.03 0.54,0.14 0.63,0.14 0.02,-0.09 0.15,-0.24 0.2,-0.32 0.07,-0.1 0.13,-0.2 0.21,-0.31l1.15 -1.71c0.04,-0.06 0.09,-0.1 0.1,-0.17 -0.1,-0.05 -0.64,-0.13 -0.74,-0.18l-0.92 1.47c-0.01,0.02 -0.02,0.03 -0.03,0.06 -0.03,0.04 -0.01,0.02 -0.04,0.05 -0.05,-0.19 -0.13,-1.1 -0.17,-1.39 -0.02,-0.15 -0.05,-0.32 -0.06,-0.46 -0.11,-0.01 -0.25,-0.05 -0.37,-0.08 -0.11,-0.03 -0.29,-0.08 -0.39,-0.08l0.43 2.97zm-3.1 -0.72l2.2 0.52c0.02,-0.1 0.04,-0.2 0.07,-0.29 0.11,-0.44 0.21,-0.3 -0.65,-0.52 -0.25,-0.06 -0.51,-0.12 -0.76,-0.18 0.03,-0.07 0.22,-0.87 0.22,-0.97l1 0.23c0.11,0.03 0.25,0.07 0.35,0.08l0.16 -0.63 -0.99 -0.24c-0.1,-0.03 -0.24,-0.07 -0.36,-0.07 0.04,-0.09 0.07,-0.29 0.1,-0.41 0.04,-0.15 0.07,-0.27 0.1,-0.42l1.42 0.34c0.03,-0.15 0.14,-0.52 0.14,-0.65 -0.1,-0 -0.94,-0.21 -1.06,-0.24l-1.05 -0.25c-0.14,0.62 -0.28,1.23 -0.44,1.85l-0.33 1.38c-0.02,0.07 -0.04,0.17 -0.06,0.24 -0.02,0.09 -0.04,0.16 -0.05,0.24zm-2.32 -0.56c0.1,0 0.25,0.05 0.35,0.08 0.11,0.03 0.24,0.08 0.37,0.08 0.01,-0.12 0.08,-0.36 0.12,-0.49l0.87 -3.38c-0.13,-0.01 -0.56,-0.14 -0.72,-0.18l-0.49 1.94c-0.08,0.32 -0.17,0.64 -0.25,0.96l-0.24 1zm-1.03 -2.63c0.38,0 0.56,0.3 0.49,0.59 -0.07,-0 -0.94,-0.22 -0.99,-0.25 0.1,-0.15 0.26,-0.34 0.49,-0.34zm-1.39 1.01c0,0.46 0.2,0.77 0.46,0.98 0.51,0.43 1.64,0.44 1.64,0.28l0 -0.56c-0.13,0 -0.24,0.05 -0.38,0.05 -0.32,0 -0.78,-0.11 -0.93,-0.42 -0.06,-0.13 -0.06,-0.22 -0.06,-0.41l0.84 0.22c0.15,0.04 0.27,0.07 0.43,0.11 0.12,0.03 0.32,0.1 0.44,0.1 0.16,-0.33 0.16,-0.52 0.16,-0.88 0,-0.64 -0.55,-1.08 -1.24,-1.08 -0.78,0 -1.35,0.82 -1.35,1.62zm-2.59 -0.41c-0.76,0 -0.68,-0.81 -0.47,-1.21 0.34,-0.63 1.12,-0.48 1.12,0.17 0,0.14 -0.12,0.53 -0.17,0.66 -0.06,0.18 -0.25,0.37 -0.48,0.37zm0.92 -1.87c-0.51,-0.58 -1.41,-0.52 -1.88,0.08 -0.37,0.47 -0.52,1.14 -0.28,1.73 0.1,0.25 0.33,0.48 0.58,0.59 0.55,0.23 0.75,0.03 0.95,0.02 -0.02,0.07 -0.04,0.13 -0.05,0.2 0.11,0.01 0.52,0.14 0.68,0.18 0.01,-0.14 0.07,-0.37 0.11,-0.5 0.11,-0.43 0.95,-3.2 0.95,-3.37 -0.1,-0.01 -0.25,-0.06 -0.34,-0.09 -0.1,-0.03 -0.25,-0.08 -0.36,-0.09l-0.18 0.62c-0.03,0.1 -0.06,0.2 -0.09,0.32 -0.02,0.08 -0.08,0.23 -0.08,0.32zm-4.09 0.88c0,-0.58 0.7,-0.35 0.9,-0.34 -0.07,0.8 -0.9,0.67 -0.9,0.34zm-0.07 -1.94c0,0.22 0.02,0.37 0.02,0.61 0.28,-0.06 0.63,-0.18 0.95,0.02 0.16,0.1 0.16,0.15 0.16,0.41 -0.23,-0.11 -0.87,-0.15 -1.21,-0.01 -0.73,0.29 -0.8,1.27 -0.14,1.63 0.26,0.14 0.65,0.19 0.94,0.05 -0.01,0.09 -0.02,0.07 -0.02,0.18 0.11,0.03 0.22,0.06 0.33,0.09 0.08,0.03 0.24,0.08 0.34,0.09 0.01,-0.32 0.14,-0.72 0.22,-1.01 0.17,-0.6 0.54,-1.4 -0.15,-1.88 -0.36,-0.25 -1.07,-0.35 -1.45,-0.17zm-2.79 0.88c0,1.05 1.09,1.55 1.93,1.35 0,-0.13 0.02,-0.17 0.02,-0.31 -0,-0.14 0.02,-0.2 0.02,-0.32 -0.18,0 -0.58,0.14 -0.95,-0.13 -0.56,-0.42 -0.15,-1.47 0.39,-1.47 0.62,0 0.63,0.19 0.88,0.36 0.06,-0.04 0.13,-0.19 0.18,-0.27 0.06,-0.09 0.11,-0.18 0.18,-0.27 -0.1,-0.07 -0.1,-0.11 -0.33,-0.25 -1.1,-0.66 -2.32,0.12 -2.32,1.31zm-1.3 0.61l0.7 0.2 0.79 -2.72c-0.18,-0.02 -0.54,-0.18 -0.72,-0.18 -0.01,0.09 -0.06,0.25 -0.09,0.34l-0.67 2.36zm0.85 -3.15c0,0.49 0.85,0.61 0.85,-0.05 0,-0.35 -0.47,-0.54 -0.73,-0.28 -0.05,0.05 -0.13,0.22 -0.13,0.32zm-2.2 2.12l-0.13 0c-0.72,0 -0.59,-1.29 -0.02,-1.55 0.35,-0.16 0.79,0.04 0.79,0.52 0,0.11 -0.13,0.56 -0.17,0.67 -0.07,0.17 -0.24,0.37 -0.46,0.37zm0.9 -1.87l-0.16 -0.15c-0.52,-0.42 -1.31,-0.29 -1.72,0.23 -0.77,0.98 -0.38,2.42 0.78,2.42 0.23,0 0.3,-0.05 0.47,-0.09 -0.02,0.24 -0.12,0.17 0.19,0.26 0.15,0.04 0.3,0.09 0.44,0.12 0.26,-1.1 0.61,-2.29 0.92,-3.37l0.13 -0.5c-0.18,-0.02 -0.54,-0.18 -0.72,-0.18l-0.26 0.94c-0.03,0.1 -0.07,0.22 -0.08,0.33zm-3.42 -0.49c0.16,0 0.32,0.07 0.4,0.16 0.1,0.11 0.12,0.24 0.12,0.44l-0.99 -0.27c0.04,-0.15 0.28,-0.34 0.47,-0.34zm-1.39 1.01c0,0.95 0.87,1.37 1.66,1.37 0.15,0 0.27,-0.03 0.4,-0.04l0 -0.61c-0.3,0 -0.69,0.1 -1.09,-0.17 -0.22,-0.15 -0.26,-0.29 -0.26,-0.64l1.28 0.34c0.09,0.03 0.33,0.11 0.43,0.11 0.07,-0.28 0.09,-0.12 0.17,-0.67 0.06,-0.42 -0.15,-0.9 -0.53,-1.13 -0.6,-0.35 -1.25,-0.19 -1.67,0.31 -0.23,0.27 -0.39,0.73 -0.39,1.12zm-1.71 0.49c0.23,0.02 0.47,0.16 0.7,0.16 0.06,-0.27 0.37,-1.48 0.46,-1.66 0.27,-0.54 0.79,-0.19 0.85,-0.19 0.01,-0.08 0.07,-0.26 0.09,-0.34 0.03,-0.11 0.07,-0.23 0.07,-0.36 -0.21,-0.05 -0.09,-0.11 -0.49,-0.11 -0.16,0 -0.28,0.06 -0.38,0.11 0.01,-0.06 0.02,-0.14 0.05,-0.18 -0.06,-0.03 -0.6,-0.17 -0.67,-0.18 -0,0.09 -0.04,0.26 -0.06,0.34l-0.26 1.03c-0.06,0.22 -0.11,0.47 -0.17,0.68 -0.04,0.14 -0.16,0.55 -0.16,0.69zm-0.88 -2.39c-0.37,0 -0.35,-0.07 -0.56,-0.09l0.27 -1.12c0.3,0.02 0.85,0.19 0.85,0.56 0,0.37 -0.2,0.65 -0.56,0.65zm-1.78 1.69c0.07,0.03 0.62,0.18 0.72,0.18l0.24 -0.98c0.03,-0.11 0.07,-0.25 0.08,-0.35 0.27,0.01 1.42,0.51 1.93,-0.63 0.17,-0.37 0.15,-0.83 -0.11,-1.15 -0.12,-0.16 -0.3,-0.3 -0.49,-0.39 -0.32,-0.14 -0.98,-0.31 -1.42,-0.31 -0.05,0 -0.06,0.14 -0.08,0.19 -0.27,1.12 -0.61,2.31 -0.87,3.43z"/>
   </g>
   <path class="fil12" d="M361.21 99.64l0 -14.01 3.11 0 0 14.01 -3.11 0zm9.66 -3.69l2.61 0 0 0.26c0,1.23 -0.3,2.15 -0.91,2.77 -0.61,0.62 -1.52,0.93 -2.72,0.93 -0.61,0 -1.16,-0.09 -1.65,-0.27 -0.49,-0.18 -0.88,-0.43 -1.16,-0.75 -0.31,-0.37 -0.53,-0.86 -0.67,-1.47 -0.13,-0.62 -0.2,-1.59 -0.2,-2.94 0,-1.49 0.07,-2.52 0.2,-3.11 0.14,-0.59 0.36,-1.07 0.69,-1.46 0.32,-0.36 0.72,-0.63 1.2,-0.81 0.49,-0.18 1.05,-0.27 1.7,-0.27 0.66,0 1.22,0.1 1.7,0.3 0.48,0.2 0.87,0.49 1.16,0.88 0.25,0.33 0.43,0.72 0.54,1.17 0.11,0.45 0.16,1.23 0.16,2.33l0 1.27 -4.54 0c-0.01,0.03 -0.01,0.07 -0.01,0.12 -0.02,0.44 -0.03,0.75 -0.03,0.93 0,0.74 0.08,1.25 0.23,1.54 0.15,0.29 0.41,0.43 0.77,0.43 0.32,0 0.55,-0.11 0.72,-0.33 0.16,-0.22 0.24,-0.56 0.24,-1 0,-0.09 -0.01,-0.23 -0.03,-0.42 -0,-0.03 -0.01,-0.07 -0.01,-0.09zm-1.81 -3l1.87 0c0,-0.01 0,-0.03 0,-0.06 0.02,-0.26 0.03,-0.45 0.03,-0.56 0,-0.51 -0.08,-0.89 -0.24,-1.14 -0.16,-0.25 -0.4,-0.37 -0.74,-0.37 -0.34,0 -0.58,0.12 -0.73,0.36 -0.15,0.24 -0.22,0.64 -0.22,1.19 0,0.15 0,0.27 0,0.35 0,0.08 0.01,0.16 0.01,0.23zm10.71 1.62c-0.72,0.21 -1.24,0.47 -1.57,0.79 -0.33,0.31 -0.49,0.71 -0.49,1.18 0,0.33 0.08,0.6 0.24,0.8 0.17,0.2 0.39,0.3 0.66,0.3 0.41,0 0.7,-0.15 0.89,-0.44 0.19,-0.29 0.28,-0.78 0.28,-1.46l0 -1.17zm0.35 5.07l-0.16 -0.97c-0.35,0.39 -0.73,0.68 -1.15,0.88 -0.42,0.2 -0.87,0.29 -1.36,0.29 -0.78,0 -1.4,-0.27 -1.85,-0.8 -0.46,-0.53 -0.68,-1.26 -0.68,-2.16 0,-0.8 0.19,-1.45 0.58,-1.97 0.39,-0.51 1.02,-0.96 1.91,-1.33 0.21,-0.08 0.5,-0.2 0.86,-0.33 1.04,-0.4 1.56,-0.85 1.56,-1.36 0,-0.31 -0.08,-0.54 -0.23,-0.7 -0.15,-0.16 -0.37,-0.24 -0.64,-0.24 -0.34,0 -0.59,0.11 -0.76,0.32 -0.16,0.22 -0.24,0.55 -0.24,1l0 0.07 -2.79 0c0,-1.19 0.31,-2.07 0.94,-2.65 0.63,-0.58 1.58,-0.87 2.85,-0.87 0.57,0 1.09,0.06 1.54,0.17 0.45,0.11 0.83,0.28 1.13,0.49 0.39,0.28 0.67,0.61 0.82,1.01 0.16,0.39 0.24,1.11 0.24,2.16l0 0.32 0 3.74c0,0.82 0.03,1.45 0.08,1.89 0.05,0.43 0.14,0.79 0.27,1.06l-2.91 0zm4.51 0l0 -10.53 2.62 0 0 1.25c0.31,-0.5 0.65,-0.86 1.04,-1.1 0.39,-0.24 0.85,-0.35 1.37,-0.35 0.77,0 1.33,0.27 1.69,0.81 0.36,0.54 0.54,1.4 0.54,2.58l0 7.34 -2.77 0 0 -6.5c0,-0.84 -0.05,-1.37 -0.16,-1.57 -0.1,-0.21 -0.29,-0.31 -0.55,-0.31 -0.31,0 -0.55,0.16 -0.73,0.48 -0.17,0.32 -0.26,0.76 -0.26,1.33l0 6.57 -2.79 0zm8.46 -4.71l2.85 0c0,1.18 0.05,1.9 0.15,2.16 0.1,0.26 0.28,0.39 0.56,0.39 0.23,0 0.39,-0.08 0.48,-0.25 0.09,-0.17 0.14,-0.52 0.14,-1.07l0 -10.52 3.11 0 0 9.22c0,1.04 -0.03,1.82 -0.1,2.32 -0.07,0.51 -0.19,0.92 -0.35,1.25 -0.26,0.51 -0.66,0.89 -1.17,1.16 -0.51,0.26 -1.15,0.39 -1.91,0.39 -1.35,0 -2.32,-0.33 -2.9,-1 -0.58,-0.67 -0.87,-1.78 -0.87,-3.34 0,-0.2 0,-0.34 0,-0.44 0,-0.1 0.01,-0.19 0.02,-0.27zm13.87 1.02l2.61 0 0 0.26c0,1.23 -0.3,2.15 -0.91,2.77 -0.61,0.62 -1.52,0.93 -2.73,0.93 -0.61,0 -1.16,-0.09 -1.65,-0.27 -0.49,-0.18 -0.88,-0.43 -1.16,-0.75 -0.31,-0.37 -0.53,-0.86 -0.66,-1.47 -0.13,-0.62 -0.2,-1.59 -0.2,-2.94 0,-1.49 0.07,-2.52 0.2,-3.11 0.14,-0.59 0.37,-1.07 0.7,-1.46 0.31,-0.36 0.71,-0.63 1.2,-0.81 0.49,-0.18 1.05,-0.27 1.69,-0.27 0.66,0 1.22,0.1 1.7,0.3 0.48,0.2 0.87,0.49 1.17,0.88 0.25,0.33 0.43,0.72 0.54,1.17 0.11,0.45 0.16,1.23 0.16,2.33l0 1.27 -4.54 0c-0,0.03 -0.01,0.07 -0.01,0.12 -0.02,0.44 -0.04,0.75 -0.04,0.93 0,0.74 0.08,1.25 0.23,1.54 0.15,0.29 0.41,0.43 0.77,0.43 0.31,0 0.55,-0.11 0.71,-0.33 0.16,-0.22 0.24,-0.56 0.24,-1 0,-0.09 -0.01,-0.23 -0.03,-0.42 -0,-0.03 -0.01,-0.07 -0.01,-0.09zm-1.81 -3l1.87 0c0,-0.01 0,-0.03 0,-0.06 0.02,-0.26 0.04,-0.45 0.04,-0.56 0,-0.51 -0.08,-0.89 -0.24,-1.14 -0.16,-0.25 -0.4,-0.37 -0.74,-0.37 -0.34,0 -0.58,0.12 -0.73,0.36 -0.15,0.24 -0.22,0.64 -0.22,1.19 0,0.15 0,0.27 0,0.35 0,0.08 0.01,0.16 0.01,0.23zm5.64 3.35l2.49 0.01c0.03,0.55 0.13,0.94 0.3,1.2 0.17,0.25 0.43,0.38 0.78,0.38 0.28,0 0.5,-0.09 0.68,-0.26 0.18,-0.17 0.27,-0.39 0.27,-0.67 0,-0.24 -0.06,-0.43 -0.19,-0.59 -0.12,-0.16 -0.4,-0.34 -0.82,-0.55 -0.09,-0.05 -0.24,-0.12 -0.43,-0.22 -1.01,-0.49 -1.71,-0.95 -2.1,-1.38 -0.28,-0.29 -0.5,-0.63 -0.65,-1.02 -0.15,-0.39 -0.22,-0.8 -0.22,-1.22 0,-0.96 0.31,-1.72 0.93,-2.29 0.62,-0.57 1.45,-0.85 2.5,-0.85 1.09,0 1.93,0.27 2.52,0.82 0.59,0.55 0.88,1.33 0.88,2.36l0 0.19 -2.44 -0.01c-0.01,-0.53 -0.09,-0.9 -0.23,-1.13 -0.14,-0.22 -0.37,-0.34 -0.68,-0.34 -0.28,0 -0.51,0.08 -0.67,0.24 -0.17,0.16 -0.25,0.37 -0.25,0.63 0,0.46 0.42,0.89 1.25,1.27 0.11,0.06 0.2,0.1 0.27,0.13 1.14,0.54 1.9,1.06 2.28,1.57 0.39,0.51 0.58,1.18 0.58,2 0,1.06 -0.31,1.88 -0.93,2.46 -0.62,0.58 -1.51,0.87 -2.66,0.87 -1.09,0 -1.94,-0.29 -2.55,-0.88 -0.61,-0.59 -0.91,-1.41 -0.91,-2.47l0 -0.26zm15.65 -7.19l0 10.53 -2.62 0 0 -1.25c-0.31,0.5 -0.66,0.87 -1.04,1.1 -0.39,0.23 -0.84,0.35 -1.36,0.35 -0.77,0 -1.34,-0.27 -1.7,-0.82 -0.36,-0.54 -0.54,-1.4 -0.54,-2.57l0 -7.35 2.79 0 0 6.51c0,0.84 0.05,1.37 0.16,1.57 0.1,0.2 0.29,0.3 0.55,0.3 0.31,0 0.55,-0.16 0.73,-0.47 0.17,-0.32 0.26,-0.76 0.26,-1.33l0 -6.58 2.77 0zm-4.98 -1.12l1.71 -2.59 2.54 0 -3.01 2.59 -1.24 0zm6.4 8.31l2.49 0.01c0.03,0.55 0.13,0.94 0.3,1.2 0.17,0.25 0.43,0.38 0.78,0.38 0.28,0 0.5,-0.09 0.68,-0.26 0.18,-0.17 0.27,-0.39 0.27,-0.67 0,-0.24 -0.06,-0.43 -0.19,-0.59 -0.12,-0.16 -0.4,-0.34 -0.82,-0.55 -0.09,-0.05 -0.24,-0.12 -0.43,-0.22 -1.01,-0.49 -1.71,-0.95 -2.1,-1.38 -0.28,-0.29 -0.5,-0.63 -0.65,-1.02 -0.15,-0.39 -0.22,-0.8 -0.22,-1.22 0,-0.96 0.31,-1.72 0.93,-2.29 0.62,-0.57 1.45,-0.85 2.5,-0.85 1.09,0 1.93,0.27 2.52,0.82 0.59,0.55 0.88,1.33 0.88,2.36l0 0.19 -2.44 -0.01c-0.01,-0.53 -0.09,-0.9 -0.23,-1.13 -0.14,-0.22 -0.37,-0.34 -0.68,-0.34 -0.28,0 -0.51,0.08 -0.67,0.24 -0.17,0.16 -0.25,0.37 -0.25,0.63 0,0.46 0.42,0.89 1.25,1.27 0.11,0.06 0.2,0.1 0.27,0.13 1.14,0.54 1.9,1.06 2.28,1.57 0.39,0.51 0.58,1.18 0.58,2 0,1.06 -0.31,1.88 -0.93,2.46 -0.62,0.58 -1.51,0.87 -2.66,0.87 -1.09,0 -1.94,-0.29 -2.55,-0.88 -0.61,-0.59 -0.91,-1.41 -0.91,-2.47l0 -0.26zm16.35 -4.65c0.05,0.01 0.1,0.01 0.16,0.02 0.06,0.01 0.15,0.01 0.26,0.01 0.62,0 1.07,-0.15 1.34,-0.46 0.28,-0.3 0.41,-0.79 0.41,-1.47 0,-0.56 -0.15,-0.97 -0.44,-1.21 -0.29,-0.25 -0.78,-0.37 -1.47,-0.37l-0.27 0 0 3.49zm-3.13 7.98l0 -14.01 3.06 0c1.12,0 1.95,0.05 2.49,0.16 0.54,0.1 0.99,0.28 1.36,0.52 0.49,0.31 0.86,0.78 1.12,1.41 0.26,0.62 0.38,1.36 0.38,2.22 0,1.42 -0.35,2.5 -1.06,3.24 -0.71,0.74 -1.75,1.11 -3.12,1.11l-1.09 0 0 5.36 -3.13 0zm10.16 0l0 -14.01 7.22 0 0 2.72 -4.13 0 0 2.57 3.81 0 0 2.81 -3.81 0 0 3.05 4.13 0 0 2.85 -7.22 0zm12.31 -8.18c0.05,0 0.12,0 0.2,0.01 0.08,0.01 0.14,0.01 0.19,0.01 0.64,0 1.1,-0.14 1.36,-0.41 0.27,-0.27 0.4,-0.73 0.4,-1.38 0,-0.6 -0.13,-1.02 -0.4,-1.28 -0.27,-0.25 -0.72,-0.38 -1.36,-0.38 -0.04,0 -0.1,0 -0.19,0.01 -0.08,0.01 -0.15,0.01 -0.2,0.01l0 3.41zm-3.07 8.18l0 -14.01 3.49 0c1.14,0 1.97,0.05 2.49,0.17 0.52,0.11 0.93,0.3 1.26,0.58 0.38,0.33 0.66,0.73 0.85,1.21 0.18,0.48 0.28,1.05 0.28,1.71 0,0.81 -0.13,1.48 -0.4,2.03 -0.26,0.54 -0.68,0.99 -1.24,1.35 0.96,0.45 1.47,1.51 1.52,3.19l0 0.04c0.01,0.18 0.01,0.43 0.02,0.77 0.02,1.58 0.27,2.56 0.74,2.96l-3.63 0c-0.08,-0.29 -0.14,-0.6 -0.18,-0.92 -0.03,-0.32 -0.05,-0.66 -0.05,-1.02 0,-0.23 0,-0.5 0.02,-0.82 0.01,-0.32 0.02,-0.52 0.02,-0.62 0,-0.85 -0.11,-1.44 -0.32,-1.76 -0.21,-0.31 -0.59,-0.47 -1.15,-0.47l-0.64 0 0 5.61 -3.07 0zm10.44 -14.01l3.14 0 0 8.78c0,1.33 0.08,2.15 0.24,2.47 0.16,0.31 0.44,0.47 0.84,0.47 0.41,0 0.69,-0.16 0.85,-0.49 0.16,-0.33 0.23,-1.14 0.23,-2.45l0 -8.78 3.07 0 0 8.94c0,1.01 -0.04,1.77 -0.12,2.27 -0.09,0.5 -0.22,0.93 -0.41,1.3 -0.31,0.63 -0.77,1.09 -1.37,1.39 -0.6,0.3 -1.38,0.44 -2.34,0.44 -0.89,0 -1.61,-0.14 -2.16,-0.41 -0.56,-0.28 -1,-0.72 -1.33,-1.32 -0.24,-0.43 -0.4,-0.98 -0.5,-1.66 -0.09,-0.67 -0.14,-1.81 -0.14,-3.41l0 -7.54zm2.82 -1.17l1.71 -2.59 2.54 0 -3.01 2.59 -1.24 0z"/>
   <path class="fil12" d="M514.52 85.41l0 18.63 -2.42 0 0 -18.63 2.42 0zm24.2 14.23l-1.92 -10.53 2.7 0 0.78 7.33 1.06 -7.33 2.33 0 1.04 7.33 0.79 -7.33 2.7 0 -1.94 10.53 -2.89 0 -0.88 -5.79 -0.87 5.79 -2.89 0zm11.73 0l-1.93 -10.53 2.7 0 0.78 7.33 1.06 -7.33 2.33 0 1.05 7.33 0.79 -7.33 2.7 0 -1.94 10.53 -2.9 0 -0.88 -5.79 -0.87 5.79 -2.89 0zm11.73 0l-1.92 -10.53 2.7 0 0.78 7.33 1.06 -7.33 2.33 0 1.04 7.33 0.79 -7.33 2.7 0 -1.94 10.53 -2.89 0 -0.88 -5.79 -0.87 5.79 -2.9 0zm9.53 0l0 -3.2 3.05 0 0 3.2 -3.05 0zm4.93 -11.57l0 -2.55 2.77 0 0 2.55 -2.77 0zm0 11.57l0 -10.53 2.77 0 0 10.53 -2.77 0zm9.21 -3.69l2.61 0 0 0.26c0,1.23 -0.3,2.15 -0.91,2.77 -0.61,0.62 -1.52,0.93 -2.72,0.93 -0.61,0 -1.16,-0.09 -1.65,-0.27 -0.49,-0.18 -0.88,-0.43 -1.16,-0.75 -0.31,-0.37 -0.53,-0.86 -0.67,-1.47 -0.13,-0.62 -0.2,-1.59 -0.2,-2.94 0,-1.49 0.07,-2.52 0.2,-3.11 0.14,-0.59 0.36,-1.07 0.69,-1.46 0.31,-0.36 0.71,-0.63 1.2,-0.81 0.49,-0.18 1.05,-0.27 1.69,-0.27 0.66,0 1.22,0.1 1.7,0.3 0.48,0.2 0.87,0.49 1.17,0.88 0.25,0.33 0.43,0.72 0.54,1.17 0.11,0.45 0.16,1.23 0.16,2.33l0 1.27 -4.54 0c-0.01,0.03 -0.01,0.07 -0.01,0.12 -0.02,0.44 -0.03,0.75 -0.03,0.93 0,0.74 0.08,1.25 0.23,1.54 0.15,0.29 0.41,0.43 0.77,0.43 0.32,0 0.55,-0.11 0.71,-0.33 0.16,-0.22 0.24,-0.56 0.24,-1 0,-0.09 -0.01,-0.23 -0.03,-0.42 -0,-0.03 -0,-0.07 -0,-0.09zm-1.81 -3l1.87 0c0,-0.01 0,-0.03 0,-0.06 0.02,-0.26 0.03,-0.45 0.03,-0.56 0,-0.51 -0.08,-0.89 -0.24,-1.14 -0.16,-0.25 -0.4,-0.37 -0.74,-0.37 -0.34,0 -0.58,0.12 -0.73,0.36 -0.14,0.24 -0.22,0.64 -0.22,1.19 0,0.15 0,0.27 0,0.35 0,0.08 0.01,0.16 0.01,0.23zm10.71 1.62c-0.72,0.21 -1.24,0.47 -1.57,0.79 -0.33,0.31 -0.49,0.71 -0.49,1.18 0,0.33 0.08,0.6 0.24,0.8 0.17,0.2 0.39,0.3 0.66,0.3 0.41,0 0.7,-0.15 0.89,-0.44 0.19,-0.29 0.28,-0.78 0.28,-1.46l0 -1.17zm0.35 5.07l-0.16 -0.97c-0.35,0.39 -0.73,0.68 -1.15,0.88 -0.42,0.2 -0.87,0.29 -1.36,0.29 -0.78,0 -1.4,-0.27 -1.85,-0.8 -0.46,-0.53 -0.69,-1.26 -0.69,-2.16 0,-0.8 0.19,-1.45 0.58,-1.97 0.39,-0.51 1.02,-0.96 1.91,-1.33 0.21,-0.08 0.5,-0.2 0.86,-0.33 1.04,-0.4 1.56,-0.85 1.56,-1.36 0,-0.31 -0.08,-0.54 -0.22,-0.7 -0.15,-0.16 -0.37,-0.24 -0.65,-0.24 -0.34,0 -0.59,0.11 -0.76,0.32 -0.16,0.22 -0.24,0.55 -0.24,1l0 0.07 -2.79 0c0,-1.19 0.31,-2.07 0.94,-2.65 0.63,-0.58 1.58,-0.87 2.85,-0.87 0.58,0 1.09,0.06 1.54,0.17 0.45,0.11 0.83,0.28 1.13,0.49 0.39,0.28 0.66,0.61 0.82,1.01 0.16,0.39 0.24,1.11 0.24,2.16l0 0.32 0 3.74c0,0.82 0.03,1.45 0.08,1.89 0.05,0.43 0.14,0.79 0.27,1.06l-2.91 0zm4.51 0l0 -10.53 2.62 0 0 1.25c0.31,-0.5 0.65,-0.86 1.04,-1.1 0.39,-0.24 0.85,-0.35 1.37,-0.35 0.77,0 1.33,0.27 1.69,0.81 0.36,0.54 0.54,1.4 0.54,2.58l0 7.34 -2.77 0 0 -6.5c0,-0.84 -0.05,-1.37 -0.16,-1.57 -0.1,-0.21 -0.29,-0.31 -0.55,-0.31 -0.31,0 -0.55,0.16 -0.73,0.48 -0.17,0.32 -0.26,0.76 -0.26,1.33l0 6.57 -2.79 0zm11.98 -0.83l0 0.48c0,1.06 -0.05,1.79 -0.15,2.22 -0.1,0.43 -0.27,0.76 -0.51,1.02 -0.2,0.21 -0.46,0.37 -0.79,0.48 -0.32,0.1 -0.71,0.16 -1.17,0.16 -0.18,0 -0.36,-0.01 -0.53,-0.02 -0.17,-0.01 -0.34,-0.03 -0.51,-0.05l0 -2.18c0.02,0 0.05,0 0.09,0.01 0.04,0.01 0.07,0.01 0.09,0.01 0.26,0 0.45,-0.09 0.55,-0.28 0.1,-0.19 0.15,-0.69 0.15,-1.5l0 -10.03 2.77 0 0 9.69zm-2.77 -10.73l0 -2.55 2.77 0 0 2.55 -2.77 0zm9.21 7.88l2.61 0 0 0.26c0,1.23 -0.3,2.15 -0.91,2.77 -0.61,0.62 -1.52,0.93 -2.72,0.93 -0.61,0 -1.16,-0.09 -1.65,-0.27 -0.49,-0.18 -0.88,-0.43 -1.16,-0.75 -0.31,-0.37 -0.53,-0.86 -0.66,-1.47 -0.13,-0.62 -0.2,-1.59 -0.2,-2.94 0,-1.49 0.07,-2.52 0.2,-3.11 0.14,-0.59 0.37,-1.07 0.69,-1.46 0.32,-0.36 0.72,-0.63 1.2,-0.81 0.49,-0.18 1.05,-0.27 1.7,-0.27 0.66,0 1.22,0.1 1.7,0.3 0.48,0.2 0.87,0.49 1.17,0.88 0.25,0.33 0.43,0.72 0.54,1.17 0.11,0.45 0.16,1.23 0.16,2.33l0 1.27 -4.54 0c-0.01,0.03 -0.01,0.07 -0.01,0.12 -0.02,0.44 -0.04,0.75 -0.04,0.93 0,0.74 0.08,1.25 0.23,1.54 0.15,0.29 0.41,0.43 0.77,0.43 0.31,0 0.55,-0.11 0.71,-0.33 0.16,-0.22 0.24,-0.56 0.24,-1 0,-0.09 -0.01,-0.23 -0.03,-0.42 -0,-0.03 -0.01,-0.07 -0.01,-0.09zm-1.81 -3l1.87 0c0,-0.01 0,-0.03 0,-0.06 0.02,-0.26 0.04,-0.45 0.04,-0.56 0,-0.51 -0.08,-0.89 -0.24,-1.14 -0.16,-0.25 -0.4,-0.37 -0.74,-0.37 -0.34,0 -0.58,0.12 -0.73,0.36 -0.15,0.24 -0.22,0.64 -0.22,1.19 0,0.15 0,0.27 0,0.35 0,0.08 0.01,0.16 0.01,0.23zm5.64 3.35l2.49 0.01c0.03,0.55 0.13,0.94 0.3,1.2 0.17,0.25 0.43,0.38 0.78,0.38 0.28,0 0.5,-0.09 0.68,-0.26 0.18,-0.17 0.27,-0.39 0.27,-0.67 0,-0.24 -0.06,-0.43 -0.19,-0.59 -0.12,-0.16 -0.4,-0.34 -0.82,-0.55 -0.09,-0.05 -0.24,-0.12 -0.43,-0.22 -1.01,-0.49 -1.71,-0.95 -2.1,-1.38 -0.28,-0.29 -0.5,-0.63 -0.65,-1.02 -0.15,-0.39 -0.22,-0.8 -0.22,-1.22 0,-0.96 0.31,-1.72 0.93,-2.29 0.62,-0.57 1.45,-0.85 2.5,-0.85 1.09,0 1.93,0.27 2.52,0.82 0.59,0.55 0.88,1.33 0.88,2.36l0 0.19 -2.44 -0.01c-0.01,-0.53 -0.09,-0.9 -0.23,-1.13 -0.14,-0.22 -0.37,-0.34 -0.68,-0.34 -0.28,0 -0.51,0.08 -0.67,0.24 -0.17,0.16 -0.25,0.37 -0.25,0.63 0,0.46 0.42,0.89 1.25,1.27 0.11,0.06 0.2,0.1 0.27,0.13 1.14,0.54 1.9,1.06 2.28,1.57 0.39,0.51 0.58,1.18 0.58,2 0,1.06 -0.31,1.88 -0.93,2.46 -0.62,0.58 -1.51,0.87 -2.66,0.87 -1.09,0 -1.94,-0.29 -2.55,-0.88 -0.61,-0.59 -0.91,-1.41 -0.91,-2.47l0 -0.26zm15.65 -7.19l0 10.53 -2.62 0 0 -1.25c-0.31,0.5 -0.66,0.87 -1.04,1.1 -0.39,0.23 -0.84,0.35 -1.36,0.35 -0.77,0 -1.34,-0.27 -1.7,-0.82 -0.36,-0.54 -0.54,-1.4 -0.54,-2.57l0 -7.35 2.79 0 0 6.51c0,0.84 0.05,1.37 0.16,1.57 0.1,0.2 0.29,0.3 0.55,0.3 0.31,0 0.55,-0.16 0.73,-0.47 0.17,-0.32 0.26,-0.76 0.26,-1.33l0 -6.58 2.77 0zm1.42 7.19l2.49 0.01c0.03,0.55 0.13,0.94 0.3,1.2 0.17,0.25 0.43,0.38 0.78,0.38 0.28,0 0.5,-0.09 0.68,-0.26 0.18,-0.17 0.27,-0.39 0.27,-0.67 0,-0.24 -0.06,-0.43 -0.18,-0.59 -0.12,-0.16 -0.4,-0.34 -0.82,-0.55 -0.09,-0.05 -0.24,-0.12 -0.43,-0.22 -1.01,-0.49 -1.71,-0.95 -2.1,-1.38 -0.28,-0.29 -0.5,-0.63 -0.65,-1.02 -0.15,-0.39 -0.22,-0.8 -0.22,-1.22 0,-0.96 0.31,-1.72 0.93,-2.29 0.62,-0.57 1.45,-0.85 2.5,-0.85 1.09,0 1.93,0.27 2.52,0.82 0.59,0.55 0.88,1.33 0.88,2.36l0 0.19 -2.44 -0.01c-0.01,-0.53 -0.09,-0.9 -0.23,-1.13 -0.14,-0.22 -0.37,-0.34 -0.68,-0.34 -0.28,0 -0.51,0.08 -0.67,0.24 -0.17,0.16 -0.25,0.37 -0.25,0.63 0,0.46 0.42,0.89 1.25,1.27 0.11,0.06 0.2,0.1 0.27,0.13 1.14,0.54 1.9,1.06 2.28,1.57 0.39,0.51 0.58,1.18 0.58,2 0,1.06 -0.31,1.88 -0.93,2.46 -0.62,0.58 -1.51,0.87 -2.66,0.87 -1.09,0 -1.94,-0.29 -2.55,-0.88 -0.61,-0.59 -0.91,-1.41 -0.91,-2.47l0 -0.26zm12.14 1.14c0.36,0 0.61,-0.22 0.74,-0.65 0.14,-0.44 0.2,-1.45 0.2,-3.03 0,-0.95 -0.06,-1.61 -0.2,-1.96 -0.13,-0.35 -0.36,-0.53 -0.68,-0.53 -0.37,0 -0.62,0.2 -0.76,0.61 -0.14,0.41 -0.21,1.48 -0.21,3.21 0,0.89 0.07,1.51 0.2,1.84 0.14,0.34 0.37,0.51 0.7,0.51zm-3.63 5.74l0 -14.07 2.57 0 0 1.2c0.26,-0.47 0.58,-0.83 0.96,-1.07 0.38,-0.24 0.81,-0.36 1.28,-0.36 0.39,0 0.74,0.07 1.07,0.22 0.32,0.15 0.59,0.35 0.8,0.62 0.25,0.33 0.42,0.77 0.52,1.32 0.1,0.55 0.15,1.58 0.15,3.09 0,2.39 -0.19,3.96 -0.56,4.71 -0.37,0.74 -1.05,1.12 -2.03,1.12 -0.42,0 -0.79,-0.1 -1.11,-0.3 -0.32,-0.2 -0.61,-0.51 -0.87,-0.92l0 4.47 -2.77 0zm13.52 -7.23l2.61 0 0 0.26c0,1.23 -0.3,2.15 -0.91,2.77 -0.61,0.62 -1.52,0.93 -2.72,0.93 -0.61,0 -1.16,-0.09 -1.65,-0.27 -0.49,-0.18 -0.88,-0.43 -1.16,-0.75 -0.31,-0.37 -0.53,-0.86 -0.67,-1.47 -0.13,-0.62 -0.2,-1.59 -0.2,-2.94 0,-1.49 0.07,-2.52 0.2,-3.11 0.14,-0.59 0.37,-1.07 0.69,-1.46 0.32,-0.36 0.71,-0.63 1.2,-0.81 0.49,-0.18 1.05,-0.27 1.69,-0.27 0.66,0 1.22,0.1 1.7,0.3 0.48,0.2 0.87,0.49 1.16,0.88 0.25,0.33 0.43,0.72 0.54,1.17 0.11,0.45 0.16,1.23 0.16,2.33l0 1.27 -4.54 0c-0.01,0.03 -0.01,0.07 -0.01,0.12 -0.02,0.44 -0.03,0.75 -0.03,0.93 0,0.74 0.08,1.25 0.23,1.54 0.15,0.29 0.41,0.43 0.77,0.43 0.32,0 0.55,-0.11 0.71,-0.33 0.16,-0.22 0.24,-0.56 0.24,-1 0,-0.09 -0.01,-0.23 -0.03,-0.42 -0,-0.03 -0.01,-0.07 -0.01,-0.09zm-1.81 -3l1.87 0c0,-0.01 0,-0.03 0,-0.06 0.02,-0.26 0.03,-0.45 0.03,-0.56 0,-0.51 -0.08,-0.89 -0.24,-1.14 -0.16,-0.25 -0.4,-0.37 -0.74,-0.37 -0.34,0 -0.58,0.12 -0.73,0.36 -0.14,0.24 -0.22,0.64 -0.22,1.19 0,0.15 0,0.27 0,0.35 0,0.08 0.01,0.16 0.01,0.23zm6.19 6.69l0 -10.53 2.56 0 0 1.47c0.31,-0.52 0.64,-0.93 1.01,-1.19 0.37,-0.27 0.78,-0.43 1.24,-0.48l0 3.33c-0.16,-0.04 -0.3,-0.07 -0.45,-0.08 -0.14,-0.02 -0.27,-0.03 -0.38,-0.03 -0.45,0 -0.76,0.17 -0.94,0.5 -0.18,0.34 -0.26,0.99 -0.26,1.96l0 5.05 -2.77 0zm13.46 -10.53l0 10.53 -2.62 0 0 -1.25c-0.31,0.5 -0.66,0.87 -1.04,1.1 -0.39,0.23 -0.84,0.35 -1.36,0.35 -0.77,0 -1.34,-0.27 -1.7,-0.82 -0.36,-0.54 -0.54,-1.4 -0.54,-2.57l0 -7.35 2.79 0 0 6.51c0,0.84 0.05,1.37 0.16,1.57 0.1,0.2 0.29,0.3 0.55,0.3 0.31,0 0.55,-0.16 0.73,-0.47 0.17,-0.32 0.26,-0.76 0.26,-1.33l0 -6.58 2.77 0zm1.93 10.53l0 -3.2 3.05 0 0 3.2 -3.05 0zm7.49 -5.26c0,1.48 0.06,2.41 0.19,2.78 0.12,0.37 0.36,0.56 0.7,0.56 0.34,0 0.57,-0.18 0.7,-0.54 0.12,-0.36 0.19,-1.29 0.19,-2.8 0,-1.51 -0.06,-2.44 -0.19,-2.81 -0.12,-0.36 -0.36,-0.54 -0.7,-0.54 -0.34,0 -0.57,0.19 -0.7,0.57 -0.12,0.38 -0.19,1.3 -0.19,2.78zm-2.82 0c0,-2.05 0.28,-3.48 0.84,-4.31 0.56,-0.82 1.51,-1.24 2.87,-1.24 1.36,0 2.31,0.41 2.87,1.23 0.56,0.82 0.84,2.26 0.84,4.32 0,2.05 -0.28,3.49 -0.84,4.31 -0.56,0.82 -1.52,1.23 -2.87,1.23 -1.36,0 -2.32,-0.41 -2.87,-1.22 -0.56,-0.81 -0.83,-2.25 -0.83,-4.32zm9.08 5.26l0 -10.53 2.56 0 0 1.47c0.31,-0.52 0.64,-0.93 1.01,-1.19 0.37,-0.27 0.78,-0.43 1.24,-0.48l0 3.33c-0.16,-0.04 -0.3,-0.07 -0.45,-0.08 -0.14,-0.02 -0.27,-0.03 -0.38,-0.03 -0.45,0 -0.76,0.17 -0.94,0.5 -0.18,0.34 -0.26,0.99 -0.26,1.96l0 5.05 -2.77 0zm8.8 -6.65l0 0.76c0,1.38 0.06,2.25 0.19,2.63 0.12,0.37 0.34,0.56 0.67,0.56 0.33,0 0.56,-0.16 0.68,-0.5 0.13,-0.33 0.19,-1.03 0.19,-2.1l0 -0.43c0,-1.14 -0.06,-1.86 -0.18,-2.16 -0.12,-0.3 -0.35,-0.45 -0.67,-0.45 -0.3,0 -0.52,0.13 -0.66,0.4 -0.14,0.26 -0.21,0.69 -0.21,1.28zm4.52 -3.88l0 9.43c0,0.96 -0.05,1.68 -0.15,2.14 -0.1,0.46 -0.26,0.86 -0.49,1.18 -0.32,0.44 -0.75,0.77 -1.29,0.99 -0.54,0.22 -1.18,0.33 -1.94,0.33 -1.17,0 -2.04,-0.25 -2.6,-0.75 -0.57,-0.5 -0.85,-1.28 -0.85,-2.32l2.76 0c0,0.39 0.07,0.68 0.2,0.86 0.13,0.18 0.35,0.27 0.63,0.27 0.36,0 0.6,-0.12 0.74,-0.36 0.14,-0.24 0.2,-0.71 0.2,-1.41l0 -1.24c-0.37,0.35 -0.72,0.61 -1.05,0.77 -0.33,0.16 -0.67,0.24 -1.01,0.24 -0.48,0 -0.91,-0.14 -1.28,-0.41 -0.37,-0.28 -0.67,-0.67 -0.87,-1.19 -0.11,-0.27 -0.19,-0.66 -0.24,-1.18 -0.05,-0.51 -0.08,-1.17 -0.08,-1.99 0,-0.78 0.02,-1.48 0.06,-2.09 0.04,-0.61 0.09,-1.11 0.15,-1.49 0.11,-0.59 0.37,-1.07 0.79,-1.45 0.41,-0.38 0.89,-0.57 1.44,-0.57 0.44,0 0.85,0.11 1.24,0.34 0.38,0.23 0.76,0.59 1.12,1.07l0 -1.17 2.54 0z"/>
   <path class="fil12" d="M290.64 98.47l0 -4.34 1.38 0 0.21 -1.68 -1.59 0 0 -0.95c0,-0.27 0.01,-0.43 0.04,-0.5 0,-0.02 0.02,-0.07 0.07,-0.16 0.1,-0.2 0.37,-0.3 0.8,-0.3l0.73 0 0 -1.5c-0.39,-0.05 -0.79,-0.07 -1.22,-0.07 -0.84,0 -1.43,0.32 -1.78,0.97 -0.2,0.36 -0.3,0.77 -0.3,1.24l0 1.29 -1.37 0 0 1.68 1.37 0 0 4.34 1.65 0zm-0.69 4.25c-1.14,0 -2.22,-0.23 -3.26,-0.68 -1.03,-0.45 -1.96,-1.11 -2.77,-1.96 -0.81,-0.86 -1.43,-1.83 -1.86,-2.92 -0.43,-1.09 -0.64,-2.24 -0.64,-3.44 0,-1.2 0.21,-2.35 0.64,-3.44 0.43,-1.09 1.05,-2.06 1.86,-2.92 0.81,-0.86 1.73,-1.51 2.77,-1.96 1.03,-0.45 2.12,-0.68 3.26,-0.68 1.14,0 2.22,0.23 3.26,0.68 1.04,0.45 1.96,1.1 2.77,1.96 0.81,0.85 1.43,1.83 1.86,2.92 0.43,1.09 0.64,2.24 0.64,3.44 0,1.2 -0.22,2.35 -0.64,3.44 -0.43,1.09 -1.05,2.06 -1.86,2.92 -0.81,0.85 -1.73,1.51 -2.77,1.96 -1.03,0.45 -2.12,0.68 -3.26,0.68zm25.75 -11.19c-0.05,-0.2 -0.14,-0.36 -0.28,-0.51 -0.13,-0.14 -0.29,-0.24 -0.48,-0.3 -0.18,-0.05 -0.45,-0.08 -0.81,-0.11 -0.36,-0.03 -0.74,-0.04 -1.13,-0.05 -0.39,-0.01 -0.73,-0.02 -1.01,-0.03 -0.28,-0.01 -0.42,-0.01 -0.42,-0.01 0,0 -0.15,0 -0.43,0.01 -0.29,0.01 -0.62,0.02 -1.02,0.03 -0.39,0.01 -0.77,0.03 -1.13,0.05 -0.36,0.03 -0.63,0.06 -0.81,0.11 -0.18,0.05 -0.34,0.16 -0.48,0.3 -0.14,0.15 -0.23,0.31 -0.28,0.51 -0.04,0.19 -0.08,0.4 -0.1,0.65 -0.02,0.25 -0.04,0.48 -0.05,0.72 -0.01,0.23 -0.02,0.43 -0.02,0.59 -0,0.16 -0,0.24 -0,0.24 0,0 0,0.08 0,0.24 0,0.16 0.01,0.35 0.02,0.59 0.01,0.24 0.03,0.48 0.05,0.72 0.02,0.24 0.06,0.45 0.1,0.64 0.05,0.2 0.15,0.37 0.28,0.51 0.13,0.14 0.29,0.24 0.48,0.3 0.18,0.05 0.46,0.08 0.81,0.11 0.36,0.02 0.74,0.04 1.13,0.05 0.39,0.01 0.73,0.02 1.01,0.02 0.28,0 0.43,0 0.43,0 0,0 0.14,0 0.42,-0 0.28,-0 0.62,-0.01 1.01,-0.02 0.39,-0.01 0.77,-0.03 1.13,-0.06 0.36,-0.03 0.63,-0.06 0.81,-0.11 0.19,-0.05 0.35,-0.15 0.48,-0.29 0.13,-0.14 0.22,-0.31 0.28,-0.51 0.05,-0.18 0.08,-0.4 0.1,-0.64 0.02,-0.24 0.04,-0.48 0.05,-0.72 0.01,-0.23 0.02,-0.43 0.02,-0.59 0,-0.16 0.01,-0.24 0.01,-0.24 0,0 -0,-0.08 -0.01,-0.24 -0,-0.16 -0.01,-0.35 -0.02,-0.59 -0.01,-0.24 -0.03,-0.48 -0.05,-0.72 -0.03,-0.24 -0.06,-0.46 -0.11,-0.65zm-2.75 2.2l-2.24 1.35 0 -2.73 2.24 1.38zm-1.38 8.99c-1.14,0 -2.23,-0.23 -3.26,-0.68 -1.03,-0.45 -1.96,-1.11 -2.77,-1.96 -0.81,-0.86 -1.43,-1.83 -1.86,-2.92 -0.43,-1.09 -0.64,-2.24 -0.64,-3.44 0,-1.2 0.22,-2.35 0.64,-3.44 0.43,-1.09 1.04,-2.06 1.86,-2.92 0.81,-0.86 1.73,-1.51 2.77,-1.96 1.04,-0.45 2.12,-0.68 3.26,-0.68 1.14,0 2.22,0.23 3.26,0.68 1.04,0.45 1.96,1.1 2.77,1.96 0.81,0.85 1.43,1.83 1.86,2.92 0.43,1.09 0.64,2.24 0.64,3.44 0,1.2 -0.22,2.35 -0.64,3.44 -0.43,1.09 -1.05,2.06 -1.86,2.92 -0.81,0.85 -1.73,1.51 -2.77,1.96 -1.03,0.45 -2.12,0.68 -3.26,0.68zm21.62 0c-1.14,0 -2.22,-0.23 -3.26,-0.68 -1.03,-0.45 -1.96,-1.11 -2.77,-1.96 -0.81,-0.86 -1.43,-1.83 -1.86,-2.92 -0.43,-1.09 -0.64,-2.24 -0.64,-3.44 0,-1.2 0.21,-2.35 0.64,-3.44 0.43,-1.09 1.05,-2.06 1.86,-2.92 0.81,-0.86 1.73,-1.51 2.77,-1.96 1.03,-0.45 2.12,-0.68 3.26,-0.68 1.14,0 2.22,0.23 3.26,0.68 1.04,0.45 1.96,1.1 2.77,1.96 0.81,0.85 1.43,1.83 1.86,2.92 0.43,1.09 0.64,2.24 0.64,3.44 0,1.2 -0.22,2.35 -0.64,3.44 -0.43,1.09 -1.05,2.06 -1.86,2.92 -0.81,0.85 -1.73,1.51 -2.77,1.96 -1.03,0.45 -2.12,0.68 -3.26,0.68zm0 -13.47c-0.39,0 -0.68,0 -0.89,0 -0.2,0 -0.36,0 -0.49,0.01 -0.13,0.01 -0.26,0.01 -0.41,0.02 -0.44,0.03 -0.79,0.09 -1.04,0.21 -0.28,0.11 -0.53,0.28 -0.76,0.52 -0.23,0.25 -0.4,0.51 -0.5,0.8 -0.11,0.27 -0.18,0.63 -0.2,1.1 -0.01,0.15 -0.01,0.29 -0.01,0.42 -0,0.13 -0.01,0.3 -0.01,0.51 -0,0.21 -0,0.52 -0,0.93 0,0.41 0,0.73 0,0.94 0,0.21 0.01,0.39 0.01,0.52 0,0.13 0.01,0.27 0.01,0.42 0.02,0.47 0.09,0.83 0.2,1.1 0.1,0.29 0.27,0.56 0.5,0.8 0.23,0.24 0.48,0.42 0.76,0.53 0.25,0.12 0.6,0.19 1.04,0.21 0.14,0.01 0.28,0.01 0.4,0.02 0.13,0.01 0.29,0.01 0.49,0.01 0.2,0 0.49,0 0.88,0 0.39,0 0.68,0 0.88,0 0.2,0 0.36,-0 0.49,-0.01 0.13,-0.01 0.26,-0.01 0.4,-0.02 0.45,-0.02 0.79,-0.09 1.05,-0.21 0.28,-0.11 0.53,-0.29 0.76,-0.53 0.23,-0.24 0.39,-0.51 0.5,-0.8 0.11,-0.27 0.17,-0.63 0.2,-1.1 0.01,-0.15 0.01,-0.29 0.01,-0.42 0,-0.13 0.01,-0.3 0.01,-0.52 0,-0.21 0.01,-0.52 0.01,-0.94 0,-0.41 -0,-0.71 -0.01,-0.93 -0,-0.21 -0.01,-0.38 -0.01,-0.51 -0,-0.13 -0.01,-0.27 -0.01,-0.42 -0.02,-0.47 -0.09,-0.84 -0.2,-1.1 -0.11,-0.29 -0.27,-0.56 -0.5,-0.8 -0.23,-0.24 -0.48,-0.42 -0.76,-0.52 -0.26,-0.12 -0.61,-0.19 -1.05,-0.21 -0.14,-0.01 -0.28,-0.01 -0.4,-0.02 -0.13,-0.01 -0.29,-0.01 -0.49,-0.01 -0.2,0 -0.49,0 -0.87,0zm-0.39 0.82c0.07,0 0.16,0 0.24,0 0.05,0 0.09,0 0.15,0 0.38,0 0.67,0 0.86,0 0.19,0 0.35,0 0.47,0.01 0.12,0.01 0.25,0.01 0.4,0.02 0.4,0.03 0.67,0.08 0.8,0.16 0.19,0.07 0.35,0.18 0.49,0.34 0.14,0.15 0.25,0.32 0.32,0.52 0.07,0.14 0.12,0.42 0.15,0.84 0.01,0.15 0.01,0.29 0.02,0.42 0,0.13 0.01,0.3 0.01,0.5 0,0.21 0,0.51 0,0.91 0,0.41 0,0.71 0,0.92 0,0.21 -0,0.37 -0.01,0.5 -0.01,0.13 -0.01,0.27 -0.02,0.42 -0.03,0.42 -0.08,0.7 -0.15,0.84 -0.07,0.2 -0.17,0.38 -0.32,0.53 -0.14,0.15 -0.3,0.26 -0.49,0.34 -0.13,0.07 -0.4,0.12 -0.8,0.16 -0.15,0.01 -0.28,0.01 -0.4,0.01 -0.12,0 -0.28,0.01 -0.47,0.01 -0.2,0 -0.48,0.01 -0.86,0.01 -0.39,0 -0.68,-0 -0.87,-0.01 -0.2,-0 -0.35,-0.01 -0.47,-0.01 -0.12,-0 -0.25,-0.01 -0.4,-0.01 -0.4,-0.03 -0.66,-0.08 -0.79,-0.16 -0.19,-0.08 -0.36,-0.19 -0.5,-0.34 -0.14,-0.15 -0.25,-0.33 -0.32,-0.53 -0.07,-0.14 -0.12,-0.42 -0.15,-0.84 -0.01,-0.15 -0.01,-0.29 -0.02,-0.42 -0.01,-0.13 -0.01,-0.29 -0.01,-0.5 0,-0.21 0,-0.51 0,-0.92 0,-0.4 0,-0.7 0,-0.91 0,-0.21 0,-0.37 0.01,-0.5 0.01,-0.13 0.01,-0.27 0.02,-0.42 0.03,-0.42 0.08,-0.7 0.15,-0.84 0.07,-0.2 0.18,-0.37 0.32,-0.52 0.14,-0.15 0.31,-0.26 0.5,-0.34 0.13,-0.07 0.4,-0.12 0.79,-0.16 0.13,-0.01 0.24,-0.02 0.35,-0.02 0.11,-0 0.23,-0.01 0.38,-0.01 0.15,0 0.35,0 0.62,0zm2.68 0.75c-0.14,0 -0.26,0.05 -0.37,0.16 -0.1,0.11 -0.15,0.23 -0.15,0.38 0,0.15 0.05,0.28 0.15,0.39 0.1,0.11 0.22,0.16 0.37,0.16 0.14,0 0.26,-0.05 0.36,-0.16 0.1,-0.11 0.15,-0.24 0.15,-0.39 0,-0.15 -0.05,-0.27 -0.15,-0.38 -0.1,-0.11 -0.22,-0.16 -0.36,-0.16zm-2.29 0.63c-0.61,0 -1.13,0.23 -1.56,0.68 -0.43,0.46 -0.65,1 -0.65,1.65 0,0.65 0.22,1.2 0.65,1.65 0.43,0.45 0.95,0.68 1.56,0.68 0.61,0 1.13,-0.22 1.56,-0.68 0.43,-0.45 0.65,-1 0.65,-1.65 0,-0.64 -0.22,-1.19 -0.65,-1.65 -0.43,-0.45 -0.95,-0.68 -1.56,-0.68zm0 0.82c0.39,0 0.73,0.15 1.01,0.45 0.28,0.3 0.42,0.65 0.42,1.06 0,0.42 -0.14,0.78 -0.42,1.07 -0.28,0.3 -0.62,0.45 -1.01,0.45 -0.4,0 -0.74,-0.15 -1.02,-0.45 -0.28,-0.3 -0.43,-0.66 -0.43,-1.07 0,-0.41 0.14,-0.77 0.43,-1.06 0.28,-0.3 0.62,-0.45 1.02,-0.45z"/>
  </g>
 </g>
</svg>
