<?xml version="1.0" encoding="UTF-8"?>
<!DOCTYPE svg PUBLIC "-//W3C//DTD SVG 1.1//EN" "http://www.w3.org/Graphics/SVG/1.1/DTD/svg11.dtd">
<!-- Creator: CorelDRAW 2019 (64-Bit) -->
<svg xmlns="http://www.w3.org/2000/svg" xml:space="preserve" width="79.5689mm" height="11.4873mm" version="1.1" style="shape-rendering:geometricPrecision; text-rendering:geometricPrecision; image-rendering:optimizeQuality; fill-rule:evenodd; clip-rule:evenodd"
viewBox="0 0 284.61 41.09"
 xmlns:xlink="http://www.w3.org/1999/xlink">
 <defs>
  <style type="text/css">
   <![CDATA[
    .fil11 {fill:#FEFEFE}
    .fil0 {fill:#AD3437}
    .fil7 {fill:#145A9E}
    .fil2 {fill:#666666}
    .fil10 {fill:#F03237}
    .fil8 {fill:yellow}
    .fil1 {fill:white}
    .fil9 {fill:black;fill-rule:nonzero}
    .fil12 {fill:white;fill-rule:nonzero}
    .fil4 {fill:url(#id2)}
    .fil5 {fill:url(#id3)}
    .fil3 {fill:url(#id4)}
    .fil6 {fill:url(#id5)}
   ]]>
  </style>
    <mask id="id0">
  <linearGradient id="id1" gradientUnits="userSpaceOnUse" x1="57.49" y1="17.7" x2="44.19" y2="17.7">
   <stop offset="0" style="stop-opacity:0; stop-color:white"/>
   <stop offset="1" style="stop-opacity:1; stop-color:white"/>
  </linearGradient>
     <rect style="fill:url(#id1)" x="45.73" y="4.49" width="23.34" height="28.48"/>
    </mask>
  <linearGradient id="id2" gradientUnits="userSpaceOnUse" x1="36.3" y1="27.63" x2="14.5" y2="9.11">
   <stop offset="0" style="stop-opacity:1; stop-color:#C89426"/>
   <stop offset="0.101961" style="stop-opacity:1; stop-color:#FFC300"/>
   <stop offset="0.168627" style="stop-opacity:1; stop-color:yellow"/>
   <stop offset="0.25098" style="stop-opacity:1; stop-color:#FFF5AF"/>
   <stop offset="0.309804" style="stop-opacity:1; stop-color:yellow"/>
   <stop offset="0.380392" style="stop-opacity:1; stop-color:#FFC300"/>
   <stop offset="0.478431" style="stop-opacity:1; stop-color:#C89426"/>
   <stop offset="0.521569" style="stop-opacity:1; stop-color:#C89426"/>
   <stop offset="0.619608" style="stop-opacity:1; stop-color:#FFC300"/>
   <stop offset="0.701961" style="stop-opacity:1; stop-color:yellow"/>
   <stop offset="0.74902" style="stop-opacity:1; stop-color:#FFF5AF"/>
   <stop offset="0.811765" style="stop-opacity:1; stop-color:yellow"/>
   <stop offset="0.909804" style="stop-opacity:1; stop-color:#FFC300"/>
   <stop offset="1" style="stop-opacity:1; stop-color:#C89426"/>
  </linearGradient>
  <linearGradient id="id3" gradientUnits="userSpaceOnUse" x1="25.31" y1="7.55" x2="25.31" y2="29.2">
   <stop offset="0" style="stop-opacity:1; stop-color:#00AFF0"/>
   <stop offset="1" style="stop-opacity:1; stop-color:#3E4096"/>
  </linearGradient>
  <linearGradient id="id4" gradientUnits="userSpaceOnUse" xlink:href="#id3" x1="25.53" y1="33.39" x2="25.53" y2="3.36">
  </linearGradient>
  <radialGradient id="id5" gradientUnits="userSpaceOnUse" gradientTransform="matrix(1.26594 -0 -0 1.26595 -7 -5)" cx="25.36" cy="18.36" r="235.47" fx="25.36" fy="18.36">
   <stop offset="0" style="stop-opacity:1; stop-color:#FEFEFE"/>
   <stop offset="0.709804" style="stop-opacity:1; stop-color:#FEFEFE"/>
   <stop offset="1" style="stop-opacity:1; stop-color:#A0DCF5"/>
  </radialGradient>
 </defs>
 <g id="Capa_x0020_1">
  <metadata id="CorelCorpID_0Corel-Layer"/>
  <g id="_1951406270864">
   <path class="fil0" d="M45.48 41.09l-37.57 0c-3.33,0 -6.06,-2.73 -6.06,-6.06l0 -27.24c0,-3.33 2.73,-6.06 6.06,-6.06l37.57 0c3.33,0 6.06,2.73 6.06,6.06l0 27.24c0,3.33 -2.73,6.06 -6.06,6.06z"/>
   <polygon class="fil0" points="38.44,32.61 278.63,32.61 284.61,12.73 38.44,12.73 "/>
   <polygon class="fil1" points="40.31,23.46 273.06,23.46 279.09,4.85 40.31,4.85 "/>
   <polygon class="fil2" style="mask:url(#id0)" points="68.71,4.85 46.08,4.85 46.43,32.61 68.71,32.61 "/>
   <path class="fil1" d="M43.63 39.35l-37.57 0c-3.33,0 -6.06,-2.73 -6.06,-6.06l0 -27.24c0,-3.33 2.73,-6.06 6.06,-6.06l37.57 0c3.33,0 6.06,2.73 6.06,6.06l0 27.24c0,3.33 -2.73,6.06 -6.06,6.06z"/>
   <g>
    <path class="fil3" d="M25.36 3.36c8.29,0 15.02,6.72 15.02,15.02 0,8.29 -6.72,15.02 -15.02,15.02 -8.29,0 -15.02,-6.72 -15.02,-15.02 0,-8.29 6.72,-15.02 15.02,-15.02z"/>
    <path class="fil4" d="M25.36 3.97c7.96,0 14.41,6.45 14.41,14.41 0,7.96 -6.45,14.41 -14.41,14.41 -7.96,0 -14.41,-6.45 -14.41,-14.41 0,-7.96 6.45,-14.41 14.41,-14.41z"/>
    <path class="fil5" d="M25.36 7.55c5.98,0 10.83,4.85 10.83,10.83 0,5.98 -4.85,10.83 -10.83,10.83 -5.98,0 -10.83,-4.85 -10.83,-10.83 0,-5.98 4.85,-10.83 10.83,-10.83z"/>
    <path class="fil6" d="M25.36 7.96c5.68,0 10.29,4.66 10.29,10.4 0,5.74 -4.61,10.4 -10.29,10.4 -5.68,0 -10.29,-4.66 -10.29,-10.4 0,-5.74 4.61,-10.4 10.29,-10.4z"/>
    <path class="fil7" d="M24.43 10.11l-0.18 0.03c0,0 -0.11,-0.01 -0.22,0.06 -0.11,0.07 -0.19,0.07 -0.19,0.07l-0.3 -0.08 -0.08 -0.28 0 -0.18 0.8 -0.03 0.12 0.13 0.04 0.14 0.01 0.16z"/>
    <path class="fil7" d="M26.04 16.14l0 0 0 0 0 0 -0.23 -0.54 0.26 -0.2 -0.04 -0.22 0.38 0.01 -0.02 -0.35 0.17 -0.04 0.31 -0.04 0.36 0.04 0.27 -0.11 0.14 -0.13c0,0 0.06,-0.21 0,-0.19 -0.06,0.02 -0.09,0.03 -0.18,0.06 -0.08,0.03 -0.27,-0.07 -0.27,-0.07l-0.09 -0.29 0.27 -0.06 0.23 -0.19 0.22 -0.1c0,0 0.21,-0.07 0.22,-0.02 0.01,0.05 -0.07,0.15 -0.11,0.21 -0.04,0.06 -0.12,0.28 -0.05,0.31 0.06,0.03 0.08,0.11 0.16,0.11 0.07,0 0.39,0 0.39,0l0.04 -0.2 -0.07 -0.16 -0.16 -0.21c0,0 -0.03,-0.13 -0.03,-0.2 0,-0.07 0.04,-0.25 -0.03,-0.31 -0.07,-0.06 -0.1,-0.15 -0.23,-0.26 -0.13,-0.11 -0.21,-0.15 -0.26,-0.22 -0.05,-0.07 -0.07,-0.09 -0.13,-0.17 -0.05,-0.09 -0.2,-0.29 -0.2,-0.29 0,0 -0.52,-0.11 -0.5,-0.04 0.02,0.06 -0.2,-0.02 -0.2,-0.02l-0.06 -0.16 -0.21 -0.16c0,0 -0.04,-0.07 -0.21,-0.09 -0.17,-0.01 -0.51,-0.05 -0.51,0.05 0,0.11 0,0.1 0,0.24 0,0.14 0,-0.05 0.01,0.27 0.01,0.32 0.21,0 0.01,0.35 -0.2,0.35 -0.15,0.3 -0.2,0.35 -0.05,0.05 -0.06,0.2 -0.05,0.28 0.01,0.07 -0.13,0.18 -0.13,0.18l-0.29 0c0,0 0.07,-0.24 0.06,-0.3 -0.01,-0.06 0.05,-0.13 -0.04,-0.19 -0.09,-0.06 -0.14,-0.11 -0.21,-0.13 -0.07,-0.02 -0.14,-0.03 -0.21,-0.09 -0.07,-0.05 -0.05,-0.07 -0.15,-0.12 -0.09,-0.04 -0.07,-0.03 -0.13,-0.05 -0.05,-0.02 -0.24,-0.09 -0.24,-0.09 0,0 -0.13,-0.02 -0.21,-0.06 -0.08,-0.04 -0.19,-0.13 -0.19,-0.13 0,0 -0.11,-0.25 -0.11,-0.32 0,-0.07 0.01,-0.2 0.04,-0.26 0.03,-0.05 0.08,-0.15 0.11,-0.2 0.03,-0.05 0.44,-0.24 0.44,-0.24 0,0 0.23,-0.05 0.32,0.02 0.09,0.08 0.18,0.11 0.26,0.11 0.08,0 0.15,-0.04 0.2,-0.04 0.05,0 0.23,0 0.23,0 0,0 -0.01,-0.16 -0.08,-0.16 -0.07,0 -0.08,0.01 -0.21,-0.07 -0.12,-0.09 -0.22,-0.18 -0.22,-0.18 0,0 -0.1,-0.13 -0.03,-0.16 0.07,-0.03 0.35,-0.09 0.35,-0.09 0,0 0.08,0.03 0.12,-0.04 0.04,-0.07 0.07,-0.35 0.07,-0.35l-0.35 -0.03 -0.25 0.03 -0.12 0.1c0,0 -0.01,0.03 -0.17,0.01 -0.15,-0.01 -0.46,-0.07 -0.46,-0.07 0,0 -0.03,-0.03 -0.12,0.01 -0.1,0.04 -0.26,0.04 -0.26,0.04 0,0 -0.1,0 -0.25,0 -0.15,0 -0.44,0 -0.44,0l-0.22 0c0,0 -0.07,-0.09 -0.19,0 -0.12,0.08 -0.33,0.18 -0.33,0.18 0,0 -0.08,0.01 -0.17,0 -0.08,-0.01 -0.21,-0.13 -0.21,-0.13l-0.26 0 -0.26 -0.11 0.01 -0.37 -0.15 -0.27 -0.43 -0.2 -0.7 -0.03 0 0c-0.97,0.63 -1.84,1.41 -2.55,2.32l-0 0 0.71 0.04c0,0 0.24,0 0.38,0.12 0.14,0.12 0.36,0.22 0.36,0.22l0.12 0.46 0.1 0.04 0.44 0.42c0,0 0.15,0.28 0.15,0.38 0,0.11 -0.02,0.19 -0.02,0.19l0.42 0.8 -0 0.02 0.01 0c1.8,0.5 3.92,1.06 6.09,1.54z"/>
    <path class="fil7" d="M24.97 28.75c0.13,0.01 0.26,0.01 0.39,0.01 0.44,0 0.88,-0.03 1.31,-0.08l0 0c0.03,-0.06 0.22,-0.4 0.82,-0.33 0,0 0.5,-0.04 0.56,-0.34 0,0 0.25,-0.45 0.92,-0.15 0,0 0.59,0 0.96,-0.6l0.52 -0.9c0,0 0.25,-0.73 1.15,-0.88 0,0 1.2,-0.47 0.99,-1.68l-0 0c-2.21,-0.27 -4.99,-0.79 -8.48,-1.69 0,0 -0.07,-0.02 -0.19,-0.05l0 0 0.09 0.18 -0.06 0.43c0,0 -0.28,0.48 -0.18,0.81 -0,0.01 -0,0.01 -0,0.01l0 0.04c0,0.03 0.01,0.06 0.03,0.09 0.01,0.02 0.01,0.03 0.02,0.04 0.03,0.05 0.01,0.03 0.01,0.04 0,0.14 0.12,0.21 0.23,0.24 0.04,0.01 0.06,0.03 0.07,0.03l0.04 0.04c0.09,0.11 0.09,0.06 0.15,0.15 0.03,0.05 0.06,0.09 0.09,0.14l0.11 0.14c0.05,0.11 0.08,0.09 0.12,0.12 0,0 0.07,0.08 0.11,0.12 0.01,0.01 0.01,0.02 0.02,0.03 0,0.01 0,0.02 0.01,0.06 0.01,0.03 0.02,0.06 0.04,0.08 0.05,0.08 0.18,0.16 0.27,0.21 0.08,0.05 0.25,0.1 0.35,0.12 0.03,0.01 0.07,0.01 0.1,0.02l0.13 0.05c0.02,0.01 0.04,0.04 0.11,0.07 0.02,0.01 0.05,0.02 0.07,0.03 0.16,0.15 0.31,0.39 0.22,0.78 0,0 -0.42,2.12 -1.1,2.6l0.01 -0z"/>
    <path class="fil7" d="M25.91 10.98l0.09 -0.24 -0.1 -0.28 -0.33 -0.09 -0.17 -0.18 -0.17 -0.1 -0.14 -0.31 -0.25 -0.18 -0.31 -0.2 -0.26 -0.2 0.28 -0.13c0,0 0.1,0.03 0.28,0.06 0.18,0.03 0.53,0.06 0.53,0.06 0,0 -0.01,-0.06 0.1,0.13 0.11,0.18 0.46,0.34 0.46,0.34 0,0 0.42,0.14 0.53,0.18 0.11,0.04 0.43,0.21 0.43,0.21 0,0 0.24,0 0.11,0.06 -0.12,0.06 -0.24,0.2 -0.24,0.2 0,0 -0.1,0.17 -0.01,0.17 0.08,0 0.39,-0.01 0.39,-0.01l0.22 0.24 0.12 0.09c0,0 -0.1,0.21 -0.18,0.24 -0.08,0.03 -0.18,0.11 -0.18,0.11l-0.03 0.16 -0.07 0.14c0,0 0.03,-0.06 -0.04,0.07 -0.07,0.13 -0.07,0.04 -0.07,0.13 0,0.09 0.03,0.13 0.03,0.13l-0.43 -0.18 -0.26 -0.21 -0.32 -0.13 -0.46 -0.06 0.1 -0.24 0.37 0.03z"/>
    <path class="fil8" d="M24.93 22.81c-0.08,-0.02 -0.07,-0.06 -0.13,-0.09 -0.1,-0.05 -0.08,-0.01 -0.15,-0.01 0.02,0.01 0.06,0.04 0.07,0.06 0.02,0.04 -0.01,0.04 -0.01,0.08 -0.01,0.08 -0.03,0.11 -0.07,0.17 -0.04,0.06 -0.08,0.08 -0.15,0.12 -0.13,0.07 -0.06,0.11 -0.12,0.11 0,0.05 -0.01,0.08 -0.01,0.13 -0,0.08 0.01,0.02 -0.01,0.06l-0.01 0.03c-0.03,0.08 -0.07,0 -0.09,-0.02l-0.09 -0.02c-0.02,0.02 -0.01,0.02 -0.04,0.03 0,-0.04 0.01,-0.02 -0.02,-0.05l0.04 -0.04 -0.03 -0.06c-0.04,0.03 -0.1,0.11 -0.11,0.17 -0,0.03 0.05,0.11 0.06,0.12 0.02,0.02 0.01,0 0.04,0.04 -0.01,0.03 -0.02,0.02 -0.03,0.05 0.06,0.05 0.13,0.03 0.22,0.1 0.05,0.04 0.04,0.04 0.08,0.09 0.04,0.05 0.05,0.03 0.09,0.07 0.08,0.09 0.14,0.21 0.22,0.3 0.03,0.03 0.05,0.05 0.06,0.1 0.05,0.01 0.05,0 0.08,0.05 0.03,0.06 0.18,0.18 0.2,0.22 0.01,0.07 -0.02,0.04 -0,0.08 0.03,0.06 0.12,0.09 0.18,0.14 0.07,0.05 0.27,0.11 0.36,0.13 0.03,0.01 0.04,0.01 0.07,0.01 0.05,0.01 0.03,0.01 0.07,0.03 0.06,0.03 0.09,0.01 0.13,0.06 0.03,0.04 0.17,0.11 0.21,0.07 0.04,-0.05 0.03,-0.04 0.01,-0.1 0.03,-0.01 0.03,-0.02 0.04,-0.03 -0.01,-0.04 -0.01,-0.01 -0.03,-0.05 0.04,-0.03 0.04,-0.05 0.06,-0.08l0.02 -0.06c0,-0 0,-0.01 0,-0.01 -0.06,-0.02 -0.12,-0.03 -0.08,-0.15 -0.03,-0.03 -0.05,-0.03 -0.02,-0.09 0.06,-0.13 0.02,-0.04 -0,-0.15 -0,-0.01 -0,-0.03 -0.01,-0.06 -0.02,-0.1 -0,-0.04 0.02,-0.12 -0.03,-0.05 -0.1,-0.11 -0.13,-0.16 -0.08,-0.1 -0.07,0 -0.19,-0.01 -0.02,-0.06 -0.03,-0.21 -0.04,-0.22 -0.09,0.09 -0.02,0.09 -0.2,0.13 -0.01,-0.01 0,0.01 -0.02,-0.02l-0.03 -0.05 -0.12 0.01c0.02,-0.04 0.02,-0.02 0.02,-0.06l-0.13 -0.11c-0,-0 -0,-0 -0.01,-0.01l-0.06 -0.06c0.01,-0.06 0,-0.01 0.01,-0.03 0.03,-0.07 -0.05,-0.06 0.08,-0.14 -0.02,-0.07 -0.03,-0.03 -0.01,-0.1 0.01,-0.04 0.01,-0.07 0.01,-0.1 0.03,-0.03 0.04,-0.03 0.06,-0.06 0.05,-0.05 0.09,-0.07 0.15,-0.1 0.05,-0.02 0.03,-0.04 0.07,-0.05 0.05,-0.02 0.06,0 0.11,0.01 -0.03,-0.07 -0.06,-0.05 -0.12,-0.05 0.01,-0.07 0.05,-0.12 0.06,-0.19 -0.03,-0 -0.12,-0.03 -0.14,-0.03 -0.06,0.01 -0.01,0.05 -0.11,0.01 -0.04,0.02 -0.02,0.03 -0.06,0.05 -0.03,0.02 -0.03,0.01 -0.07,0.01 -0.1,0.02 -0.07,0.02 -0.09,-0.06l-0.04 -0.01c-0,-0 -0,-0.01 -0,-0.01l-0.01 -0.02c-0.01,-0.01 -0.01,-0.01 -0.02,-0.02 -0.01,-0.01 -0.03,-0.01 -0.05,-0.02z"/>
    <path class="fil7" d="M35.27 34.53c0,-0.15 0.02,-0.13 -0.15,-0.13 -0.06,0 -0.05,0.06 -0.04,0.12 0.02,0.11 -0.01,1.03 0,1.12 0.01,0.06 0.07,0.05 0.17,0.05 0.02,0 0.02,-0.01 0.03,-0.02 0,-0.23 0,-0.46 0,-0.7 -0,-0.12 0.02,-0.2 0.07,-0.27 0.08,-0.11 0.15,-0.13 0.27,-0.13 0.04,0 0.09,0.03 0.12,0.05 0.12,0.1 0.1,0.26 0.1,0.42l0 0.61c0.01,0.06 0.07,0.05 0.17,0.05 0.02,0 0.02,-0.01 0.03,-0.02 0,-0.23 0,-0.45 0,-0.68 0,-0.16 0.01,-0.28 0.14,-0.37 0.12,-0.08 0.32,-0.07 0.39,0.1 0.04,0.1 0.04,0.17 0.04,0.32l0 0.53c0,0.15 -0.01,0.13 0.17,0.13 0.02,0 0.03,-0.02 0.03,-0.03l0 -0.78c0,-0.18 -0.09,-0.38 -0.23,-0.45 -0.18,-0.09 -0.4,-0.06 -0.54,0.08 -0.03,0.03 -0.05,0.07 -0.07,0.08 -0.01,-0.03 -0.04,-0.06 -0.05,-0.08 -0.02,-0.03 -0.04,-0.04 -0.07,-0.06 -0.13,-0.09 -0.31,-0.09 -0.45,-0.02 -0.09,0.05 -0.09,0.08 -0.14,0.11zm-1.48 -0.45c0,0.22 0.27,0.19 0.27,0.01 0,-0.2 -0.27,-0.18 -0.27,-0.01zm4.37 1.45c0,0.06 -0.01,0.09 0.04,0.14 0.07,0.07 0.24,0.04 0.24,-0.12 0,-0.2 -0.28,-0.18 -0.28,-0.01zm-18.74 0.42c0,0.03 0.02,0.04 0.04,0.04l0.04 0c0.02,-0 0.04,-0.01 0.06,-0.01 0.04,-0.01 0.04,-0.03 0.05,-0.06 0.03,-0.07 0.18,-0.45 0.18,-0.53 0,-0.02 -0,-0.02 -0.01,-0.03 -0.07,-0.02 -0.21,0.02 -0.22,0.03 -0.01,0.01 -0.03,0.15 -0.04,0.19 -0.01,0.06 -0.03,0.13 -0.05,0.19l-0.05 0.18zm6.36 0.03c0.04,0.01 0.09,0.01 0.13,-0 0.04,-0.01 0.04,-0.04 0.06,-0.07 0.04,-0.11 0.1,-0.26 0.14,-0.37 0.05,-0.18 0.08,-0.2 -0.1,-0.17 -0.13,0.02 -0.08,0 -0.14,0.23l-0.08 0.29c-0.01,0.04 -0.03,0.05 -0.01,0.09zm-8.58 -1.95c-0.08,0 -0.12,-0.09 -0.28,-0.09 -0.12,0 -0.16,0.13 -0.17,0.23 -0.01,0.08 0.05,0.07 0.1,0.07 0.07,0 0.06,-0.04 0.07,-0.07 0.01,-0.02 0.01,-0.02 0.01,-0.04 0.08,0 0.28,0.2 0.41,0.03 0.04,-0.05 0.06,-0.14 0.04,-0.21 -0.04,-0.02 -0.05,-0.01 -0.09,-0.01 -0.1,0 -0.04,0.11 -0.09,0.11zm16.63 0.41l0 1.18c0,0.07 0.07,0.05 0.17,0.05 0.02,0 0.03,-0.02 0.03,-0.03l0 -1.22c0,-0.05 -0.09,-0.03 -0.16,-0.03 -0.02,0 -0.04,0.03 -0.04,0.05zm-14.61 0.07c0,-0.04 -0.01,-0.06 -0.01,-0.11 -0.05,-0.03 -0.03,-0.02 -0.15,-0.02 -0.05,0 -0.03,0.08 -0.03,0.12 -0,0.07 0.01,0.11 0.01,0.17l-0 0.87c0,0.14 -0.02,0.13 0.15,0.13 0.06,0 0.05,-0.08 0.05,-0.14l0 -0.56c-0,-0.12 0.03,-0.22 0.08,-0.29 0.13,-0.19 0.3,-0.06 0.3,-0.15 0,-0.16 0.02,-0.17 -0.11,-0.17 -0.07,0 -0.12,0.03 -0.17,0.05 -0.03,0.01 -0.04,0.03 -0.06,0.05 -0.03,0.02 -0.03,0.04 -0.06,0.06zm13.98 -0.29l0 0.17c-0.23,0 -0.2,-0.02 -0.2,0.14 0,0.06 0.14,0.04 0.2,0.04l0 0.67c0,0.14 0.01,0.22 0.06,0.32 0.02,0.04 0.05,0.07 0.09,0.1 0.09,0.06 0.23,0.06 0.33,0.03 0.04,-0.01 0.06,-0.03 0.06,-0.08 -0.03,-0.16 -0.01,-0.09 -0.21,-0.09 -0.08,0 -0.11,-0.09 -0.11,-0.17l0 -0.77 0.29 0c0.07,0 0.05,-0.07 0.05,-0.13 0,-0.03 -0.02,-0.05 -0.05,-0.05l-0.29 0 0 -0.21c0,-0.08 -0.08,-0.04 -0.11,-0.03 -0.04,0.02 -0.1,0.02 -0.1,0.08zm1 0.51c0,0.3 0.35,0.34 0.5,0.46 0.11,0.09 0.06,0.32 -0.14,0.32 -0.09,0 -0.11,0.01 -0.2,-0.03 -0.11,-0.04 -0.12,-0.09 -0.16,0.01 -0.04,0.1 -0.07,0.11 0.1,0.17 0.19,0.07 0.46,0.04 0.58,-0.11 0.16,-0.2 0.1,-0.49 -0.21,-0.61 -0.03,-0.01 -0.05,-0.02 -0.08,-0.04 -0.09,-0.04 -0.18,-0.08 -0.18,-0.2 0,-0.04 0.03,-0.1 0.06,-0.12 0.15,-0.11 0.36,0.03 0.38,0.03 0.03,0 0.05,-0.06 0.06,-0.09 0.02,-0.05 0.03,-0.06 -0.02,-0.09 -0.09,-0.06 -0.19,-0.07 -0.3,-0.07 -0.21,0 -0.39,0.16 -0.39,0.37zm-9.89 -0.42l0 0.08c-0.19,0 -0.17,-0.02 -0.17,0.14 0,0.06 0.12,0.04 0.17,0.04l0 1.07c0,0.05 0.09,0.03 0.15,0.03 0.03,0 0.05,-0.02 0.05,-0.05l0 -1.05 0.27 0c0.07,0 0.05,-0.07 0.05,-0.13 0,-0.03 -0.02,-0.05 -0.05,-0.05l-0.27 0c0,-0.21 0.03,-0.49 0.31,-0.41 0.09,0.02 0.09,0.05 0.13,-0.05 0.02,-0.06 0.06,-0.09 -0.06,-0.13 -0.03,-0.01 -0.06,-0.01 -0.09,-0.02l-0.08 0c-0.12,0.01 -0.23,0.07 -0.3,0.16 -0.06,0.09 -0.11,0.21 -0.11,0.36zm7.61 0.13l0 0.66c0,0.17 0.03,0.31 0.09,0.41 0.17,0.25 0.52,0.23 0.69,0.07 0.01,-0.01 0.03,-0.04 0.04,-0.03 0.03,0.03 -0.03,0.13 0.05,0.13 0.16,0 0.15,0.01 0.14,-0.11 -0,-0.06 0,-0.11 -0.01,-0.16 -0.01,-0.06 -0,-0.89 -0,-0.99 -0.05,-0.03 -0.03,-0.02 -0.16,-0.02 -0.02,0 -0.04,0.03 -0.04,0.05l-0 0.65c0,0.19 -0.01,0.28 -0.18,0.38 -0.05,0.03 -0.11,0.04 -0.17,0.04 -0.21,0 -0.27,-0.2 -0.27,-0.41 0,-0.23 0,-0.46 0,-0.69 -0.05,-0.03 -0.06,-0.02 -0.15,-0.02 -0.03,0 -0.05,0.02 -0.05,0.05zm-5.24 -0.02l0 0.75c0,0.27 0.15,0.53 0.43,0.53 0.1,0 0.16,-0.01 0.25,-0.05 0.1,-0.05 0.11,-0.08 0.15,-0.11 0,0.16 -0,0.13 0.16,0.13 0.02,0 0.02,-0.01 0.03,-0.02 0,-0.11 -0.01,-0.21 -0.01,-0.32l0 -0.82c0,-0.13 0.01,-0.12 -0.15,-0.12 -0.02,0 -0.03,0.01 -0.05,0.02 0,0.15 0.01,0.77 -0.02,0.87 -0.04,0.11 -0.17,0.23 -0.31,0.23 -0.12,0 -0.2,-0.04 -0.25,-0.14 -0.06,-0.15 -0.04,-0.48 -0.04,-0.67 0,-0.06 0,-0.12 0,-0.18 0,-0.15 0.02,-0.13 -0.15,-0.13 -0.02,0 -0.05,0.01 -0.05,0.03zm-13.81 0.1c0,-0.04 -0.01,-0.06 -0.01,-0.11 -0.05,-0.03 -0.06,-0.02 -0.15,-0.02 -0.06,0 -0.03,0.1 -0.03,0.11 0,0.06 0.01,0.1 0.01,0.16l0 0.99c0.05,0.03 0.03,0.02 0.15,0.02 0.06,0 0.05,-0.07 0.05,-0.13 0,-0.13 -0.01,-0.66 0.01,-0.73 0.04,-0.14 0.16,-0.26 0.3,-0.26 0.12,0 0.21,0.01 0.27,0.13 0.04,0.08 0.05,0.17 0.05,0.29 0,0.23 0,0.45 0,0.68 0.05,0.03 0.03,0.02 0.15,0.02 0.03,0 0.05,-0.02 0.05,-0.05l0 -0.7c0,-0.22 -0.06,-0.4 -0.25,-0.51 -0.17,-0.1 -0.42,-0.05 -0.56,0.08 -0.01,0.01 -0.02,0.02 -0.04,0.03zm7.46 -0.08l0 0.65c0,0.17 0.03,0.32 0.09,0.42 0.01,0.01 0.01,0.02 0.03,0.03 0.05,0.05 0.01,0.02 0.06,0.06 0.16,0.13 0.41,0.11 0.58,-0.01 0.03,-0.02 0.04,-0.05 0.07,-0.06 0,0.15 -0.02,0.13 0.15,0.13 0.06,0 0.05,-0.06 0.04,-0.11l-0.01 -0.49c0,-0.22 0,-0.44 0,-0.66 -0.05,-0.03 -0.03,-0.02 -0.16,-0.02 -0.05,0 -0.04,0.09 -0.04,0.14l0 0.56c0,0.17 -0.01,0.29 -0.17,0.38 -0.12,0.07 -0.31,0.06 -0.39,-0.08 -0.04,-0.07 -0.05,-0.2 -0.05,-0.29 0,-0.23 0,-0.46 0,-0.69 -0.05,-0.03 -0.03,-0.02 -0.16,-0.02 -0.02,0 -0.04,0.03 -0.04,0.05zm-3.58 0.08c0,-0.03 -0,-0.06 -0.01,-0.08 -0.01,-0.07 -0.02,-0.05 -0.16,-0.05 -0.05,0 -0.03,0.09 -0.03,0.12 -0,0.06 0.01,0.1 0.01,0.17l0 0.87c0,0.14 -0.02,0.13 0.15,0.13 0.06,0 0.05,-0.07 0.05,-0.13l0 -0.56c0,-0.17 0.02,-0.3 0.17,-0.39 0.13,-0.08 0.33,-0.07 0.42,0.09 0.07,0.13 0.05,0.49 0.05,0.67 0,0.06 0,0.12 0,0.18 0,0.15 -0.02,0.13 0.15,0.13 0.03,0 0.05,-0.02 0.05,-0.05l0 -0.72c0,-0.16 -0.04,-0.28 -0.11,-0.38 -0.16,-0.22 -0.51,-0.21 -0.7,-0.04 -0.01,0.01 -0.02,0.02 -0.04,0.03zm5.02 0c0,-0.16 -0.02,-0.13 -0.15,-0.13 -0.03,0 -0.04,0.01 -0.05,0.04l0.01 0.23c0,0.11 -0,0.22 -0,0.33 0,0.22 0,0.44 0,0.66 0.05,0.03 0.03,0.02 0.15,0.02 0.02,0 0.02,-0 0.03,-0.01 0.03,-0.06 0.01,-0.25 0.01,-0.34 0,-0.12 0,-0.24 0,-0.36 0,-0.15 0.01,-0.2 0.07,-0.29 0.12,-0.16 0.4,-0.18 0.5,0 0.04,0.08 0.05,0.18 0.05,0.29 -0,0.23 0,0.45 0,0.68 0.05,0.03 0.03,0.02 0.15,0.02 0.03,0 0.05,-0.02 0.05,-0.05 0,-0.18 0.02,-0.76 -0.02,-0.91 -0.11,-0.42 -0.57,-0.43 -0.78,-0.22 -0.01,0.01 -0.02,0.02 -0.04,0.03zm6.35 0c0,-0.16 0,-0.13 -0.16,-0.13 -0.02,0 -0.02,0.01 -0.03,0.02 0,0.11 0.01,0.21 0.01,0.32l0 0.82c0,0.14 -0.02,0.12 0.17,0.12 0.02,0 0.02,-0.01 0.03,-0.02 0,-0.23 0,-0.47 0,-0.7 0,-0.15 0.03,-0.27 0.17,-0.36 0.14,-0.08 0.34,-0.06 0.41,0.1 0.04,0.1 0.04,0.18 0.04,0.31l0 0.53c0,0.15 -0.02,0.13 0.15,0.13 0.03,0 0.05,-0.02 0.05,-0.05l0 -0.74c0,-0.15 -0.05,-0.27 -0.11,-0.36 -0.15,-0.2 -0.48,-0.21 -0.66,-0.06 -0.02,0.02 -0.05,0.05 -0.07,0.06zm-13.79 -0.21c0,0.14 0.03,0.24 0.12,0.34 0.23,0.24 0.66,0.19 0.66,0.55 0,0.19 -0.14,0.31 -0.32,0.31 -0.12,0 -0.23,-0.01 -0.34,-0.07 -0.07,-0.04 -0.1,-0.07 -0.13,0.02 -0.03,0.08 -0.07,0.09 0.04,0.15 0.36,0.19 0.95,0.08 0.95,-0.42 0,-0.24 -0.14,-0.38 -0.33,-0.47 -0.12,-0.06 -0.3,-0.11 -0.39,-0.21 -0.13,-0.15 -0.05,-0.44 0.22,-0.44 0.11,0 0.19,-0 0.29,0.06 0.07,0.04 0.08,0.03 0.13,-0.09 0.02,-0.04 -0,-0.06 -0.04,-0.08 -0.21,-0.11 -0.51,-0.1 -0.7,0.05 -0.08,0.06 -0.17,0.19 -0.17,0.32zm16.88 1.2c-0.23,0 -0.29,-0.31 -0.05,-0.43 0.11,-0.05 0.25,-0.06 0.38,-0.06l0 0.19c0,0.17 -0.15,0.29 -0.33,0.29zm-0.32 -1.02c0,0.02 0.03,0.09 0.04,0.11 0.05,0.09 0.09,-0.07 0.33,-0.07 0.14,0 0.22,0.05 0.26,0.17 0.01,0.03 0.02,0.1 0.02,0.13 -0.02,0.01 -0.18,0.01 -0.27,0.03 -0.23,0.05 -0.46,0.17 -0.46,0.46 0,0.21 0.17,0.37 0.37,0.37 0.1,0 0.15,-0.01 0.24,-0.05 0.08,-0.03 0.1,-0.07 0.14,-0.09 0,0.14 0.02,0.11 0.16,0.11 0.02,0 0.02,-0.01 0.03,-0.02 0,-0.07 -0.01,-0.13 -0.01,-0.2 0,-0.18 0.01,-0.5 -0.01,-0.65 -0.01,-0.14 -0.04,-0.24 -0.12,-0.32 -0.04,-0.04 -0.07,-0.07 -0.12,-0.09 -0.14,-0.06 -0.3,-0.04 -0.44,0 -0.03,0.01 -0.15,0.06 -0.15,0.1zm-7.76 1.02c-0.22,0 -0.24,-0.24 -0.16,-0.35 0.09,-0.12 0.32,-0.14 0.48,-0.14 0,0.18 0.03,0.31 -0.11,0.42 -0.05,0.04 -0.13,0.07 -0.21,0.07zm-0.32 -1.02c0,0.01 0.03,0.1 0.04,0.11 0.05,0.08 0.09,-0.07 0.34,-0.07 0.08,0 0.16,0.03 0.19,0.07 0.05,0.06 0.07,0.13 0.07,0.22 0,0.04 -0.06,0.01 -0.13,0.02 -0.04,0 -0.09,0.01 -0.13,0.02 -0.16,0.03 -0.3,0.08 -0.39,0.21 -0.09,0.11 -0.11,0.29 -0.04,0.41 0.06,0.12 0.18,0.21 0.33,0.21 0.1,0 0.16,-0 0.25,-0.05 0.08,-0.04 0.12,-0.09 0.14,-0.09 0,0.14 0.01,0.11 0.16,0.11 0.02,0 0.02,-0.01 0.03,-0.02 0,-0.07 -0.01,-0.12 -0.01,-0.2l0 -0.54c0,-0.09 -0.01,-0.21 -0.04,-0.29 -0.05,-0.16 -0.2,-0.27 -0.39,-0.27 -0.12,0 -0.15,0 -0.27,0.04 -0.04,0.01 -0.15,0.06 -0.15,0.1zm14.74 1.02c-0.23,0 -0.39,-0.23 -0.39,-0.43 0,-0.15 0.01,-0.28 0.11,-0.4 0.16,-0.21 0.54,-0.21 0.66,0.15 0.11,0.31 -0.07,0.68 -0.38,0.68zm-0.6 -0.48c0,0.25 0.1,0.48 0.32,0.6 0.16,0.09 0.39,0.08 0.55,0 0.2,-0.1 0.34,-0.32 0.34,-0.58 0,-0.16 -0.01,-0.28 -0.1,-0.42 -0.04,-0.07 -0.08,-0.11 -0.14,-0.16 -0.04,-0.03 -0.05,-0.04 -0.1,-0.06 -0.17,-0.09 -0.38,-0.07 -0.54,0.01 -0.22,0.11 -0.33,0.36 -0.33,0.61zm-19.04 0c0,-0.53 0.5,-0.61 0.69,-0.35 0.24,0.32 0.07,0.83 -0.29,0.83 -0.24,0 -0.4,-0.23 -0.4,-0.48zm-0.2 -0.03l0 0.08c0,0.32 0.25,0.62 0.56,0.62 0.12,0 0.2,-0.01 0.31,-0.07 0.4,-0.21 0.43,-0.77 0.19,-1.07 -0.04,-0.05 -0.11,-0.1 -0.17,-0.14 -0.35,-0.19 -0.89,0.04 -0.89,0.58zm7.57 -0.46l0.03 0c0.18,0 0.29,0.16 0.29,0.34l-0.67 0 0.04 -0.13c0.01,-0.03 0.04,-0.08 0.07,-0.11 0.05,-0.06 0.12,-0.11 0.23,-0.11zm-0.55 0.51c0,0.2 0.06,0.34 0.15,0.46 0.09,0.11 0.27,0.19 0.42,0.19 0.11,0 0.18,-0 0.28,-0.03 0.22,-0.06 0.17,-0.09 0.15,-0.17 -0.04,-0.14 -0.05,0.01 -0.4,0.01 -0.26,0 -0.4,-0.21 -0.4,-0.45l0.86 0c0.05,0 0.03,-0.1 0.03,-0.15 0,-0.19 -0.08,-0.34 -0.2,-0.44 -0.09,-0.08 -0.21,-0.1 -0.34,-0.1 -0.25,0 -0.44,0.19 -0.51,0.42 -0.02,0.07 -0.04,0.18 -0.04,0.27zm-8.82 -0.51c0.11,0 0.19,0.02 0.25,0.1 0.04,0.05 0.08,0.15 0.08,0.24l-0.66 0c0,-0.13 0.13,-0.34 0.33,-0.34zm-0.56 0.51c0,0.35 0.23,0.64 0.58,0.64 0.15,0 0.24,-0 0.38,-0.06 0.09,-0.03 0.07,-0.04 0.05,-0.13 -0.03,-0.09 -0.05,-0.06 -0.11,-0.04 -0.03,0.01 -0.04,0.02 -0.07,0.02 -0.17,0.04 -0.38,0.04 -0.51,-0.1 -0.07,-0.08 -0.11,-0.2 -0.11,-0.33l0.85 0c0.08,0 0.04,-0.35 -0.08,-0.51 -0.1,-0.13 -0.22,-0.18 -0.41,-0.18 -0.19,0 -0.33,0.1 -0.42,0.21 -0.1,0.12 -0.15,0.32 -0.15,0.49zm-4.13 -1.11l0 1.08c0,0.36 0.2,0.68 0.57,0.68 0.11,0 0.19,-0 0.29,-0.05 0.33,-0.14 0.38,-0.45 0.38,-0.82l0 -0.87c0,-0.08 -0.05,-0.07 -0.15,-0.07 -0.08,0 -0.05,0.09 -0.05,0.2l0 0.78c0,0.2 -0,0.31 -0.07,0.44 -0.05,0.1 -0.17,0.19 -0.32,0.19 -0.11,0 -0.17,0 -0.26,-0.06 -0.17,-0.12 -0.18,-0.38 -0.18,-0.58l0 -0.89c0,-0.09 -0.04,-0.07 -0.15,-0.07 -0.03,0 -0.05,0.02 -0.05,0.05zm18.96 1.57c-0.2,0 -0.37,-0.15 -0.37,-0.35l0 -0.24c0,-0.19 0.16,-0.38 0.38,-0.38 0.5,0 0.51,0.98 -0.01,0.98zm-0.54 0.15c0.17,0 0.15,0.01 0.15,-0.14 0.04,0.02 0.06,0.07 0.15,0.12 0.35,0.17 0.82,-0.08 0.82,-0.58 0,-0.13 0,-0.21 -0.05,-0.33 -0.03,-0.07 -0.06,-0.12 -0.1,-0.18 -0.05,-0.06 -0.09,-0.09 -0.15,-0.13 -0.16,-0.1 -0.42,-0.08 -0.58,0.04l-0.07 0.06 0 -0.56c0,-0.16 0.02,-0.15 -0.17,-0.15 -0.05,0 -0.03,0.15 -0.03,0.21 0,0.19 0.01,1.4 -0,1.46l-0.01 0.17c0,0.01 0.02,0.03 0.04,0.03z"/>
    <path class="fil9" d="M13.93 11.97l1.23 0.72 0.16 -0.28 -1.23 -0.72 -0.16 0.28zm1.47 -1.14l-0.31 0.43 0.21 0.15 0.13 -0.18 0.24 0.17c-0,0.03 -0.03,0.08 -0.07,0.14 -0.15,0.22 -0.4,0.27 -0.64,0.1 -0.25,-0.18 -0.26,-0.43 -0.1,-0.65 0.09,-0.13 0.17,-0.19 0.24,-0.24l-0.17 -0.2c-0.07,0.04 -0.18,0.13 -0.29,0.28 -0.27,0.38 -0.25,0.82 0.14,1.1 0.17,0.12 0.36,0.17 0.54,0.14 0.18,-0.03 0.34,-0.15 0.49,-0.36 0.11,-0.15 0.18,-0.33 0.21,-0.44l-0.61 -0.43zm0.71 0.4l0.58 -0.68 -0.21 -0.18 -0.37 0.43 -0.88 -0.75 -0.21 0.25 1.08 0.93zm0.59 -1.93l-0.37 0.38 -0.21 -0.21 0.39 -0.4 -0.19 -0.18 -0.61 0.63 1.02 0.99 0.63 -0.65 -0.19 -0.18 -0.41 0.42 -0.24 -0.24 0.37 -0.38 -0.19 -0.18zm0.64 0.51c0.09,-0.02 0.24,-0.09 0.36,-0.2 0.29,-0.26 0.3,-0.53 0.14,-0.71 -0.13,-0.15 -0.31,-0.17 -0.56,-0.07 -0.18,0.07 -0.27,0.09 -0.33,0.02 -0.05,-0.06 -0.04,-0.15 0.06,-0.24 0.1,-0.09 0.21,-0.13 0.27,-0.15l-0.12 -0.24c-0.09,0.03 -0.2,0.08 -0.32,0.19 -0.25,0.22 -0.28,0.5 -0.12,0.68 0.14,0.16 0.34,0.15 0.57,0.06 0.17,-0.07 0.25,-0.07 0.31,-0.01 0.06,0.07 0.04,0.17 -0.07,0.27 -0.1,0.09 -0.23,0.15 -0.33,0.17l0.13 0.24zm-0.05 -1.76l0.88 1.12 0.26 -0.2 -0.88 -1.12 -0.26 0.2zm1.66 0.13l0.29 0.25 0.29 -0.19 -1.14 -0.97 -0.36 0.23 0.4 1.44 0.28 -0.18 -0.11 -0.36 0.34 -0.22zm-0.43 -0.01l-0.09 -0.3c-0.02,-0.08 -0.06,-0.18 -0.09,-0.27l0 -0c0.06,0.06 0.14,0.14 0.21,0.19l0.24 0.21 -0.27 0.17zm2.02 -1.4l-0.48 0.22 -0.12 -0.27 0.51 -0.23 -0.11 -0.24 -0.8 0.36 0.59 1.3 0.83 -0.37 -0.11 -0.24 -0.53 0.24 -0.14 -0.31 0.48 -0.22 -0.11 -0.24zm1.15 0.5l-0 -1.51 -0.32 0.11 0.02 0.64c0.01,0.17 0.02,0.34 0.04,0.52l-0.01 0c-0.09,-0.16 -0.18,-0.3 -0.28,-0.44l-0.36 -0.52 -0.33 0.11 0.89 1.2 0.36 -0.12zm0.99 -0.66l0.19 0.33 0.34 -0.08 -0.75 -1.29 -0.41 0.09 -0.11 1.49 0.33 -0.07 0.02 -0.38 0.4 -0.09zm-0.41 -0.16l0.02 -0.31c0,-0.09 0,-0.2 0,-0.28l0 -0c0.04,0.08 0.09,0.18 0.13,0.25l0.15 0.28 -0.31 0.07zm1.26 0.35l-0.06 -0.43c-0.03,-0.23 -0.06,-0.43 -0.1,-0.61l0.01 -0c0.09,0.16 0.21,0.33 0.31,0.46l0.38 0.5 0.34 -0.05 -0.2 -1.41 -0.29 0.04 0.06 0.41c0.03,0.21 0.06,0.4 0.11,0.59l-0.01 0c-0.08,-0.15 -0.19,-0.32 -0.3,-0.45l-0.37 -0.48 -0.37 0.05 0.2 1.41 0.29 -0.04zm2.2 -0.96l-0.53 0.01 0 0.25 0.22 -0 0 0.3c-0.03,0.01 -0.08,0.02 -0.16,0.02 -0.26,0 -0.45,-0.17 -0.46,-0.46 -0,-0.31 0.2,-0.46 0.47,-0.47 0.16,-0 0.25,0.02 0.33,0.06l0.06 -0.26c-0.07,-0.03 -0.21,-0.07 -0.4,-0.06 -0.47,0.01 -0.81,0.28 -0.81,0.76 0,0.21 0.08,0.39 0.21,0.52 0.13,0.13 0.32,0.19 0.58,0.18 0.19,-0 0.38,-0.05 0.48,-0.09l-0.01 -0.75zm1.02 0.03l-0.52 -0.04 0.02 -0.3 0.56 0.04 0.02 -0.26 -0.88 -0.07 -0.11 1.42 0.91 0.07 0.02 -0.26 -0.58 -0.04 0.03 -0.34 0.52 0.04 0.02 -0.26zm-0.31 -0.92l-0.2 0.25 0.26 0.02 0.28 -0.24 -0.34 -0.03zm0.37 1.78l0.88 0.15 0.05 -0.27 -0.56 -0.09 0.19 -1.14 -0.32 -0.05 -0.24 1.41zm1.22 -1.24l-0.32 1.39 0.32 0.07 0.32 -1.39 -0.32 -0.07zm1.18 1.51c-0.07,0.01 -0.18,-0.01 -0.27,-0.04 -0.28,-0.09 -0.38,-0.31 -0.3,-0.58 0.09,-0.3 0.33,-0.39 0.57,-0.32 0.11,0.03 0.19,0.09 0.24,0.13l0.14 -0.23c-0.05,-0.05 -0.16,-0.12 -0.32,-0.16 -0.41,-0.13 -0.82,0.03 -0.97,0.49 -0.12,0.39 0.03,0.76 0.5,0.9 0.17,0.05 0.3,0.06 0.37,0.05l0.03 -0.26zm0.87 0.23l-0.03 0.38 0.32 0.12 0.09 -1.49 -0.4 -0.15 -0.92 1.18 0.31 0.12 0.23 -0.31 0.38 0.15zm-0.25 -0.35l0.19 -0.25c0.05,-0.07 0.11,-0.16 0.16,-0.23l0 0c-0.01,0.09 -0.02,0.19 -0.03,0.28l-0.02 0.31 -0.29 -0.11zm1.95 1.23l-0.09 0.37 0.3 0.17 0.33 -1.46 -0.37 -0.21 -1.09 1.01 0.29 0.17 0.27 -0.27 0.35 0.21zm-0.19 -0.39l0.23 -0.22c0.06,-0.06 0.13,-0.14 0.2,-0.2l0 0c-0.02,0.08 -0.06,0.19 -0.08,0.27l-0.08 0.31 -0.27 -0.16zm0.43 0.98l0.26 0.18 0.29 -0.42c0.02,0.02 0.05,0.04 0.09,0.07 0.16,0.11 0.32,0.16 0.47,0.14 0.12,-0.02 0.22,-0.09 0.3,-0.2 0.08,-0.11 0.1,-0.25 0.06,-0.36 -0.04,-0.12 -0.13,-0.23 -0.29,-0.34 -0.16,-0.11 -0.28,-0.18 -0.38,-0.22l-0.8 1.16zm0.93 -0.79c0.02,0.01 0.06,0.03 0.12,0.07 0.13,0.09 0.16,0.21 0.09,0.32 -0.08,0.12 -0.22,0.13 -0.36,0.03 -0.04,-0.03 -0.07,-0.05 -0.08,-0.07l0.24 -0.35zm1.4 0.82c-0.3,-0.29 -0.72,-0.25 -1.02,0.05 -0.28,0.29 -0.33,0.69 -0.02,0.99 0.3,0.29 0.7,0.28 1.03,-0.05 0.27,-0.28 0.33,-0.68 0.02,-0.99zm-0.18 0.18c0.16,0.15 0.09,0.4 -0.08,0.58 -0.19,0.2 -0.43,0.26 -0.58,0.11 -0.16,-0.15 -0.11,-0.38 0.08,-0.58 0.19,-0.2 0.43,-0.26 0.59,-0.11zm-0.29 1.28c0.02,0.09 0.09,0.24 0.2,0.36 0.26,0.29 0.53,0.3 0.71,0.14 0.15,-0.13 0.17,-0.31 0.07,-0.56 -0.07,-0.18 -0.09,-0.27 -0.02,-0.33 0.06,-0.05 0.15,-0.04 0.24,0.06 0.09,0.1 0.13,0.21 0.15,0.27l0.24 -0.12c-0.03,-0.09 -0.08,-0.2 -0.19,-0.32 -0.22,-0.25 -0.5,-0.28 -0.68,-0.12 -0.16,0.14 -0.15,0.34 -0.06,0.57 0.07,0.17 0.07,0.25 0.01,0.31 -0.07,0.06 -0.17,0.04 -0.27,-0.07 -0.09,-0.1 -0.15,-0.23 -0.17,-0.33l-0.24 0.13zm0.83 1.07l0.2 0.26 0.91 -0.71 0.24 0.31 0.21 -0.17 -0.68 -0.86 -0.21 0.17 0.24 0.3 -0.91 0.71zm1.97 0.33c-0.22,-0.36 -0.63,-0.43 -1,-0.21 -0.35,0.21 -0.5,0.58 -0.28,0.95 0.21,0.36 0.6,0.46 1,0.22 0.34,-0.2 0.5,-0.58 0.27,-0.95zm-0.22 0.12c0.11,0.19 -0.01,0.41 -0.23,0.54 -0.24,0.14 -0.48,0.14 -0.59,-0.05 -0.11,-0.19 -0.01,-0.4 0.23,-0.54 0.24,-0.14 0.48,-0.14 0.59,0.05zm0.51 -0.27l-0.31 -0.02 0.13 0.22 0.36 0.09 -0.17 -0.29zm-1.15 1.52l0.37 0.81 0.25 -0.11 -0.24 -0.52 1.05 -0.48 -0.14 -0.29 -1.3 0.6zm1.72 0.31l-1.33 0.52 0.12 0.3 1.33 -0.52 -0.12 -0.3zm-0.57 1.8c-0.04,-0.05 -0.1,-0.15 -0.13,-0.24 -0.09,-0.27 0.03,-0.49 0.3,-0.58 0.3,-0.1 0.51,0.04 0.59,0.28 0.04,0.11 0.04,0.2 0.04,0.27l0.26 -0.02c0.01,-0.06 0,-0.19 -0.05,-0.35 -0.14,-0.41 -0.5,-0.65 -0.97,-0.5 -0.39,0.13 -0.6,0.47 -0.44,0.93 0.06,0.16 0.13,0.28 0.17,0.33l0.22 -0.13zm0.27 0.88l-0.34 0.18 0.07 0.34 1.3 -0.73 -0.09 -0.41 -1.49 -0.13 0.07 0.33 0.38 0.02 0.09 0.4zm0.16 -0.4l0.31 0.02c0.09,0.01 0.2,0 0.28,0.01l0 0c-0.08,0.04 -0.18,0.09 -0.25,0.13l-0.28 0.15 -0.07 -0.31z"/>
    <path class="fil9" d="M15.77 27.36c0.05,0.06 0.13,0.15 0.25,0.27 0.2,0.19 0.41,0.31 0.6,0.32 0.18,0.01 0.38,-0.06 0.57,-0.26 0.17,-0.18 0.23,-0.37 0.2,-0.56 -0.03,-0.17 -0.12,-0.33 -0.32,-0.51 -0.12,-0.11 -0.24,-0.21 -0.34,-0.28l-0.97 1.02zm1.04 -0.63c0.02,0.01 0.06,0.04 0.11,0.09 0.2,0.19 0.22,0.42 0.01,0.64 -0.23,0.25 -0.48,0.23 -0.69,0.03 -0.03,-0.03 -0.06,-0.06 -0.08,-0.08l0.64 -0.68zm1.24 1.49l-0.41 -0.33 0.19 -0.23 0.43 0.35 0.17 -0.21 -0.69 -0.55 -0.89 1.11 0.71 0.57 0.17 -0.21 -0.46 -0.37 0.21 -0.26 0.41 0.33 0.16 -0.2zm-0.32 0.87l0.75 0.48 0.15 -0.23 -0.48 -0.3 0.62 -0.98 -0.27 -0.17 -0.77 1.2zm1.59 0.95l0.2 -0.38c0.11,-0.21 0.2,-0.39 0.27,-0.56l0.01 0c-0.02,0.18 -0.02,0.39 -0.01,0.56l0.02 0.63 0.3 0.16 0.66 -1.27 -0.26 -0.14 -0.19 0.37c-0.1,0.19 -0.18,0.36 -0.25,0.54l-0.01 -0c0.02,-0.17 0.02,-0.37 0.02,-0.54l-0.02 -0.6 -0.33 -0.17 -0.66 1.27 0.26 0.14zm2.1 -0.65c-0.4,-0.14 -0.76,0.08 -0.9,0.49 -0.13,0.38 0,0.77 0.4,0.9 0.4,0.13 0.75,-0.04 0.9,-0.49 0.13,-0.37 0.01,-0.76 -0.41,-0.9zm-0.09 0.24c0.21,0.07 0.26,0.32 0.17,0.56 -0.09,0.26 -0.27,0.42 -0.48,0.35 -0.2,-0.07 -0.27,-0.3 -0.18,-0.56 0.09,-0.26 0.28,-0.42 0.48,-0.35zm1.66 1.7l0.31 0.07 0.24 -1.41 -0.41 -0.09 -0.25 0.43c-0.08,0.14 -0.17,0.32 -0.25,0.47l-0.01 -0c0.01,-0.17 0,-0.35 -0,-0.52l-0.03 -0.5 -0.42 -0.1 -0.41 1.37 0.29 0.07 0.15 -0.52c0.05,-0.17 0.11,-0.38 0.16,-0.57l0 0c-0.01,0.19 -0.01,0.4 0,0.57l0.03 0.57 0.25 0.06 0.29 -0.5c0.09,-0.15 0.19,-0.34 0.28,-0.5l0.01 0c-0.05,0.2 -0.09,0.41 -0.12,0.57l-0.1 0.54zm0.56 0.06c0.07,0.02 0.19,0.05 0.34,0.07 0.28,0.04 0.46,0.01 0.57,-0.05 0.1,-0.06 0.17,-0.15 0.19,-0.28 0.02,-0.18 -0.08,-0.32 -0.24,-0.39l0 -0c0.17,-0.04 0.26,-0.15 0.27,-0.27 0.02,-0.13 -0.04,-0.23 -0.13,-0.3 -0.09,-0.07 -0.21,-0.11 -0.41,-0.13 -0.16,-0.02 -0.33,-0.03 -0.42,-0.03l-0.18 1.39zm0.47 -1.14c0.03,-0 0.07,0 0.14,0.01 0.14,0.02 0.22,0.09 0.21,0.19 -0.01,0.11 -0.11,0.16 -0.28,0.14l-0.11 -0.01 0.04 -0.33zm-0.07 0.56l0.11 0.01c0.16,0.02 0.28,0.09 0.26,0.24 -0.02,0.15 -0.15,0.19 -0.3,0.17 -0.05,-0.01 -0.09,-0.01 -0.12,-0.02l0.05 -0.4zm0.88 0.69l0.32 0.01 0.01 -0.56 0.1 0c0.13,0 0.19,0.05 0.23,0.23 0.04,0.18 0.07,0.29 0.09,0.33l0.33 0.01c-0.03,-0.06 -0.07,-0.24 -0.11,-0.4 -0.03,-0.13 -0.09,-0.23 -0.18,-0.27l0 -0.01c0.12,-0.04 0.26,-0.16 0.26,-0.35 0,-0.13 -0.04,-0.23 -0.13,-0.3 -0.1,-0.08 -0.25,-0.12 -0.46,-0.12 -0.17,-0 -0.33,0.01 -0.43,0.02l-0.03 1.41zm0.34 -1.18c0.02,-0 0.07,-0.01 0.15,-0.01 0.15,0.01 0.24,0.07 0.23,0.2 -0,0.12 -0.1,0.2 -0.26,0.2l-0.13 -0 0.01 -0.39zm1.69 0.26l-0.52 0.04 -0.02 -0.3 0.56 -0.04 -0.02 -0.26 -0.88 0.07 0.11 1.42 0.91 -0.07 -0.02 -0.26 -0.58 0.04 -0.03 -0.34 0.52 -0.04 -0.02 -0.26zm0.81 0.77c0.08,-0.01 0.2,-0.02 0.36,-0.06 0.27,-0.06 0.48,-0.17 0.6,-0.33 0.11,-0.14 0.16,-0.35 0.1,-0.62 -0.06,-0.25 -0.19,-0.4 -0.36,-0.47 -0.16,-0.07 -0.34,-0.08 -0.6,-0.02 -0.16,0.04 -0.31,0.08 -0.42,0.13l0.32 1.37zm0.05 -1.21c0.03,-0.01 0.07,-0.03 0.14,-0.05 0.27,-0.06 0.48,0.05 0.54,0.34 0.08,0.33 -0.07,0.53 -0.36,0.6 -0.04,0.01 -0.08,0.02 -0.11,0.02l-0.21 -0.91zm1.9 -0.23l-0.5 0.17 -0.1 -0.28 0.53 -0.18 -0.08 -0.25 -0.83 0.28 0.46 1.35 0.86 -0.29 -0.08 -0.25 -0.56 0.19 -0.11 -0.32 0.5 -0.17 -0.08 -0.25zm1 -0.05c0.09,0.2 0.04,0.29 -0.09,0.35 -0.06,0.03 -0.11,0.04 -0.16,0.04l0.07 0.25c0.07,-0.01 0.16,-0.03 0.23,-0.07 0.29,-0.13 0.41,-0.34 0.24,-0.71l-0.37 -0.82 -0.29 0.13 0.37 0.82zm1.07 -0.95l-0.46 0.26 -0.15 -0.26 0.48 -0.28 -0.13 -0.23 -0.77 0.44 0.71 1.24 0.79 -0.45 -0.13 -0.23 -0.51 0.29 -0.17 -0.29 0.46 -0.26 -0.13 -0.23zm0.59 0.59c0.09,-0.01 0.25,-0.06 0.39,-0.15 0.33,-0.21 0.37,-0.48 0.24,-0.68 -0.11,-0.17 -0.28,-0.22 -0.54,-0.16 -0.19,0.04 -0.28,0.05 -0.33,-0.03 -0.04,-0.06 -0.02,-0.15 0.1,-0.23 0.12,-0.08 0.22,-0.1 0.29,-0.1l-0.08 -0.26c-0.09,0.01 -0.21,0.05 -0.35,0.14 -0.28,0.18 -0.35,0.45 -0.22,0.65 0.11,0.17 0.31,0.2 0.56,0.14 0.18,-0.04 0.26,-0.04 0.31,0.04 0.05,0.08 0.02,0.17 -0.11,0.25 -0.12,0.07 -0.25,0.11 -0.35,0.12l0.09 0.26zm0.14 -1.74l0.49 0.63c0.28,0.36 0.57,0.38 0.85,0.16 0.29,-0.23 0.34,-0.53 0.07,-0.88l-0.49 -0.63 -0.25 0.2 0.51 0.65c0.16,0.2 0.16,0.35 0.02,0.45 -0.13,0.1 -0.28,0.06 -0.43,-0.13l-0.51 -0.65 -0.26 0.2zm0.26 -0.63l0.02 0.31 0.2 -0.16 0.04 -0.36 -0.27 0.21zm1.64 0.84c0.09,-0.03 0.23,-0.12 0.34,-0.23 0.27,-0.28 0.25,-0.56 0.08,-0.72 -0.15,-0.14 -0.32,-0.14 -0.56,-0.02 -0.18,0.09 -0.26,0.12 -0.33,0.05 -0.05,-0.05 -0.05,-0.14 0.04,-0.25 0.1,-0.1 0.2,-0.15 0.25,-0.17l-0.14 -0.23c-0.09,0.04 -0.19,0.1 -0.3,0.21 -0.23,0.24 -0.24,0.52 -0.06,0.69 0.15,0.14 0.35,0.12 0.58,0.01 0.16,-0.08 0.25,-0.1 0.31,-0.04 0.07,0.06 0.06,0.16 -0.04,0.27 -0.09,0.1 -0.22,0.17 -0.31,0.2l0.15 0.23z"/>
    <path class="fil10" d="M10.91 22.48c0,0 -4.15,-3.63 -2.37,-8.78 0,0 0.96,-2.39 6.42,-0.58 1.88,0.57 25.41,8.2 24.97,1.63 -0.11,-0.43 -0.23,-0.85 -0.37,-1.27l0.06 -0c0,0 1.3,-0.07 1.57,2.32 0,0 0.78,4.72 0.17,6.43 -0.01,0.02 -0.01,0.04 -0.02,0.06 -0,0 -0,0.01 -0.01,0.01 -0.06,0.14 -0.12,0.25 -0.2,0.34 -0.34,0.46 -0.82,0.67 -0.82,0.67l0 0 -0.02 0.01c-1.38,0.72 -5.34,1.59 -16.18,-1.21 0,0 -2.85,-0.82 -5.97,-1.45 -1.56,-0.32 -3.19,-0.59 -4.57,-0.69 -1.38,-0.1 -2.56,-0.03 -3.11,0.33 0.1,0.74 0.24,1.47 0.44,2.18l0 0z"/>
    <path class="fil1" d="M8.41 18.41l-0.01 0c-0.19,-0.67 -0.31,-1.4 -0.31,-2.2l0 0c2.58,-2.73 12.57,0.93 16.28,1.93 4.28,1.15 13.67,3.28 17.11,0.07 0.07,0.73 0.11,1.54 0.1,2.26 -3.9,2.89 -12.47,0.73 -18.26,-0.73 -3.53,-0.89 -11.55,-3.84 -14.91,-1.35z"/>
    <path class="fil11" d="M18.31 15.84l0.21 0.07c0.01,-0.05 0.03,-0.09 0.04,-0.14 0.02,-0.05 0.03,-0.1 0.05,-0.15 0.07,-0.21 0.16,-0.5 0.22,-0.73 0.01,-0.03 0.01,-0.04 0.02,-0.07 0.01,-0.02 0.02,-0.06 0.03,-0.07l-0.22 -0.07 -0.27 0.87c-0.02,0.05 -0.03,0.09 -0.04,0.14 -0.01,0.04 -0.04,0.12 -0.04,0.15zm13.71 3.2c-0.07,0 -0.11,-0.02 -0.15,-0.07 -0.12,-0.18 -0,-0.47 0.15,-0.47 0.08,0 0.13,0.01 0.18,0.09 0.03,0.05 0.04,0.13 0.03,0.19 -0.02,0.12 -0.07,0.26 -0.21,0.26zm0.05 0.19l-0.1 0c-0.05,-0.01 -0.09,-0.02 -0.13,-0.04 -0.06,-0.03 -0.05,-0.02 -0.09,-0.06 -0.01,-0.01 -0.02,-0.01 -0.03,-0.02 -0.1,-0.11 -0.12,-0.22 -0.12,-0.36 0,-0.06 0.02,-0.13 0.04,-0.17 0.14,-0.33 0.53,-0.34 0.71,-0.15 0.09,0.1 0.11,0.2 0.11,0.34 0,0.26 -0.19,0.44 -0.39,0.46zm-0.94 -0.35c-0.06,0 -0.11,-0 -0.16,-0.06 -0.09,-0.11 -0.04,-0.36 0.07,-0.43 0.07,-0.05 0.17,-0.04 0.22,0.01 0.03,0.03 0.05,0.08 0.05,0.13 0,0.05 -0.03,0.19 -0.04,0.23 -0.02,0.06 -0.08,0.12 -0.15,0.12zm0.01 -0.73c-0.1,0 -0.12,0 -0.22,0.05 -0.26,0.14 -0.34,0.68 -0.03,0.83 0.13,0.07 0.23,0.06 0.36,-0.01 -0,0.03 -0.01,0.02 -0.01,0.07 0.05,0 0.16,0.02 0.21,0.03 0.01,-0.17 0.14,-0.88 0.18,-1.1 0.01,-0.05 0.02,-0.12 0.02,-0.16 -0.07,-0.02 -0.15,-0.02 -0.22,-0.04l-0.06 0.34c-0.02,0.11 -0.01,0.06 -0.08,0.03 -0.04,-0.02 -0.09,-0.05 -0.16,-0.05zm-1.12 0.72c0,-0.03 0.06,-0.35 0.07,-0.39 0.02,-0.09 0.02,-0.19 0.1,-0.25 0.09,-0.07 0.23,-0.03 0.23,0.12 0,0.05 -0.01,0.1 -0.02,0.15 -0.01,0.06 -0.08,0.39 -0.08,0.42 0,0.02 0.04,0.02 0.05,0.02 0.05,0.01 0.13,0.03 0.17,0.03 0.01,-0.09 0.11,-0.51 0.11,-0.6 0,-0.08 0,-0.12 -0.03,-0.19 -0.02,-0.05 -0.06,-0.09 -0.1,-0.12 -0.1,-0.07 -0.26,-0.08 -0.36,-0.01 0,-0.04 0,-0.04 0.01,-0.07 -0.03,-0.01 -0.07,-0.01 -0.1,-0.02 -0.03,-0.01 -0.08,-0.02 -0.11,-0.02 -0.01,0.04 -0.01,0.1 -0.02,0.14 -0.02,0.16 -0.1,0.52 -0.13,0.69 -0.02,0.08 -0.01,0.05 0.07,0.07 0.05,0.01 0.1,0.02 0.14,0.02zm-1.06 -0.47c0,0.15 0.06,0.25 0.18,0.3 0.1,0.05 0.23,0.03 0.32,-0.02 -0,0.03 -0.01,0.02 -0.01,0.07 0.03,0 0.1,0.02 0.14,0.03 0.08,0.02 0.07,0.03 0.08,-0.05 0.02,-0.14 0.12,-0.67 0.16,-0.82 -0.02,-0.01 -0.2,-0.04 -0.23,-0.05 0,0.03 -0.01,0.06 -0.02,0.1 -0.02,0.09 -0.08,0.43 -0.1,0.48 -0.05,0.11 -0.28,0.17 -0.28,-0.07 0,-0.06 0.06,-0.34 0.08,-0.43 0.01,-0.05 0.02,-0.1 0.02,-0.14 -0.07,-0 -0.15,-0.03 -0.22,-0.04 -0,0.04 -0.02,0.11 -0.03,0.16 -0.01,0.06 -0.02,0.1 -0.03,0.16 -0.02,0.09 -0.05,0.22 -0.05,0.32zm-1.39 -0.06c0.02,0.01 0.19,0.05 0.22,0.05 0,-0.03 0.01,-0.07 0.02,-0.09 0.01,-0.07 0.09,-0.44 0.11,-0.47 0.07,-0.13 0.26,-0.15 0.26,0.05 0,0.05 -0.07,0.36 -0.09,0.43l-0.03 0.15c0.06,0 0.16,0.04 0.22,0.04 0,-0.05 0.12,-0.53 0.12,-0.56 0.05,-0.15 0.26,-0.13 0.26,0.01 0,0.13 -0.03,0.2 -0.06,0.33 -0.01,0.06 -0.06,0.24 -0.06,0.28 0.03,0 0.08,0.01 0.11,0.02 0.03,0.01 0.08,0.02 0.11,0.02 0,-0.04 0.05,-0.24 0.06,-0.29 0.04,-0.2 0.16,-0.53 -0.12,-0.65 -0.08,-0.03 -0.18,-0.04 -0.26,0.01 -0.03,0.02 -0.04,0.03 -0.07,0.04 -0.02,-0.09 -0.14,-0.18 -0.25,-0.18 -0.09,0 -0.1,-0 -0.18,0.04l0.01 -0.07c-0.06,-0 -0.16,-0.04 -0.21,-0.04 0,0.08 -0.07,0.37 -0.09,0.44 -0.03,0.15 -0.06,0.29 -0.1,0.43zm-0.72 -0.17c0.07,0.01 0.15,0.05 0.23,0.05l0.07 -0.31c0.03,-0.11 0.05,-0.21 0.07,-0.31l0.11 -0.46c0.01,-0.05 0.03,-0.11 0.04,-0.16 -0.05,-0 -0.17,-0.05 -0.22,-0.05l-0.3 1.24zm-0.34 -0.82c0.13,0 0.16,0.09 0.16,0.19l-0.24 -0.06c-0.02,-0.01 -0.06,-0.02 -0.08,-0.02 0.01,-0.02 0.01,-0.02 0.03,-0.04l0.03 -0.03c0.03,-0.03 0.06,-0.05 0.11,-0.05zm-0.43 0.31c0,0.18 0.07,0.3 0.2,0.37 0.12,0.06 0.29,0.09 0.45,0.06l0 -0.19c-0.1,0 -0.09,0.03 -0.25,-0 -0.04,-0.01 -0.07,-0.02 -0.1,-0.04 -0.08,-0.05 -0.08,-0.12 -0.08,-0.21l0.4 0.1c0.04,0.01 0.1,0.03 0.14,0.03 0.03,-0.11 0.05,-0.1 0.05,-0.25 0,-0.38 -0.47,-0.49 -0.69,-0.21 -0.06,0.08 -0.12,0.21 -0.12,0.34zm-0.8 -0.07c-0.11,0 -0.18,-0.11 -0.18,-0.22 0,-0.14 0.08,-0.32 0.23,-0.32 0.06,0 0.11,0.02 0.13,0.06 0.11,0.13 0.02,0.49 -0.19,0.49zm-0.41 -0.25c0,0.08 0.01,0.13 0.04,0.2 0.12,0.27 0.53,0.33 0.72,0.08 0.18,-0.24 0.18,-0.58 -0.11,-0.73 -0.22,-0.11 -0.49,-0.02 -0.6,0.26 -0.02,0.05 -0.04,0.13 -0.04,0.19zm-0.47 0.01l-0.03 0c-0.19,0 -0.22,-0.32 -0.05,-0.48 0.08,-0.08 0.29,-0.06 0.29,0.15 0,0.03 -0.04,0.19 -0.05,0.21 -0.02,0.06 -0.08,0.12 -0.15,0.12zm0.29 -0.61c-0.02,-0.01 -0.03,-0.03 -0.05,-0.04 -0.12,-0.09 -0.28,-0.1 -0.41,-0.03 -0.05,0.03 -0.08,0.06 -0.12,0.1 -0.14,0.14 -0.24,0.55 0.05,0.73 0.07,0.05 0.19,0.06 0.28,0.04 0.03,-0.01 0.04,-0.02 0.06,-0.02 -0,0.02 -0.01,0.05 -0.01,0.07 0.03,0.01 0.07,0.02 0.1,0.03 0.03,0.01 0.07,0.02 0.11,0.03 0.01,-0.09 0.09,-0.36 0.11,-0.47l0.21 -0.77 -0.22 -0.06c-0,0.03 -0.02,0.07 -0.03,0.1l-0.08 0.31zm-1.18 0.39c-0.3,0 -0.2,-0.54 0.04,-0.54 0.22,0 0.22,0.29 0.13,0.43 -0.03,0.04 -0.1,0.11 -0.17,0.11zm-0.02 0.19c0.12,0 0.2,-0.01 0.3,-0.09 0.11,-0.09 0.17,-0.21 0.18,-0.38 0.04,-0.42 -0.46,-0.62 -0.74,-0.32 -0.09,0.1 -0.14,0.26 -0.13,0.41 0.01,0.09 0.04,0.17 0.1,0.24 0.06,0.07 0.18,0.14 0.3,0.14zm-0.68 -1.13c-0.05,-0 -0.08,-0.03 -0.13,-0.03 -0,0.03 -0.01,0.07 -0.02,0.09 -0.01,0.03 -0.02,0.06 -0.03,0.1 0.03,0.01 0.1,0.02 0.12,0.03l-0.06 0.23c-0.05,0.16 -0.12,0.35 -0,0.46 0.07,0.07 0.17,0.08 0.27,0.08 0.03,0 0.03,-0.04 0.04,-0.09 0.01,-0.03 0.02,-0.08 0.02,-0.11 -0.18,0 -0.19,-0.02 -0.14,-0.19 0.01,-0.04 0.02,-0.07 0.03,-0.11 0.02,-0.07 0.04,-0.15 0.06,-0.22 0.02,0 0.18,0.04 0.2,0.05 0.01,-0.03 0.02,-0.07 0.03,-0.09 0.01,-0.03 0.02,-0.07 0.03,-0.09 -0.06,-0.03 -0.15,-0.03 -0.2,-0.06 0.01,-0.04 0.02,-0.08 0.03,-0.12 0.01,-0.03 0.03,-0.09 0.03,-0.12 -0.28,0 -0.22,-0.02 -0.25,0.08 -0.01,0.03 -0.02,0.07 -0.02,0.1zm-1.12 0.63l0.22 0.06 0.05 -0.18c0.02,-0.06 0.03,-0.12 0.05,-0.18 0.03,-0.12 0.06,-0.27 0.21,-0.27 0.02,0 0.04,0.01 0.06,0.01 0.02,0.01 0.03,0.02 0.05,0.03l0.06 -0.21c-0.1,-0.05 -0.17,-0.07 -0.28,-0.01 0,-0.02 0.01,-0.05 0.01,-0.06 -0.03,-0.01 -0.07,-0.02 -0.1,-0.03 -0.03,-0.01 -0.07,-0.02 -0.11,-0.02 -0,0.06 -0.15,0.57 -0.17,0.65l-0.06 0.21zm-0.41 -0.32c-0.23,0 -0.23,-0.36 -0.05,-0.5 0.09,-0.07 0.22,-0.04 0.26,0.04 0.1,0.18 -0.04,0.46 -0.21,0.46zm-0.41 -0.25c0,0.1 0.01,0.19 0.07,0.27 0.15,0.21 0.49,0.25 0.68,0.02 0.18,-0.23 0.18,-0.6 -0.12,-0.74 -0.18,-0.08 -0.38,-0.04 -0.51,0.11 -0.06,0.07 -0.12,0.2 -0.12,0.33zm-0.44 0.01c-0.12,0 -0.19,-0.07 -0.19,-0.19 0,-0.04 0.05,-0.19 0.06,-0.23 0.1,-0.18 0.35,-0.15 0.35,0.1 0,0.07 -0.03,0.16 -0.06,0.21 -0.03,0.05 -0.09,0.11 -0.16,0.11zm-0.6 0.37c0.02,0.01 0.19,0.06 0.21,0.06l0.09 -0.32c0.01,-0.03 0,-0.03 0.02,-0.04 0.03,0.1 0.49,0.3 0.67,-0.17 0.06,-0.17 0.06,-0.36 -0.06,-0.5 -0.1,-0.11 -0.3,-0.15 -0.43,-0.08 0.01,-0.03 0.01,-0.04 0.01,-0.07 -0.22,-0.05 -0.19,-0.1 -0.22,0.02 -0.08,0.31 -0.18,0.65 -0.27,0.96l-0.04 0.15zm-0.68 -0.74c-0.31,0 -0.19,-0.53 0.05,-0.53 0.1,0 0.17,0.08 0.17,0.18 0,0.04 -0.02,0.08 -0.03,0.11 -0.01,0.04 -0.02,0.08 -0.03,0.11 -0.03,0.07 -0.1,0.13 -0.16,0.13zm0.31 -0.61c-0.03,-0.01 -0.1,-0.13 -0.29,-0.13 -0.13,0 -0.25,0.08 -0.31,0.16 -0.25,0.3 -0.13,0.81 0.29,0.76 0.03,-0 0.06,-0.02 0.09,-0.03 -0.01,0.02 -0.01,0.04 -0.01,0.07 0.05,0.01 0.17,0.05 0.21,0.05 0,-0.07 0.26,-0.96 0.3,-1.07 0.01,-0.03 0.04,-0.12 0.04,-0.16 -0.04,-0 -0.16,-0.05 -0.21,-0.06 -0.01,0.02 -0.02,0.07 -0.03,0.1 -0.01,0.05 -0.08,0.28 -0.08,0.3z"/>
    <path class="fil11" d="M24.72 21.37c0,0.17 0.04,0.25 0.15,0.36 0.06,0.06 0.22,0.13 0.35,0.13 0.09,0 0.07,0.01 0.15,-0.01l0 -0.17c-0.05,0 -0.2,0.05 -0.34,-0.06 -0.02,-0.01 -0.03,-0.02 -0.04,-0.04 -0.01,-0.02 -0.02,-0.03 -0.03,-0.05 -0.01,-0.03 -0.03,-0.09 -0.03,-0.13 -0,-0.14 0.09,-0.37 0.27,-0.37 0.24,0 0.26,0.1 0.31,0.11 0.01,-0.04 0.07,-0.11 0.08,-0.15 -0.01,-0.02 -0.05,-0.04 -0.07,-0.05 -0.06,-0.04 -0.11,-0.05 -0.18,-0.07 -0.25,-0.06 -0.47,0.06 -0.57,0.3 -0.02,0.05 -0.05,0.14 -0.05,0.21zm-4.74 -1.17c0,0.16 -0.17,0.12 -0.27,0.07 -0.06,-0.04 -0.06,-0.08 -0.11,-0.08 -0.02,0.06 -0.09,0.14 -0.07,0.17 0.03,0.05 0.2,0.14 0.31,0.14l0.05 0c0.2,0 0.41,-0.24 0.21,-0.49 -0.05,-0.06 -0.23,-0.14 -0.23,-0.23 0,-0.13 0.15,-0.1 0.24,-0.06 0.04,0.02 0.05,0.04 0.08,0.06 0.03,-0.05 0.06,-0.1 0.09,-0.15 -0.04,-0.02 -0.04,-0.05 -0.12,-0.08 -0.05,-0.02 -0.1,-0.04 -0.15,-0.04l-0.08 0c-0.19,0.02 -0.31,0.19 -0.25,0.35 0.07,0.19 0.29,0.22 0.29,0.34zm9.56 2.13c0.15,0 0.34,0.02 0.34,0.17 0,0.17 -0.19,0.19 -0.33,0.08 -0.02,-0.01 -0.02,-0.03 -0.05,-0.03 -0,0.02 -0.07,0.14 -0.08,0.15 0.04,0.02 0.04,0.05 0.12,0.08 0.05,0.02 0.11,0.04 0.17,0.04l0.05 0c0.07,-0 0.15,-0.03 0.2,-0.08 0.1,-0.1 0.16,-0.24 0.09,-0.38 -0.01,-0.03 -0.04,-0.07 -0.06,-0.09 -0.05,-0.04 -0.13,-0.09 -0.21,-0.09 0,-0.03 0.03,-0.11 0.04,-0.13 0.03,0 0.09,0.02 0.12,0.02l0.19 0.03c0.01,-0 0.01,0.01 0.02,-0.04 0.01,-0.04 0.02,-0.1 0.02,-0.13 -0.13,-0.03 -0.33,-0.05 -0.48,-0.09l-0.08 0.24c-0.02,0.08 -0.06,0.18 -0.08,0.24zm-0.54 -0.49l0 0.12c0,0.03 0.01,0.03 0.01,0.06 0.05,-0 0.1,-0.04 0.15,-0.04 -0.01,0.03 -0.14,0.67 -0.14,0.72 0.06,0.01 0.13,0.03 0.19,0.03l0.19 -0.93c-0.18,-0.04 -0.13,-0.03 -0.27,0.01 -0.03,0.01 -0.08,0.03 -0.12,0.03zm-0.39 0.21c0,0.16 0.24,0.18 0.24,-0.01 0,-0.12 -0.18,-0.16 -0.23,-0.04 -0,0.01 -0.01,0.05 -0.01,0.05zm-0.09 0.45l0 0.03c0,0.11 0.23,0.17 0.23,-0.04 0,-0.05 -0.03,-0.09 -0.07,-0.1 -0.1,-0.04 -0.17,0.04 -0.17,0.11zm-0.3 -0.13c-0.17,0 -0.17,-0.23 -0.1,-0.28 0.07,-0.07 0.18,-0.05 0.22,0.03 0.03,0.08 -0.01,0.2 -0.05,0.23 -0.01,0.01 -0.04,0.03 -0.06,0.03zm-0.33 -0.21c0,0.11 0.02,0.2 0.09,0.28 0.08,0.08 0.16,0.1 0.27,0.1 0.23,0 0.41,-0.34 0.24,-0.56 -0.06,-0.08 -0.19,-0.12 -0.3,-0.1 0.05,-0.07 0.14,-0.11 0.25,-0.11 0.05,0 0.08,0.01 0.11,0.02 0.01,-0.02 0.03,-0.15 0.03,-0.18l-0.14 -0.02c-0.04,-0 -0.1,0 -0.14,0.01 -0.17,0.04 -0.27,0.15 -0.35,0.29 -0.03,0.06 -0.06,0.17 -0.06,0.26zm-0.47 -0.64c0.02,0.04 0.01,0.12 0.01,0.17l0.15 -0.04 -0.15 0.71c0.02,0.01 0.16,0.04 0.19,0.04l0.06 -0.26c0.02,-0.09 0.04,-0.18 0.06,-0.27l0.08 -0.37c0,-0.03 0.01,-0.01 -0,-0.02 -0.01,-0 -0.12,-0.03 -0.14,-0.03 -0.02,0 -0.23,0.06 -0.25,0.07zm-0.98 -0.05c0,0.24 0.3,0.29 0.3,0.41 0,0.16 -0.18,0.15 -0.32,0.03 -0.02,-0.02 -0.04,-0.03 -0.05,-0.05l-0.09 0.16c0.07,0.11 0.39,0.24 0.57,0.07 0.06,-0.05 0.09,-0.14 0.09,-0.23 0,-0.1 -0.07,-0.17 -0.13,-0.22 -0.05,-0.04 -0.25,-0.14 -0.15,-0.25 0.01,-0.01 0.01,-0.01 0.03,-0.02 0.12,-0.05 0.24,0.08 0.26,0.1 0.02,-0.02 0.08,-0.12 0.1,-0.15 -0.04,-0.03 -0.04,-0.05 -0.16,-0.1 -0.23,-0.09 -0.46,0.03 -0.46,0.25zm-0.56 0.37c-0.4,0 -0.21,-0.8 0.14,-0.63 0.24,0.11 0.11,0.63 -0.14,0.63zm0.07 -0.83l-0.06 0c-0.37,0 -0.58,0.6 -0.33,0.86 0.19,0.21 0.5,0.18 0.65,0 0.04,-0.05 0.06,-0.08 0.09,-0.14 0.11,-0.23 0.07,-0.55 -0.16,-0.67 -0.05,-0.03 -0.11,-0.05 -0.19,-0.05zm-1.51 0.05c-0.04,0 -0.11,-0.01 -0.14,-0.03l0.06 -0.24c0.08,-0 0.2,0.04 0.2,0.12 0,0.08 -0.03,0.15 -0.12,0.15zm-0.47 0.47c0.02,0.01 0.16,0.05 0.19,0.05l0.05 -0.19c0.02,-0.06 0.03,-0.12 0.05,-0.19 0.21,0.05 0.15,0.09 0.16,0.38 0,0.02 0,0.04 0.01,0.05 0.01,0.03 0.05,0.03 0.12,0.04 0.03,0.01 0.06,0.02 0.09,0.02 -0,-0.04 -0.02,-0.07 -0.02,-0.12 -0,-0.1 0.01,-0.25 -0.02,-0.33 -0.01,-0.02 -0.02,-0.03 -0.02,-0.05 0.14,-0.01 0.34,-0.36 0,-0.52 -0.09,-0.04 -0.24,-0.07 -0.37,-0.07l-0.12 0.47c-0.02,0.08 -0.04,0.15 -0.06,0.23 -0.01,0.04 -0.02,0.08 -0.03,0.12 -0.01,0.03 -0.02,0.09 -0.03,0.12zm-0.29 -0.78l0.01 0.11c0,0.04 0.01,0.07 0.01,0.12 -0.04,-0.02 -0.11,-0.02 -0.14,-0.04 0.01,-0.02 0.09,-0.14 0.11,-0.17l0.02 -0.02zm-0.58 0.55c0.05,0 0.15,0.05 0.2,0.05l0.08 -0.12c0.03,-0.04 0.05,-0.08 0.08,-0.12 0.08,0.02 0.16,0.05 0.25,0.07 0,0.1 0.01,0.19 0.01,0.29 0.06,0.03 0.15,0.03 0.2,0.06 0,-0.05 -0,-0.09 -0.01,-0.13 -0,-0.02 -0,-0.04 -0,-0.07 -0,-0.03 -0.01,-0.03 -0.01,-0.06 -0,-0.02 0,-0.05 0,-0.07 -0,-0.05 -0.01,-0.12 -0.01,-0.19 0,-0.1 -0.02,-0.27 -0.02,-0.39 -0,-0.05 -0.01,-0.05 -0.01,-0.13 -0.06,-0.02 -0.13,-0.04 -0.19,-0.05l-0.5 0.76c-0.02,0.03 -0.06,0.09 -0.07,0.11zm-0.97 -0.25c0.06,0 0.13,0.04 0.19,0.04l0.17 -0.51c0,0.19 0.03,0.41 0.03,0.57 0.17,0.04 0.12,0.08 0.23,-0.09l0.26 -0.37c-0,0.03 -0.11,0.55 -0.11,0.56 0.05,0.01 0.14,0.05 0.19,0.05 0,-0.04 0.14,-0.75 0.16,-0.84 0.01,-0.04 0.02,-0.08 0.02,-0.13 -0.07,-0 -0.14,-0.05 -0.21,-0.05l-0.37 0.55c0,-0.16 -0.03,-0.35 -0.03,-0.49 -0,-0.05 -0.01,-0.11 -0.01,-0.17 -0.05,-0 -0.15,-0.05 -0.21,-0.05l-0.23 0.7c-0.01,0.04 -0.07,0.21 -0.08,0.24zm-1.11 -0.27c0.03,0 0.06,0.01 0.09,0.02 0.03,0.01 0.06,0.01 0.09,0.02l0.11 -0.44c0.01,-0.04 0.03,-0.11 0.03,-0.16 0.02,0.01 0.03,0.07 0.04,0.1 0.01,0.04 0.02,0.07 0.04,0.11l0.14 0.43c0.02,0.06 0.01,0.05 0.08,0.07 0.04,0.01 0.08,0.02 0.12,0.02 0.01,-0.07 0.23,-0.9 0.23,-0.96 -0.05,-0 -0.13,-0.03 -0.18,-0.04l-0.13 0.54c-0.01,0.03 0.01,0.01 -0.02,0.03 -0,-0.04 -0.17,-0.54 -0.2,-0.63 -0.02,-0.05 -0.03,-0.04 -0.08,-0.05 -0.04,-0.01 -0.08,-0.02 -0.12,-0.02 -0,0.03 -0.02,0.08 -0.03,0.12l-0.14 0.59c-0.01,0.05 -0.06,0.2 -0.06,0.24zm-0.31 -0.78c0,0.07 0.02,0.16 0.02,0.23 -0.04,-0.01 -0.1,-0.03 -0.15,-0.03 0.02,-0.03 0.04,-0.07 0.06,-0.1l0.05 -0.07c0,-0.01 0,-0 0.01,-0.01 0.01,-0.01 0.01,-0.01 0.01,-0.02zm-0.56 0.57c0.06,0.01 0.13,0.04 0.19,0.04l0.15 -0.25 0.25 0.06 0.03 0.3c0.05,0 0.15,0.04 0.2,0.04l-0.08 -0.9c-0,-0.03 -0.01,-0.09 -0.01,-0.13l-0.19 -0.05c-0.01,0.02 -0.32,0.52 -0.33,0.55 -0.03,0.06 -0.2,0.3 -0.2,0.34z"/>
    <path class="fil10" d="M17.84 17.69c0,0.02 -0.13,0.16 -0.29,0.16l0.01 0.2c0.15,0 0.27,-0.05 0.37,-0.15l0.06 -0.06c0.07,-0.08 0.29,-0.41 0.34,-0.5 0.03,-0.05 0.06,-0.1 0.1,-0.14 0.02,-0.03 0.09,-0.12 0.09,-0.15 -0.04,-0 -0.08,-0.01 -0.11,-0.02 -0.04,-0.01 -0.08,-0.02 -0.12,-0.03l-0.2 0.34c-0.01,0.02 -0.02,0.04 -0.04,0.06l-0.04 0.06c0,-0.06 -0.02,-0.14 -0.02,-0.2l-0.04 -0.29c-0.01,-0.07 0.02,-0.04 -0.14,-0.08 -0.03,-0.01 -0.07,-0.02 -0.09,-0.02 0,0.1 0.13,0.71 0.13,0.82zm13.88 3.21l-0.05 0c-0.15,0 -0.21,-0.23 -0.11,-0.4 0.09,-0.16 0.33,-0.12 0.33,0.13 0,0.09 -0.03,0.19 -0.1,0.24 -0.02,0.01 -0.05,0.04 -0.08,0.04zm-0.43 -0.24l0 0.03c0,0.22 0.17,0.39 0.39,0.39l0 0c0.08,0 0.13,-0.01 0.2,-0.04 0.13,-0.07 0.23,-0.22 0.23,-0.39 0,-0.14 -0.02,-0.23 -0.12,-0.33 -0.16,-0.16 -0.45,-0.15 -0.59,0.02 -0.06,0.07 -0.12,0.18 -0.12,0.31zm-0.35 0.32c0.07,0 0.14,0.03 0.21,0.03l0.11 -0.83c-0.07,0 -0.15,-0.03 -0.22,-0.03 -0,0.03 -0.01,0.07 -0.01,0.1l-0.07 0.52c-0.01,0.07 -0.02,0.14 -0.02,0.21zm0.11 -1c0,0.18 0.25,0.17 0.25,0.01 0.01,-0.17 -0.25,-0.17 -0.25,-0.01zm-0.47 0.95l0.17 0.02c0.05,0.01 0.04,0.03 0.06,-0.13 0.01,-0.12 0.03,-0.23 0.05,-0.35 0.02,-0.2 0.08,-0.52 0.09,-0.7 -0.07,-0.01 -0.14,-0.03 -0.22,-0.03 0,0.1 -0.15,1.06 -0.15,1.18zm-0.38 -0.74c0.1,0 0.15,0.06 0.15,0.16 -0.09,0 -0.22,-0.04 -0.3,-0.04 0.02,-0.04 0.03,-0.05 0.06,-0.08 0.02,-0.02 0.06,-0.04 0.1,-0.04zm-0.4 0.27c0,0.16 0.06,0.3 0.2,0.37 0.07,0.03 0.19,0.06 0.27,0.05 0.06,-0 0.12,-0.01 0.18,-0.03l-0.01 -0.18c-0.06,0 -0.21,0.07 -0.35,-0.02 -0.05,-0.03 -0.08,-0.09 -0.08,-0.17l0.51 0.08c0.03,-0.12 0.05,-0.2 0.01,-0.33 -0.02,-0.04 -0.04,-0.08 -0.07,-0.11 -0.16,-0.16 -0.41,-0.14 -0.55,0.03 -0.06,0.07 -0.12,0.2 -0.12,0.32zm-0.63 -0.13c0,-0.31 0.31,-0.36 0.36,-0.14 0.01,0.04 -0.01,0.09 -0.02,0.12 -0.01,0.08 -0.02,0.15 -0.11,0.19 -0.1,0.05 -0.24,-0.01 -0.24,-0.18zm-0.22 -0.03c0,0.12 0.02,0.22 0.1,0.3 0.08,0.09 0.21,0.12 0.33,0.1 0.03,-0.01 0.05,-0.02 0.07,-0.02 -0.06,0.24 -0.28,0.18 -0.4,0.09 -0.02,-0.02 -0.04,-0.04 -0.06,-0.05l-0.09 0.17c0.03,0.05 0.1,0.08 0.16,0.11 0.2,0.08 0.45,0.06 0.56,-0.15 0.07,-0.15 0.12,-0.57 0.16,-0.77 0.01,-0.03 0.02,-0.08 0.02,-0.11 -0.03,-0.01 -0.06,-0.01 -0.1,-0.02 -0.03,-0.01 -0.07,-0.02 -0.1,-0.02 -0,0.03 -0,0.02 -0.01,0.05 -0.04,-0.03 -0.09,-0.11 -0.25,-0.11 -0.24,0 -0.4,0.23 -0.4,0.44zm-0.86 0.18c0.03,0 0.07,0.01 0.11,0.02 0.03,0.01 0.08,0.02 0.11,0.02 0.02,-0.04 0.09,-0.47 0.11,-0.52 0.06,-0.13 0.27,-0.13 0.27,0.04 0,0.06 -0.02,0.12 -0.03,0.17l-0.06 0.32c-0.01,0.06 -0.02,0.04 0.11,0.07 0.13,0.03 0.09,0.07 0.14,-0.21 0.05,-0.24 0.14,-0.5 -0.09,-0.64 -0.06,-0.04 -0.16,-0.05 -0.24,-0.03 -0.02,0.01 -0.05,0.02 -0.07,0.03 0,-0.03 0,-0.03 0.01,-0.05 -0.01,-0.01 -0.18,-0.04 -0.2,-0.04l-0.03 0.21c-0.01,0.07 -0.03,0.14 -0.04,0.21l-0.08 0.41zm-0.41 -0.25c-0.04,0 -0.05,0 -0.08,-0.02 -0.06,-0.04 -0.03,-0.18 0.08,-0.18l0.14 0.01c0,0.09 -0.04,0.19 -0.14,0.19zm-0.16 -0.46c0.07,-0.02 0.08,-0.05 0.21,-0.03 0.1,0.01 0.13,0.05 0.13,0.13 -0.14,-0.01 -0.27,-0.04 -0.4,0.06 -0.06,0.04 -0.09,0.1 -0.1,0.19 -0.03,0.23 0.23,0.36 0.43,0.26 0,0.06 -0.02,0.05 0.08,0.07 0.04,0.01 0.09,0.02 0.13,0.02 0,-0.14 0.01,-0.18 0.04,-0.31 0.01,-0.04 0.02,-0.09 0.03,-0.13 0.03,-0.15 0.04,-0.3 -0.09,-0.4 -0.03,-0.02 -0.07,-0.04 -0.11,-0.05 -0.1,-0.03 -0.24,-0.03 -0.33,0.02 -0.02,0.01 -0.01,0.02 -0,0.08 0,0.03 0.01,0.07 0.01,0.1zm-0.69 0.45c0.02,0.01 0.16,0.04 0.19,0.04 0.01,-0.03 0.04,-0.07 0.06,-0.09 0.02,-0.03 0.04,-0.06 0.06,-0.09l0.34 -0.51c0.01,-0.02 0.03,-0.03 0.03,-0.05 -0.03,-0.01 -0.19,-0.04 -0.22,-0.05l-0.27 0.44c-0,0.01 -0.01,0.01 -0.01,0.02 -0.01,0.01 -0,0.01 -0.01,0.02 -0.01,-0.06 -0.04,-0.33 -0.05,-0.41 -0.01,-0.04 -0.01,-0.1 -0.02,-0.14 -0.03,-0 -0.07,-0.02 -0.11,-0.02 -0.03,-0.01 -0.08,-0.02 -0.12,-0.02l0.13 0.88zm-0.92 -0.21l0.66 0.15c0.01,-0.03 0.01,-0.06 0.02,-0.09 0.03,-0.13 0.06,-0.09 -0.19,-0.15 -0.08,-0.02 -0.15,-0.04 -0.23,-0.05 0.01,-0.02 0.07,-0.26 0.07,-0.29l0.3 0.07c0.03,0.01 0.07,0.02 0.1,0.02l0.05 -0.19 -0.3 -0.07c-0.03,-0.01 -0.07,-0.02 -0.11,-0.02 0.01,-0.03 0.02,-0.09 0.03,-0.12 0.01,-0.04 0.02,-0.08 0.03,-0.12l0.42 0.1c0.01,-0.04 0.04,-0.15 0.04,-0.19 -0.03,-0 -0.28,-0.06 -0.32,-0.07l-0.31 -0.07c-0.04,0.18 -0.08,0.37 -0.13,0.55l-0.1 0.41c-0.01,0.02 -0.01,0.05 -0.02,0.07 -0.01,0.03 -0.01,0.05 -0.02,0.07zm-0.69 -0.17c0.03,0 0.08,0.01 0.1,0.02 0.03,0.01 0.07,0.02 0.11,0.02 0,-0.04 0.02,-0.11 0.04,-0.14l0.26 -1.01c-0.04,-0 -0.17,-0.04 -0.21,-0.05l-0.15 0.58c-0.03,0.09 -0.05,0.19 -0.08,0.29l-0.07 0.3zm-0.31 -0.78c0.11,0 0.17,0.09 0.15,0.17 -0.02,-0 -0.28,-0.07 -0.29,-0.07 0.03,-0.04 0.08,-0.1 0.15,-0.1zm-0.41 0.3c0,0.14 0.06,0.23 0.14,0.29 0.15,0.13 0.49,0.13 0.49,0.08l0 -0.17c-0.04,0 -0.07,0.01 -0.11,0.01 -0.1,0 -0.23,-0.03 -0.28,-0.13 -0.02,-0.04 -0.02,-0.07 -0.02,-0.12l0.25 0.06c0.05,0.01 0.08,0.02 0.13,0.03 0.04,0.01 0.1,0.03 0.13,0.03 0.05,-0.1 0.05,-0.15 0.05,-0.26 0,-0.19 -0.16,-0.32 -0.37,-0.32 -0.23,0 -0.4,0.24 -0.4,0.48zm-0.77 -0.12c-0.22,0 -0.2,-0.24 -0.14,-0.36 0.1,-0.19 0.33,-0.14 0.33,0.05 0,0.04 -0.04,0.16 -0.05,0.2 -0.02,0.05 -0.08,0.11 -0.14,0.11zm0.27 -0.56c-0.15,-0.17 -0.42,-0.16 -0.56,0.02 -0.11,0.14 -0.15,0.34 -0.08,0.51 0.03,0.07 0.1,0.14 0.17,0.17 0.16,0.07 0.22,0.01 0.28,0.01 -0,0.02 -0.01,0.04 -0.01,0.06 0.03,0 0.15,0.04 0.2,0.05 0,-0.04 0.02,-0.11 0.03,-0.15 0.03,-0.13 0.28,-0.95 0.28,-1 -0.03,-0 -0.07,-0.02 -0.1,-0.03 -0.03,-0.01 -0.07,-0.02 -0.11,-0.03l-0.05 0.19c-0.01,0.03 -0.02,0.06 -0.03,0.09 -0.01,0.02 -0.02,0.07 -0.03,0.1zm-1.22 0.26c0,-0.17 0.21,-0.11 0.27,-0.1 -0.02,0.24 -0.27,0.2 -0.27,0.1zm-0.02 -0.58c0,0.07 0.01,0.11 0.01,0.18 0.08,-0.02 0.19,-0.06 0.28,0.01 0.05,0.03 0.05,0.05 0.05,0.12 -0.07,-0.03 -0.26,-0.04 -0.36,-0 -0.22,0.09 -0.24,0.38 -0.04,0.48 0.08,0.04 0.19,0.06 0.28,0.02 -0,0.03 -0.01,0.02 -0.01,0.05 0.03,0.01 0.07,0.02 0.1,0.03 0.02,0.01 0.07,0.03 0.1,0.03 0,-0.09 0.04,-0.21 0.07,-0.3 0.05,-0.18 0.16,-0.42 -0.04,-0.56 -0.11,-0.07 -0.32,-0.11 -0.43,-0.05zm-0.83 0.26c0,0.31 0.32,0.46 0.58,0.4 0,-0.04 0.01,-0.05 0.01,-0.09 -0,-0.04 0.01,-0.06 0.01,-0.09 -0.05,0 -0.17,0.04 -0.28,-0.04 -0.17,-0.13 -0.04,-0.44 0.11,-0.44 0.18,0 0.19,0.06 0.26,0.11 0.02,-0.01 0.04,-0.06 0.05,-0.08 0.02,-0.03 0.03,-0.05 0.05,-0.08 -0.03,-0.02 -0.03,-0.03 -0.1,-0.07 -0.33,-0.2 -0.69,0.03 -0.69,0.39zm-0.39 0.18l0.21 0.06 0.23 -0.81c-0.05,-0 -0.16,-0.05 -0.21,-0.05 -0,0.03 -0.02,0.07 -0.03,0.1l-0.2 0.7zm0.25 -0.94c0,0.15 0.25,0.18 0.25,-0.01 0,-0.1 -0.14,-0.16 -0.22,-0.08 -0.02,0.02 -0.04,0.07 -0.04,0.1zm-0.66 0.63l-0.04 0c-0.21,0 -0.17,-0.38 -0.01,-0.46 0.1,-0.05 0.23,0.01 0.23,0.15 0,0.03 -0.04,0.17 -0.05,0.2 -0.02,0.05 -0.07,0.11 -0.14,0.11zm0.27 -0.56l-0.05 -0.05c-0.15,-0.13 -0.39,-0.09 -0.51,0.07 -0.23,0.29 -0.11,0.72 0.23,0.72 0.07,0 0.09,-0.02 0.14,-0.03 -0.01,0.07 -0.04,0.05 0.06,0.08 0.05,0.01 0.09,0.03 0.13,0.04 0.08,-0.33 0.18,-0.68 0.28,-1l0.04 -0.15c-0.05,-0 -0.16,-0.05 -0.21,-0.05l-0.08 0.28c-0.01,0.03 -0.02,0.07 -0.02,0.1zm-1.02 -0.15c0.05,0 0.1,0.02 0.12,0.05 0.03,0.03 0.04,0.07 0.04,0.13l-0.29 -0.08c0.01,-0.05 0.08,-0.1 0.14,-0.1zm-0.41 0.3c0,0.28 0.26,0.41 0.49,0.41 0.05,0 0.08,-0.01 0.12,-0.01l0 -0.18c-0.09,0 -0.2,0.03 -0.32,-0.05 -0.06,-0.04 -0.08,-0.09 -0.08,-0.19l0.38 0.1c0.03,0.01 0.1,0.03 0.13,0.03 0.02,-0.08 0.03,-0.03 0.05,-0.2 0.02,-0.13 -0.05,-0.27 -0.16,-0.34 -0.18,-0.1 -0.37,-0.06 -0.5,0.09 -0.07,0.08 -0.12,0.22 -0.12,0.33zm-0.51 0.15c0.07,0.01 0.14,0.05 0.21,0.05 0.02,-0.08 0.11,-0.44 0.14,-0.49 0.08,-0.16 0.24,-0.06 0.25,-0.06 0,-0.02 0.02,-0.08 0.03,-0.1 0.01,-0.03 0.02,-0.07 0.02,-0.11 -0.06,-0.01 -0.03,-0.03 -0.15,-0.03 -0.05,0 -0.08,0.02 -0.11,0.03 0,-0.02 0.01,-0.04 0.01,-0.05 -0.02,-0.01 -0.18,-0.05 -0.2,-0.05 -0,0.03 -0.01,0.08 -0.02,0.1l-0.08 0.31c-0.02,0.06 -0.03,0.14 -0.05,0.2 -0.01,0.04 -0.05,0.16 -0.05,0.21zm-0.26 -0.71c-0.11,0 -0.1,-0.02 -0.17,-0.03l0.08 -0.33c0.09,0.01 0.25,0.06 0.25,0.17 0,0.11 -0.06,0.19 -0.17,0.19zm-0.53 0.5c0.02,0.01 0.18,0.05 0.21,0.05l0.07 -0.29c0.01,-0.03 0.02,-0.07 0.02,-0.1 0.08,0 0.42,0.15 0.58,-0.19 0.05,-0.11 0.04,-0.25 -0.03,-0.34 -0.04,-0.05 -0.09,-0.09 -0.15,-0.11 -0.09,-0.04 -0.29,-0.09 -0.42,-0.09 -0.01,0 -0.02,0.04 -0.02,0.06 -0.08,0.33 -0.18,0.69 -0.26,1.02z"/>
   </g>
   <path class="fil12" d="M107.38 29.62l0 -4.16 0.92 0 0 4.16 -0.92 0zm2.87 -1.1l0.78 0 0 0.08c0,0.37 -0.09,0.64 -0.27,0.82 -0.18,0.18 -0.45,0.28 -0.81,0.28 -0.18,0 -0.34,-0.03 -0.49,-0.08 -0.15,-0.05 -0.26,-0.13 -0.34,-0.22 -0.09,-0.11 -0.16,-0.26 -0.2,-0.44 -0.04,-0.18 -0.06,-0.47 -0.06,-0.87 0,-0.44 0.02,-0.75 0.06,-0.92 0.04,-0.17 0.11,-0.32 0.21,-0.43 0.09,-0.11 0.21,-0.19 0.36,-0.24 0.14,-0.05 0.31,-0.08 0.5,-0.08 0.2,0 0.36,0.03 0.5,0.09 0.14,0.06 0.26,0.15 0.35,0.26 0.08,0.1 0.13,0.21 0.16,0.35 0.03,0.13 0.05,0.37 0.05,0.69l0 0.38 -1.35 0c-0,0.01 -0,0.02 -0,0.04 -0.01,0.13 -0.01,0.22 -0.01,0.28 0,0.22 0.02,0.37 0.07,0.46 0.04,0.09 0.12,0.13 0.23,0.13 0.09,0 0.16,-0.03 0.21,-0.1 0.05,-0.07 0.07,-0.17 0.07,-0.3 0,-0.03 -0,-0.07 -0.01,-0.12 -0,-0.01 -0,-0.02 -0,-0.03zm-0.54 -0.89l0.56 0c0,-0 0,-0.01 0,-0.02 0.01,-0.08 0.01,-0.13 0.01,-0.17 0,-0.15 -0.02,-0.27 -0.07,-0.34 -0.05,-0.07 -0.12,-0.11 -0.22,-0.11 -0.1,0 -0.17,0.04 -0.22,0.11 -0.04,0.07 -0.06,0.19 -0.06,0.35 0,0.05 0,0.08 0,0.11 0,0.03 0,0.05 0,0.07zm3.18 0.48c-0.21,0.06 -0.37,0.14 -0.47,0.24 -0.1,0.09 -0.15,0.21 -0.15,0.35 0,0.1 0.02,0.18 0.07,0.24 0.05,0.06 0.11,0.09 0.2,0.09 0.12,0 0.21,-0.04 0.26,-0.13 0.06,-0.09 0.08,-0.23 0.08,-0.43l0 -0.35zm0.1 1.51l-0.05 -0.29c-0.1,0.12 -0.22,0.2 -0.34,0.26 -0.12,0.06 -0.26,0.09 -0.4,0.09 -0.23,0 -0.42,-0.08 -0.55,-0.24 -0.14,-0.16 -0.2,-0.37 -0.2,-0.64 0,-0.24 0.06,-0.43 0.17,-0.58 0.12,-0.15 0.3,-0.29 0.57,-0.4 0.06,-0.02 0.15,-0.06 0.26,-0.1 0.31,-0.12 0.46,-0.25 0.46,-0.4 0,-0.09 -0.02,-0.16 -0.07,-0.21 -0.04,-0.05 -0.11,-0.07 -0.19,-0.07 -0.1,0 -0.18,0.03 -0.22,0.1 -0.05,0.06 -0.07,0.16 -0.07,0.3l0 0.02 -0.83 0c0,-0.35 0.09,-0.62 0.28,-0.79 0.19,-0.17 0.47,-0.26 0.85,-0.26 0.17,0 0.32,0.02 0.46,0.05 0.13,0.03 0.25,0.08 0.34,0.14 0.12,0.08 0.2,0.18 0.24,0.3 0.05,0.12 0.07,0.33 0.07,0.64l0 0.09 0 1.11c0,0.24 0.01,0.43 0.02,0.56 0.02,0.13 0.04,0.23 0.08,0.31l-0.87 0zm1.34 0l0 -3.13 0.78 0 0 0.37c0.09,-0.15 0.19,-0.26 0.31,-0.33 0.12,-0.07 0.25,-0.11 0.41,-0.11 0.23,0 0.4,0.08 0.5,0.24 0.11,0.16 0.16,0.42 0.16,0.77l0 2.18 -0.82 0 0 -1.93c0,-0.25 -0.02,-0.41 -0.05,-0.47 -0.03,-0.06 -0.08,-0.09 -0.16,-0.09 -0.09,0 -0.16,0.05 -0.22,0.14 -0.05,0.09 -0.08,0.23 -0.08,0.4l0 1.95 -0.83 0zm2.51 -1.4l0.85 0c0,0.35 0.02,0.56 0.05,0.64 0.03,0.08 0.08,0.12 0.16,0.12 0.07,0 0.12,-0.03 0.14,-0.07 0.03,-0.05 0.04,-0.16 0.04,-0.32l0 -3.13 0.92 0 0 2.74c0,0.31 -0.01,0.54 -0.03,0.69 -0.02,0.15 -0.06,0.27 -0.11,0.37 -0.08,0.15 -0.19,0.27 -0.35,0.34 -0.15,0.08 -0.34,0.12 -0.57,0.12 -0.4,0 -0.69,-0.1 -0.86,-0.3 -0.17,-0.2 -0.26,-0.53 -0.26,-0.99 0,-0.06 0,-0.1 0,-0.13 0,-0.03 0,-0.06 0.01,-0.08zm4.12 0.3l0.78 0 0 0.08c0,0.37 -0.09,0.64 -0.27,0.82 -0.18,0.18 -0.45,0.28 -0.81,0.28 -0.18,0 -0.34,-0.03 -0.49,-0.08 -0.15,-0.05 -0.26,-0.13 -0.34,-0.22 -0.09,-0.11 -0.16,-0.26 -0.2,-0.44 -0.04,-0.18 -0.06,-0.47 -0.06,-0.87 0,-0.44 0.02,-0.75 0.06,-0.92 0.04,-0.17 0.11,-0.32 0.21,-0.43 0.09,-0.11 0.21,-0.19 0.36,-0.24 0.14,-0.05 0.31,-0.08 0.5,-0.08 0.2,0 0.36,0.03 0.5,0.09 0.14,0.06 0.26,0.15 0.35,0.26 0.08,0.1 0.13,0.21 0.16,0.35 0.03,0.13 0.05,0.37 0.05,0.69l0 0.38 -1.35 0c-0,0.01 -0,0.02 -0,0.04 -0.01,0.13 -0.01,0.22 -0.01,0.28 0,0.22 0.02,0.37 0.07,0.46 0.04,0.09 0.12,0.13 0.23,0.13 0.09,0 0.16,-0.03 0.21,-0.1 0.05,-0.07 0.07,-0.17 0.07,-0.3 0,-0.03 -0,-0.07 -0.01,-0.12 -0,-0.01 -0,-0.02 -0,-0.03zm-0.54 -0.89l0.56 0c0,-0 0,-0.01 0,-0.02 0.01,-0.08 0.01,-0.13 0.01,-0.17 0,-0.15 -0.02,-0.27 -0.07,-0.34 -0.05,-0.07 -0.12,-0.11 -0.22,-0.11 -0.1,0 -0.17,0.04 -0.22,0.11 -0.04,0.07 -0.06,0.19 -0.06,0.35 0,0.05 0,0.08 0,0.11 0,0.03 0,0.05 0,0.07zm1.68 1l0.74 0c0.01,0.16 0.04,0.28 0.09,0.36 0.05,0.07 0.13,0.11 0.23,0.11 0.08,0 0.15,-0.03 0.2,-0.08 0.05,-0.05 0.08,-0.12 0.08,-0.2 0,-0.07 -0.02,-0.13 -0.06,-0.17 -0.04,-0.05 -0.12,-0.1 -0.24,-0.16 -0.03,-0.02 -0.07,-0.04 -0.13,-0.07 -0.3,-0.15 -0.51,-0.28 -0.63,-0.41 -0.08,-0.09 -0.15,-0.19 -0.19,-0.3 -0.04,-0.12 -0.07,-0.24 -0.07,-0.36 0,-0.29 0.09,-0.51 0.28,-0.68 0.18,-0.17 0.43,-0.25 0.74,-0.25 0.32,0 0.57,0.08 0.75,0.24 0.17,0.16 0.26,0.4 0.26,0.7l0 0.06 -0.72 -0c-0,-0.16 -0.03,-0.27 -0.07,-0.34 -0.04,-0.07 -0.11,-0.1 -0.2,-0.1 -0.08,0 -0.15,0.02 -0.2,0.07 -0.05,0.05 -0.07,0.11 -0.07,0.19 0,0.14 0.12,0.26 0.37,0.38 0.03,0.02 0.06,0.03 0.08,0.04 0.34,0.16 0.56,0.32 0.68,0.47 0.11,0.15 0.17,0.35 0.17,0.59 0,0.32 -0.09,0.56 -0.28,0.73 -0.18,0.17 -0.45,0.26 -0.79,0.26 -0.32,0 -0.58,-0.09 -0.76,-0.26 -0.18,-0.17 -0.27,-0.42 -0.27,-0.73l0 -0.08zm4.65 -2.14l0 3.13 -0.78 0 0 -0.37c-0.09,0.15 -0.2,0.26 -0.31,0.33 -0.11,0.07 -0.25,0.1 -0.4,0.1 -0.23,0 -0.4,-0.08 -0.51,-0.24 -0.11,-0.16 -0.16,-0.42 -0.16,-0.76l0 -2.18 0.83 0 0 1.93c0,0.25 0.02,0.41 0.05,0.47 0.03,0.06 0.09,0.09 0.16,0.09 0.09,0 0.16,-0.05 0.22,-0.14 0.05,-0.09 0.08,-0.23 0.08,-0.4l0 -1.96 0.82 0zm-1.48 -0.33l0.51 -0.77 0.76 0 -0.9 0.77 -0.37 0zm1.9 2.47l0.74 0c0.01,0.16 0.04,0.28 0.09,0.36 0.05,0.07 0.13,0.11 0.23,0.11 0.08,0 0.15,-0.03 0.2,-0.08 0.05,-0.05 0.08,-0.12 0.08,-0.2 0,-0.07 -0.02,-0.13 -0.06,-0.17 -0.04,-0.05 -0.12,-0.1 -0.24,-0.16 -0.03,-0.02 -0.07,-0.04 -0.13,-0.07 -0.3,-0.15 -0.51,-0.28 -0.63,-0.41 -0.08,-0.09 -0.15,-0.19 -0.19,-0.3 -0.04,-0.12 -0.07,-0.24 -0.07,-0.36 0,-0.29 0.09,-0.51 0.28,-0.68 0.18,-0.17 0.43,-0.25 0.74,-0.25 0.32,0 0.57,0.08 0.75,0.24 0.17,0.16 0.26,0.4 0.26,0.7l0 0.06 -0.72 -0c-0,-0.16 -0.03,-0.27 -0.07,-0.34 -0.04,-0.07 -0.11,-0.1 -0.2,-0.1 -0.08,0 -0.15,0.02 -0.2,0.07 -0.05,0.05 -0.07,0.11 -0.07,0.19 0,0.14 0.12,0.26 0.37,0.38 0.03,0.02 0.06,0.03 0.08,0.04 0.34,0.16 0.56,0.32 0.68,0.47 0.11,0.15 0.17,0.35 0.17,0.59 0,0.32 -0.09,0.56 -0.28,0.73 -0.18,0.17 -0.45,0.26 -0.79,0.26 -0.32,0 -0.58,-0.09 -0.76,-0.26 -0.18,-0.17 -0.27,-0.42 -0.27,-0.73l0 -0.08zm4.86 -1.38c0.01,0 0.03,0 0.05,0.01 0.02,0 0.04,0 0.08,0 0.18,0 0.32,-0.05 0.4,-0.14 0.08,-0.09 0.12,-0.24 0.12,-0.44 0,-0.17 -0.04,-0.29 -0.13,-0.36 -0.09,-0.07 -0.23,-0.11 -0.44,-0.11l-0.08 0 0 1.04zm-0.93 2.37l0 -4.16 0.91 0c0.33,0 0.58,0.02 0.74,0.05 0.16,0.03 0.29,0.08 0.4,0.15 0.15,0.09 0.26,0.23 0.33,0.42 0.08,0.18 0.11,0.41 0.11,0.66 0,0.42 -0.1,0.74 -0.32,0.96 -0.21,0.22 -0.52,0.33 -0.93,0.33l-0.33 0 0 1.59 -0.93 0zm3.02 0l0 -4.16 2.15 0 0 0.81 -1.23 0 0 0.76 1.13 0 0 0.84 -1.13 0 0 0.91 1.23 0 0 0.85 -2.15 0zm3.66 -2.43c0.02,0 0.04,0 0.06,0 0.02,0 0.04,0 0.06,0 0.19,0 0.33,-0.04 0.41,-0.12 0.08,-0.08 0.12,-0.22 0.12,-0.41 0,-0.18 -0.04,-0.3 -0.12,-0.38 -0.08,-0.07 -0.21,-0.11 -0.41,-0.11 -0.01,0 -0.03,0 -0.06,0 -0.02,0 -0.04,0 -0.06,0l0 1.01zm-0.91 2.43l0 -4.16 1.04 0c0.34,0 0.59,0.02 0.74,0.05 0.15,0.03 0.28,0.09 0.37,0.17 0.11,0.1 0.2,0.22 0.25,0.36 0.06,0.14 0.08,0.31 0.08,0.51 0,0.24 -0.04,0.44 -0.12,0.6 -0.08,0.16 -0.2,0.3 -0.37,0.4 0.29,0.13 0.44,0.45 0.45,0.95l0 0.01c0,0.05 0,0.13 0.01,0.23 0.01,0.47 0.08,0.76 0.22,0.88l-1.08 0c-0.02,-0.09 -0.04,-0.18 -0.05,-0.27 -0.01,-0.09 -0.02,-0.2 -0.02,-0.3 0,-0.07 0,-0.15 0.01,-0.24 0,-0.1 0.01,-0.16 0.01,-0.19 0,-0.25 -0.03,-0.43 -0.09,-0.52 -0.06,-0.09 -0.18,-0.14 -0.34,-0.14l-0.19 0 0 1.67 -0.91 0zm3.1 -4.16l0.93 0 0 2.61c0,0.39 0.02,0.64 0.07,0.73 0.05,0.09 0.13,0.14 0.25,0.14 0.12,0 0.2,-0.05 0.25,-0.15 0.05,-0.1 0.07,-0.34 0.07,-0.73l0 -2.61 0.91 0 0 2.66c0,0.3 -0.01,0.53 -0.04,0.67 -0.03,0.15 -0.07,0.28 -0.12,0.39 -0.09,0.19 -0.23,0.32 -0.41,0.41 -0.18,0.09 -0.41,0.13 -0.69,0.13 -0.26,0 -0.48,-0.04 -0.64,-0.12 -0.17,-0.08 -0.3,-0.21 -0.39,-0.39 -0.07,-0.13 -0.12,-0.29 -0.15,-0.49 -0.03,-0.2 -0.04,-0.54 -0.04,-1.01l0 -2.24zm0.84 -0.35l0.51 -0.77 0.76 0 -0.9 0.77 -0.37 0z"/>
   <path class="fil12" d="M152.96 25.39l0 5.54 -0.72 0 0 -5.54 0.72 0zm7.2 4.23l-0.57 -3.13 0.8 0 0.23 2.18 0.32 -2.18 0.69 0 0.31 2.18 0.24 -2.18 0.8 0 -0.58 3.13 -0.86 0 -0.26 -1.72 -0.26 1.72 -0.86 0zm3.49 0l-0.57 -3.13 0.8 0 0.23 2.18 0.31 -2.18 0.69 0 0.31 2.18 0.24 -2.18 0.8 0 -0.58 3.13 -0.86 0 -0.26 -1.72 -0.26 1.72 -0.86 0zm3.49 0l-0.57 -3.13 0.8 0 0.23 2.18 0.32 -2.18 0.69 0 0.31 2.18 0.24 -2.18 0.8 0 -0.58 3.13 -0.86 0 -0.26 -1.72 -0.26 1.72 -0.86 0zm2.83 0l0 -0.95 0.91 0 0 0.95 -0.91 0zm1.47 -3.44l0 -0.76 0.82 0 0 0.76 -0.82 0zm0 3.44l0 -3.13 0.82 0 0 3.13 -0.82 0zm2.74 -1.1l0.78 0 0 0.08c0,0.37 -0.09,0.64 -0.27,0.82 -0.18,0.18 -0.45,0.28 -0.81,0.28 -0.18,0 -0.34,-0.03 -0.49,-0.08 -0.15,-0.05 -0.26,-0.13 -0.34,-0.22 -0.09,-0.11 -0.16,-0.26 -0.2,-0.44 -0.04,-0.18 -0.06,-0.47 -0.06,-0.87 0,-0.44 0.02,-0.75 0.06,-0.92 0.04,-0.17 0.11,-0.32 0.21,-0.43 0.09,-0.11 0.21,-0.19 0.36,-0.24 0.14,-0.05 0.31,-0.08 0.5,-0.08 0.2,0 0.36,0.03 0.5,0.09 0.14,0.06 0.26,0.15 0.35,0.26 0.08,0.1 0.13,0.21 0.16,0.35 0.03,0.13 0.05,0.37 0.05,0.69l0 0.38 -1.35 0c-0,0.01 -0,0.02 -0,0.04 -0.01,0.13 -0.01,0.22 -0.01,0.28 0,0.22 0.02,0.37 0.07,0.46 0.04,0.09 0.12,0.13 0.23,0.13 0.09,0 0.16,-0.03 0.21,-0.1 0.05,-0.07 0.07,-0.17 0.07,-0.3 0,-0.03 -0,-0.07 -0.01,-0.12 -0,-0.01 -0,-0.02 -0,-0.03zm-0.54 -0.89l0.56 0c0,-0 0,-0.01 0,-0.02 0.01,-0.08 0.01,-0.13 0.01,-0.17 0,-0.15 -0.02,-0.27 -0.07,-0.34 -0.05,-0.07 -0.12,-0.11 -0.22,-0.11 -0.1,0 -0.17,0.04 -0.22,0.11 -0.04,0.07 -0.06,0.19 -0.06,0.35 0,0.05 0,0.08 0,0.11 0,0.03 0,0.05 0,0.07zm3.18 0.48c-0.21,0.06 -0.37,0.14 -0.47,0.24 -0.1,0.09 -0.15,0.21 -0.15,0.35 0,0.1 0.02,0.18 0.07,0.24 0.05,0.06 0.12,0.09 0.2,0.09 0.12,0 0.21,-0.04 0.26,-0.13 0.06,-0.09 0.08,-0.23 0.08,-0.43l0 -0.35zm0.1 1.51l-0.05 -0.29c-0.1,0.12 -0.22,0.2 -0.34,0.26 -0.12,0.06 -0.26,0.09 -0.4,0.09 -0.23,0 -0.42,-0.08 -0.55,-0.24 -0.14,-0.16 -0.2,-0.37 -0.2,-0.64 0,-0.24 0.06,-0.43 0.17,-0.58 0.12,-0.15 0.3,-0.29 0.57,-0.4 0.06,-0.02 0.15,-0.06 0.26,-0.1 0.31,-0.12 0.46,-0.25 0.46,-0.4 0,-0.09 -0.02,-0.16 -0.07,-0.21 -0.04,-0.05 -0.11,-0.07 -0.19,-0.07 -0.1,0 -0.18,0.03 -0.22,0.1 -0.05,0.06 -0.07,0.16 -0.07,0.3l0 0.02 -0.83 0c0,-0.35 0.09,-0.62 0.28,-0.79 0.19,-0.17 0.47,-0.26 0.85,-0.26 0.17,0 0.32,0.02 0.46,0.05 0.13,0.03 0.25,0.08 0.34,0.14 0.12,0.08 0.2,0.18 0.24,0.3 0.05,0.12 0.07,0.33 0.07,0.64l0 0.09 0 1.11c0,0.24 0.01,0.43 0.03,0.56 0.02,0.13 0.04,0.23 0.08,0.31l-0.87 0zm1.34 0l0 -3.13 0.78 0 0 0.37c0.09,-0.15 0.19,-0.26 0.31,-0.33 0.12,-0.07 0.25,-0.11 0.41,-0.11 0.23,0 0.4,0.08 0.5,0.24 0.11,0.16 0.16,0.42 0.16,0.77l0 2.18 -0.82 0 0 -1.93c0,-0.25 -0.02,-0.41 -0.05,-0.47 -0.03,-0.06 -0.08,-0.09 -0.16,-0.09 -0.09,0 -0.16,0.05 -0.22,0.14 -0.05,0.09 -0.08,0.23 -0.08,0.4l0 1.95 -0.83 0zm3.56 -0.25l0 0.14c0,0.31 -0.01,0.53 -0.04,0.66 -0.03,0.13 -0.08,0.23 -0.15,0.3 -0.06,0.06 -0.14,0.11 -0.23,0.14 -0.1,0.03 -0.21,0.05 -0.35,0.05 -0.05,0 -0.11,-0 -0.16,-0.01 -0.05,-0 -0.1,-0.01 -0.15,-0.02l0 -0.65c0.01,0 0.02,0 0.03,0 0.01,0 0.02,0 0.03,0 0.08,0 0.13,-0.03 0.16,-0.08 0.03,-0.06 0.05,-0.2 0.05,-0.45l0 -2.98 0.82 0 0 2.88zm-0.82 -3.19l0 -0.76 0.82 0 0 0.76 -0.82 0zm2.74 2.34l0.78 0 0 0.08c0,0.37 -0.09,0.64 -0.27,0.82 -0.18,0.18 -0.45,0.28 -0.81,0.28 -0.18,0 -0.34,-0.03 -0.49,-0.08 -0.15,-0.05 -0.26,-0.13 -0.34,-0.22 -0.09,-0.11 -0.16,-0.26 -0.2,-0.44 -0.04,-0.18 -0.06,-0.47 -0.06,-0.87 0,-0.44 0.02,-0.75 0.06,-0.92 0.04,-0.17 0.11,-0.32 0.21,-0.43 0.09,-0.11 0.21,-0.19 0.36,-0.24 0.14,-0.05 0.31,-0.08 0.5,-0.08 0.2,0 0.36,0.03 0.5,0.09 0.14,0.06 0.26,0.15 0.35,0.26 0.08,0.1 0.13,0.21 0.16,0.35 0.03,0.13 0.05,0.37 0.05,0.69l0 0.38 -1.35 0c-0,0.01 -0,0.02 -0,0.04 -0.01,0.13 -0.01,0.22 -0.01,0.28 0,0.22 0.02,0.37 0.07,0.46 0.04,0.09 0.12,0.13 0.23,0.13 0.09,0 0.16,-0.03 0.21,-0.1 0.05,-0.07 0.07,-0.17 0.07,-0.3 0,-0.03 -0,-0.07 -0.01,-0.12 -0,-0.01 -0,-0.02 -0,-0.03zm-0.54 -0.89l0.56 0c0,-0 0,-0.01 0,-0.02 0.01,-0.08 0.01,-0.13 0.01,-0.17 0,-0.15 -0.02,-0.27 -0.07,-0.34 -0.05,-0.07 -0.12,-0.11 -0.22,-0.11 -0.1,0 -0.17,0.04 -0.22,0.11 -0.04,0.07 -0.06,0.19 -0.06,0.35 0,0.05 0,0.08 0,0.11 0,0.03 0,0.05 0,0.07zm1.68 1l0.74 0c0.01,0.16 0.04,0.28 0.09,0.36 0.05,0.07 0.13,0.11 0.23,0.11 0.08,0 0.15,-0.03 0.2,-0.08 0.05,-0.05 0.08,-0.12 0.08,-0.2 0,-0.07 -0.02,-0.13 -0.06,-0.17 -0.04,-0.05 -0.12,-0.1 -0.24,-0.16 -0.03,-0.02 -0.07,-0.04 -0.13,-0.07 -0.3,-0.15 -0.51,-0.28 -0.63,-0.41 -0.08,-0.09 -0.15,-0.19 -0.19,-0.3 -0.04,-0.12 -0.07,-0.24 -0.07,-0.36 0,-0.29 0.09,-0.51 0.28,-0.68 0.18,-0.17 0.43,-0.25 0.74,-0.25 0.32,0 0.57,0.08 0.75,0.24 0.17,0.16 0.26,0.4 0.26,0.7l0 0.06 -0.72 -0c-0,-0.16 -0.03,-0.27 -0.07,-0.34 -0.04,-0.07 -0.11,-0.1 -0.2,-0.1 -0.08,0 -0.15,0.02 -0.2,0.07 -0.05,0.05 -0.07,0.11 -0.07,0.19 0,0.14 0.12,0.26 0.37,0.38 0.03,0.02 0.06,0.03 0.08,0.04 0.34,0.16 0.56,0.32 0.68,0.47 0.11,0.15 0.17,0.35 0.17,0.59 0,0.32 -0.09,0.56 -0.28,0.73 -0.18,0.17 -0.45,0.26 -0.79,0.26 -0.32,0 -0.58,-0.09 -0.76,-0.26 -0.18,-0.17 -0.27,-0.42 -0.27,-0.73l0 -0.08zm4.65 -2.14l0 3.13 -0.78 0 0 -0.37c-0.09,0.15 -0.2,0.26 -0.31,0.33 -0.11,0.07 -0.25,0.1 -0.4,0.1 -0.23,0 -0.4,-0.08 -0.5,-0.24 -0.11,-0.16 -0.16,-0.42 -0.16,-0.76l0 -2.18 0.83 0 0 1.93c0,0.25 0.02,0.41 0.05,0.47 0.03,0.06 0.09,0.09 0.16,0.09 0.09,0 0.16,-0.05 0.22,-0.14 0.05,-0.09 0.08,-0.23 0.08,-0.4l0 -1.96 0.82 0zm0.42 2.14l0.74 0c0.01,0.16 0.04,0.28 0.09,0.36 0.05,0.07 0.13,0.11 0.23,0.11 0.08,0 0.15,-0.03 0.2,-0.08 0.05,-0.05 0.08,-0.12 0.08,-0.2 0,-0.07 -0.02,-0.13 -0.06,-0.17 -0.04,-0.05 -0.12,-0.1 -0.24,-0.16 -0.03,-0.02 -0.07,-0.04 -0.13,-0.07 -0.3,-0.15 -0.51,-0.28 -0.63,-0.41 -0.08,-0.09 -0.15,-0.19 -0.19,-0.3 -0.04,-0.12 -0.07,-0.24 -0.07,-0.36 0,-0.29 0.09,-0.51 0.28,-0.68 0.18,-0.17 0.43,-0.25 0.74,-0.25 0.32,0 0.57,0.08 0.75,0.24 0.17,0.16 0.26,0.4 0.26,0.7l0 0.06 -0.72 -0c-0,-0.16 -0.03,-0.27 -0.07,-0.34 -0.04,-0.07 -0.11,-0.1 -0.2,-0.1 -0.08,0 -0.15,0.02 -0.2,0.07 -0.05,0.05 -0.07,0.11 -0.07,0.19 0,0.14 0.12,0.26 0.37,0.38 0.03,0.02 0.06,0.03 0.08,0.04 0.34,0.16 0.56,0.32 0.68,0.47 0.11,0.15 0.17,0.35 0.17,0.59 0,0.32 -0.09,0.56 -0.28,0.73 -0.18,0.17 -0.45,0.26 -0.79,0.26 -0.32,0 -0.58,-0.09 -0.76,-0.26 -0.18,-0.17 -0.27,-0.42 -0.27,-0.73l0 -0.08zm3.61 0.34c0.11,0 0.18,-0.06 0.22,-0.19 0.04,-0.13 0.06,-0.43 0.06,-0.9 0,-0.28 -0.02,-0.48 -0.06,-0.58 -0.04,-0.1 -0.11,-0.16 -0.2,-0.16 -0.11,0 -0.18,0.06 -0.23,0.18 -0.04,0.12 -0.06,0.44 -0.06,0.95 0,0.27 0.02,0.45 0.06,0.55 0.04,0.1 0.11,0.15 0.21,0.15zm-1.08 1.71l0 -4.18 0.76 0 0 0.36c0.08,-0.14 0.17,-0.25 0.29,-0.32 0.11,-0.07 0.24,-0.11 0.38,-0.11 0.12,0 0.22,0.02 0.32,0.06 0.1,0.04 0.17,0.1 0.24,0.18 0.07,0.1 0.12,0.23 0.15,0.39 0.03,0.16 0.04,0.47 0.04,0.92 0,0.71 -0.06,1.18 -0.17,1.4 -0.11,0.22 -0.31,0.33 -0.6,0.33 -0.12,0 -0.23,-0.03 -0.33,-0.09 -0.1,-0.06 -0.18,-0.15 -0.26,-0.27l0 1.33 -0.82 0zm4.02 -2.15l0.78 0 0 0.08c0,0.37 -0.09,0.64 -0.27,0.82 -0.18,0.18 -0.45,0.28 -0.81,0.28 -0.18,0 -0.34,-0.03 -0.49,-0.08 -0.15,-0.05 -0.26,-0.13 -0.34,-0.22 -0.09,-0.11 -0.16,-0.26 -0.2,-0.44 -0.04,-0.18 -0.06,-0.47 -0.06,-0.87 0,-0.44 0.02,-0.75 0.06,-0.92 0.04,-0.17 0.11,-0.32 0.21,-0.43 0.09,-0.11 0.21,-0.19 0.36,-0.24 0.14,-0.05 0.31,-0.08 0.5,-0.08 0.2,0 0.36,0.03 0.51,0.09 0.14,0.06 0.26,0.15 0.35,0.26 0.08,0.1 0.13,0.21 0.16,0.35 0.03,0.13 0.05,0.37 0.05,0.69l0 0.38 -1.35 0c-0,0.01 -0,0.02 -0,0.04 -0.01,0.13 -0.01,0.22 -0.01,0.28 0,0.22 0.02,0.37 0.07,0.46 0.04,0.09 0.12,0.13 0.23,0.13 0.09,0 0.16,-0.03 0.21,-0.1 0.05,-0.07 0.07,-0.17 0.07,-0.3 0,-0.03 -0,-0.07 -0.01,-0.12 -0,-0.01 -0,-0.02 -0,-0.03zm-0.54 -0.89l0.56 0c0,-0 0,-0.01 0,-0.02 0.01,-0.08 0.01,-0.13 0.01,-0.17 0,-0.15 -0.02,-0.27 -0.07,-0.34 -0.05,-0.07 -0.12,-0.11 -0.22,-0.11 -0.1,0 -0.17,0.04 -0.22,0.11 -0.04,0.07 -0.06,0.19 -0.06,0.35 0,0.05 0,0.08 0,0.11 0,0.03 0,0.05 0,0.07zm1.84 1.99l0 -3.13 0.76 0 0 0.44c0.09,-0.16 0.19,-0.28 0.3,-0.36 0.11,-0.08 0.23,-0.13 0.37,-0.14l0 0.99c-0.05,-0.01 -0.09,-0.02 -0.13,-0.02 -0.04,-0.01 -0.08,-0.01 -0.11,-0.01 -0.13,0 -0.23,0.05 -0.28,0.15 -0.05,0.1 -0.08,0.29 -0.08,0.58l0 1.5 -0.82 0zm4 -3.13l0 3.13 -0.78 0 0 -0.37c-0.09,0.15 -0.2,0.26 -0.31,0.33 -0.11,0.07 -0.25,0.1 -0.4,0.1 -0.23,0 -0.4,-0.08 -0.5,-0.24 -0.11,-0.16 -0.16,-0.42 -0.16,-0.76l0 -2.18 0.83 0 0 1.93c0,0.25 0.02,0.41 0.05,0.47 0.03,0.06 0.09,0.09 0.16,0.09 0.09,0 0.16,-0.05 0.22,-0.14 0.05,-0.09 0.08,-0.23 0.08,-0.4l0 -1.96 0.82 0zm0.57 3.13l0 -0.95 0.91 0 0 0.95 -0.91 0zm2.23 -1.56c0,0.44 0.02,0.72 0.06,0.83 0.04,0.11 0.11,0.17 0.21,0.17 0.1,0 0.17,-0.05 0.21,-0.16 0.04,-0.11 0.06,-0.38 0.06,-0.83 0,-0.45 -0.02,-0.73 -0.06,-0.83 -0.04,-0.11 -0.11,-0.16 -0.21,-0.16 -0.1,0 -0.17,0.06 -0.21,0.17 -0.04,0.11 -0.06,0.39 -0.06,0.83zm-0.84 0c0,-0.61 0.08,-1.04 0.25,-1.28 0.17,-0.24 0.45,-0.37 0.85,-0.37 0.4,0 0.69,0.12 0.85,0.36 0.17,0.24 0.25,0.67 0.25,1.28 0,0.61 -0.08,1.04 -0.25,1.28 -0.17,0.24 -0.45,0.37 -0.85,0.37 -0.41,0 -0.69,-0.12 -0.85,-0.36 -0.17,-0.24 -0.25,-0.67 -0.25,-1.28zm2.7 1.56l0 -3.13 0.76 0 0 0.44c0.09,-0.16 0.19,-0.28 0.3,-0.36 0.11,-0.08 0.23,-0.13 0.37,-0.14l0 0.99c-0.05,-0.01 -0.09,-0.02 -0.13,-0.02 -0.04,-0.01 -0.08,-0.01 -0.11,-0.01 -0.13,0 -0.23,0.05 -0.28,0.15 -0.05,0.1 -0.08,0.29 -0.08,0.58l0 1.5 -0.82 0zm2.62 -1.98l0 0.23c0,0.41 0.02,0.67 0.06,0.78 0.04,0.11 0.1,0.17 0.2,0.17 0.1,0 0.16,-0.05 0.2,-0.15 0.04,-0.1 0.06,-0.31 0.06,-0.62l0 -0.13c0,-0.34 -0.02,-0.55 -0.05,-0.64 -0.04,-0.09 -0.1,-0.13 -0.2,-0.13 -0.09,0 -0.15,0.04 -0.2,0.12 -0.04,0.08 -0.06,0.2 -0.06,0.38zm1.34 -1.15l0 2.8c0,0.29 -0.01,0.5 -0.04,0.64 -0.03,0.14 -0.08,0.25 -0.15,0.35 -0.1,0.13 -0.22,0.23 -0.38,0.29 -0.16,0.07 -0.35,0.1 -0.58,0.1 -0.35,0 -0.61,-0.07 -0.77,-0.22 -0.17,-0.15 -0.25,-0.38 -0.25,-0.69l0.82 0c0,0.12 0.02,0.2 0.06,0.26 0.04,0.05 0.1,0.08 0.19,0.08 0.11,0 0.18,-0.04 0.22,-0.11 0.04,-0.07 0.06,-0.21 0.06,-0.42l0 -0.37c-0.11,0.1 -0.21,0.18 -0.31,0.23 -0.1,0.05 -0.2,0.07 -0.3,0.07 -0.14,0 -0.27,-0.04 -0.38,-0.12 -0.11,-0.08 -0.2,-0.2 -0.26,-0.35 -0.03,-0.08 -0.06,-0.2 -0.07,-0.35 -0.01,-0.15 -0.02,-0.35 -0.02,-0.59 0,-0.23 0.01,-0.44 0.02,-0.62 0.01,-0.18 0.03,-0.33 0.04,-0.44 0.03,-0.17 0.11,-0.32 0.24,-0.43 0.12,-0.11 0.27,-0.17 0.43,-0.17 0.13,0 0.25,0.03 0.37,0.1 0.11,0.07 0.22,0.17 0.33,0.32l0 -0.35 0.75 0z"/>
   <path class="fil12" d="M86.4 29.27l0 -1.29 0.41 0 0.06 -0.5 -0.47 0 0 -0.28c0,-0.08 0,-0.13 0.01,-0.15 0,-0.01 0.01,-0.02 0.02,-0.05 0.03,-0.06 0.11,-0.09 0.24,-0.09l0.22 0 0 -0.45c-0.11,-0.01 -0.24,-0.02 -0.36,-0.02 -0.25,0 -0.42,0.1 -0.53,0.29 -0.06,0.11 -0.09,0.23 -0.09,0.37l0 0.38 -0.41 0 0 0.5 0.41 0 0 1.29 0.49 0zm-0.2 1.26c-0.34,0 -0.66,-0.07 -0.97,-0.2 -0.31,-0.13 -0.58,-0.33 -0.82,-0.58 -0.24,-0.25 -0.42,-0.54 -0.55,-0.87 -0.13,-0.32 -0.19,-0.67 -0.19,-1.02 0,-0.36 0.06,-0.7 0.19,-1.02 0.13,-0.32 0.31,-0.61 0.55,-0.87 0.24,-0.25 0.52,-0.45 0.82,-0.58 0.31,-0.13 0.63,-0.2 0.97,-0.2 0.34,0 0.66,0.07 0.97,0.2 0.31,0.13 0.58,0.33 0.82,0.58 0.24,0.25 0.42,0.54 0.55,0.87 0.13,0.32 0.19,0.67 0.19,1.02 0,0.36 -0.06,0.7 -0.19,1.02 -0.13,0.32 -0.31,0.61 -0.55,0.87 -0.24,0.25 -0.52,0.45 -0.82,0.58 -0.31,0.13 -0.63,0.2 -0.97,0.2zm7.65 -3.33c-0.02,-0.06 -0.04,-0.11 -0.08,-0.15 -0.04,-0.04 -0.09,-0.07 -0.14,-0.09 -0.05,-0.01 -0.13,-0.02 -0.24,-0.03 -0.11,-0.01 -0.22,-0.01 -0.34,-0.02 -0.12,-0 -0.22,-0.01 -0.3,-0.01 -0.08,-0 -0.12,-0 -0.12,-0 0,0 -0.04,0 -0.13,0 -0.09,0 -0.19,0 -0.3,0.01 -0.12,0 -0.23,0.01 -0.34,0.02 -0.11,0.01 -0.19,0.02 -0.24,0.03 -0.05,0.02 -0.1,0.05 -0.14,0.09 -0.04,0.04 -0.07,0.09 -0.08,0.15 -0.01,0.06 -0.02,0.12 -0.03,0.19 -0.01,0.07 -0.01,0.14 -0.02,0.21 -0,0.07 -0.01,0.13 -0.01,0.18 -0,0.05 -0,0.07 -0,0.07 0,0 0,0.02 0,0.07 0,0.05 0,0.11 0.01,0.18 0,0.07 0.01,0.14 0.02,0.21 0.01,0.07 0.02,0.13 0.03,0.19 0.02,0.06 0.04,0.11 0.08,0.15 0.04,0.04 0.09,0.07 0.14,0.09 0.05,0.01 0.14,0.03 0.24,0.03 0.11,0.01 0.22,0.01 0.34,0.02 0.12,0 0.22,0.01 0.3,0.01 0.08,0 0.13,0 0.13,0 0,0 0.04,0 0.12,-0 0.08,-0 0.18,-0 0.3,-0.01 0.12,-0 0.23,-0.01 0.34,-0.02 0.11,-0.01 0.19,-0.02 0.24,-0.03 0.06,-0.02 0.1,-0.05 0.14,-0.09 0.04,-0.04 0.07,-0.09 0.08,-0.15 0.01,-0.05 0.02,-0.12 0.03,-0.19 0.01,-0.07 0.01,-0.14 0.02,-0.21 0,-0.07 0.01,-0.13 0.01,-0.18 0,-0.05 0,-0.07 0,-0.07 0,0 -0,-0.02 -0,-0.07 -0,-0.05 -0,-0.11 -0.01,-0.18 -0,-0.07 -0.01,-0.14 -0.01,-0.22 -0.01,-0.07 -0.02,-0.14 -0.03,-0.19zm-0.82 0.65l-0.67 0.4 0 -0.81 0.67 0.41zm-0.41 2.67c-0.34,0 -0.66,-0.07 -0.97,-0.2 -0.31,-0.13 -0.58,-0.33 -0.82,-0.58 -0.24,-0.25 -0.43,-0.54 -0.55,-0.87 -0.13,-0.32 -0.19,-0.67 -0.19,-1.02 0,-0.36 0.06,-0.7 0.19,-1.02 0.13,-0.32 0.31,-0.61 0.55,-0.87 0.24,-0.25 0.52,-0.45 0.82,-0.58 0.31,-0.13 0.63,-0.2 0.97,-0.2 0.34,0 0.66,0.07 0.97,0.2 0.31,0.13 0.58,0.33 0.82,0.58 0.24,0.25 0.42,0.54 0.55,0.87 0.13,0.32 0.19,0.67 0.19,1.02 0,0.36 -0.06,0.7 -0.19,1.02 -0.13,0.32 -0.31,0.61 -0.55,0.87 -0.24,0.25 -0.52,0.45 -0.82,0.58 -0.31,0.13 -0.63,0.2 -0.97,0.2zm6.43 0c-0.34,0 -0.66,-0.07 -0.97,-0.2 -0.31,-0.13 -0.58,-0.33 -0.82,-0.58 -0.24,-0.25 -0.42,-0.54 -0.55,-0.87 -0.13,-0.32 -0.19,-0.67 -0.19,-1.02 0,-0.36 0.06,-0.7 0.19,-1.02 0.13,-0.32 0.31,-0.61 0.55,-0.87 0.24,-0.25 0.52,-0.45 0.82,-0.58 0.31,-0.13 0.63,-0.2 0.97,-0.2 0.34,0 0.66,0.07 0.97,0.2 0.31,0.13 0.58,0.33 0.82,0.58 0.24,0.25 0.42,0.54 0.55,0.87 0.13,0.32 0.19,0.67 0.19,1.02 0,0.36 -0.06,0.7 -0.19,1.02 -0.13,0.32 -0.31,0.61 -0.55,0.87 -0.24,0.25 -0.52,0.45 -0.82,0.58 -0.31,0.13 -0.63,0.2 -0.97,0.2zm0 -4.01c-0.12,0 -0.2,0 -0.26,0 -0.06,0 -0.11,0 -0.14,0 -0.04,0 -0.08,0 -0.12,0.01 -0.13,0.01 -0.23,0.03 -0.31,0.06 -0.08,0.03 -0.16,0.08 -0.23,0.16 -0.07,0.07 -0.12,0.15 -0.15,0.24 -0.03,0.08 -0.05,0.19 -0.06,0.33 -0,0.05 -0,0.09 -0,0.13 -0,0.04 -0,0.09 -0,0.15 -0,0.06 -0,0.16 -0,0.28 0,0.12 0,0.22 0,0.28 0,0.06 0,0.11 0,0.15 0,0.04 0,0.08 0,0.13 0.01,0.14 0.03,0.25 0.06,0.33 0.03,0.09 0.08,0.17 0.15,0.24 0.07,0.07 0.14,0.12 0.23,0.16 0.08,0.03 0.18,0.06 0.31,0.06 0.04,0 0.08,0 0.12,0.01 0.04,0 0.09,0 0.15,0 0.06,0 0.15,0 0.26,0 0.12,0 0.2,0 0.26,0 0.06,0 0.11,-0 0.15,-0 0.04,-0 0.08,-0 0.12,-0.01 0.13,-0.01 0.24,-0.03 0.31,-0.06 0.08,-0.03 0.16,-0.08 0.23,-0.16 0.07,-0.07 0.12,-0.15 0.15,-0.24 0.03,-0.08 0.05,-0.19 0.06,-0.33 0,-0.05 0,-0.09 0,-0.13 0,-0.04 0,-0.09 0,-0.15 0,-0.06 0,-0.16 0,-0.28 0,-0.12 -0,-0.21 -0,-0.28 -0,-0.06 -0,-0.11 -0,-0.15 -0,-0.04 -0,-0.08 -0,-0.13 -0.01,-0.14 -0.03,-0.25 -0.06,-0.33 -0.03,-0.09 -0.08,-0.16 -0.15,-0.24 -0.07,-0.07 -0.14,-0.12 -0.23,-0.16 -0.08,-0.04 -0.18,-0.06 -0.31,-0.06 -0.04,-0 -0.08,-0 -0.12,-0.01 -0.04,-0 -0.09,-0 -0.15,-0 -0.06,0 -0.14,0 -0.26,0zm-0.12 0.24c0.02,0 0.05,0 0.07,0 0.01,0 0.03,0 0.04,0 0.11,0 0.2,0 0.26,0 0.06,0 0.11,0 0.14,0 0.04,0 0.08,0 0.12,0.01 0.12,0.01 0.2,0.02 0.24,0.05 0.06,0.02 0.1,0.05 0.15,0.1 0.04,0.04 0.07,0.1 0.09,0.15 0.02,0.04 0.04,0.13 0.04,0.25 0,0.05 0,0.09 0.01,0.12 0,0.04 0,0.09 0,0.15 0,0.06 0,0.15 0,0.27 0,0.12 0,0.21 0,0.27 0,0.06 -0,0.11 -0,0.15 -0,0.04 -0,0.08 -0.01,0.12 -0.01,0.12 -0.02,0.21 -0.04,0.25 -0.02,0.06 -0.05,0.11 -0.09,0.16 -0.04,0.04 -0.09,0.08 -0.15,0.1 -0.04,0.02 -0.12,0.04 -0.24,0.05 -0.04,0 -0.08,0 -0.12,0 -0.04,0 -0.08,0 -0.14,0 -0.06,0 -0.14,0 -0.26,0 -0.11,0 -0.2,-0 -0.26,-0 -0.06,-0 -0.11,-0 -0.14,-0 -0.04,-0 -0.08,-0 -0.12,-0 -0.12,-0.01 -0.2,-0.03 -0.24,-0.05 -0.06,-0.02 -0.11,-0.06 -0.15,-0.1 -0.04,-0.05 -0.07,-0.1 -0.09,-0.16 -0.02,-0.04 -0.04,-0.12 -0.04,-0.25 -0,-0.05 -0,-0.09 -0.01,-0.12 -0,-0.04 -0,-0.09 -0,-0.15 0,-0.06 0,-0.15 0,-0.27 0,-0.12 0,-0.21 0,-0.27 0,-0.06 0,-0.11 0,-0.15 0,-0.04 0,-0.08 0.01,-0.12 0.01,-0.13 0.02,-0.21 0.04,-0.25 0.02,-0.06 0.05,-0.11 0.09,-0.15 0.04,-0.05 0.09,-0.08 0.15,-0.1 0.04,-0.02 0.12,-0.04 0.24,-0.05 0.04,-0 0.07,-0.01 0.1,-0.01 0.03,-0 0.07,-0 0.11,-0 0.04,0 0.11,0 0.18,0zm0.8 0.22c-0.04,0 -0.08,0.02 -0.11,0.05 -0.03,0.03 -0.04,0.07 -0.04,0.11 0,0.05 0.02,0.08 0.04,0.12 0.03,0.03 0.07,0.05 0.11,0.05 0.04,0 0.08,-0.02 0.11,-0.05 0.03,-0.03 0.04,-0.07 0.04,-0.12 0,-0.04 -0.02,-0.08 -0.04,-0.11 -0.03,-0.03 -0.06,-0.05 -0.11,-0.05zm-0.68 0.19c-0.18,0 -0.34,0.07 -0.46,0.2 -0.13,0.14 -0.19,0.3 -0.19,0.49 0,0.19 0.06,0.36 0.19,0.49 0.13,0.13 0.28,0.2 0.46,0.2 0.18,0 0.34,-0.07 0.46,-0.2 0.13,-0.13 0.19,-0.3 0.19,-0.49 0,-0.19 -0.06,-0.35 -0.19,-0.49 -0.13,-0.13 -0.28,-0.2 -0.46,-0.2zm0 0.24c0.12,0 0.22,0.04 0.3,0.13 0.08,0.09 0.13,0.19 0.13,0.32 0,0.12 -0.04,0.23 -0.13,0.32 -0.08,0.09 -0.18,0.13 -0.3,0.13 -0.12,0 -0.22,-0.04 -0.3,-0.13 -0.08,-0.09 -0.13,-0.19 -0.13,-0.32 0,-0.12 0.04,-0.23 0.13,-0.32 0.08,-0.09 0.18,-0.13 0.3,-0.13z"/>
  </g>
 </g>
</svg>
